Crimson-Roman.ufo
<glyph name="exclam" format="1">
  <advance width="241"/>
  <unicode hex="0021"/>
  <outline>
    <contour>
      <point x="75" y="584" type="curve" smooth="yes"/>
      <point x="75" y="612"/>
      <point x="93" y="642"/>
      <point x="125" y="642" type="curve" smooth="yes"/>
      <point x="156" y="642"/>
      <point x="169" y="610"/>
      <point x="169" y="584" type="curve" smooth="yes"/>
      <point x="169" y="556"/>
      <point x="155" y="422"/>
      <point x="134" y="172" type="curve"/>
      <point x="130" y="164"/>
      <point x="127" y="160"/>
      <point x="118" y="159" type="curve"/>
      <point x="113" y="161"/>
      <point x="108" y="164"/>
      <point x="105" y="170" type="curve"/>
      <point x="91" y="331"/>
      <point x="75" y="533"/>
    </contour>
    <component base="period" xOffset="17"/>
  </outline>
</glyph>
<glyph name="quotedbl" format="1">
  <advance width="280"/>
  <unicode hex="0022"/>
  <outline>
    <contour>
      <point x="39" y="629" type="curve" smooth="yes"/>
      <point x="39" y="657"/>
      <point x="59" y="699"/>
      <point x="91" y="699" type="curve" smooth="yes"/>
      <point x="103" y="699"/>
      <point x="109" y="696"/>
      <point x="117" y="686" type="curve"/>
      <point x="117" y="657"/>
      <point x="109" y="544"/>
      <point x="103" y="492" type="curve"/>
      <point x="100" y="486"/>
      <point x="91" y="477"/>
      <point x="83" y="473" type="curve"/>
      <point x="80" y="473"/>
      <point x="76" y="475"/>
      <point x="74" y="479" type="curve"/>
      <point x="53" y="551"/>
      <point x="39" y="601"/>
    </contour>
    <contour>
      <point x="159" y="629" type="curve" smooth="yes"/>
      <point x="159" y="657"/>
      <point x="179" y="699"/>
      <point x="211" y="699" type="curve" smooth="yes"/>
      <point x="223" y="699"/>
      <point x="229" y="696"/>
      <point x="237" y="686" type="curve"/>
      <point x="237" y="657"/>
      <point x="229" y="544"/>
      <point x="223" y="492" type="curve"/>
      <point x="220" y="486"/>
      <point x="211" y="477"/>
      <point x="203" y="473" type="curve"/>
      <point x="200" y="473"/>
      <point x="196" y="475"/>
      <point x="194" y="479" type="curve"/>
      <point x="173" y="551"/>
      <point x="159" y="601"/>
    </contour>
  </outline>
</glyph>
<glyph name="numbersign" format="1">
  <advance width="480"/>
  <unicode hex="0023"/>
  <outline>
    <contour>
      <point x="85" y="369" type="line" smooth="yes"/>
      <point x="73" y="369"/>
      <point x="81" y="414"/>
      <point x="94" y="418" type="curve"/>
      <point x="162" y="418" type="line"/>
      <point x="178" y="518" type="line" smooth="yes"/>
      <point x="181" y="527"/>
      <point x="181" y="531"/>
      <point x="200" y="531" type="curve" smooth="yes"/>
      <point x="209" y="531"/>
      <point x="210" y="530"/>
      <point x="213" y="528" type="curve" smooth="yes"/>
      <point x="195.195" y="418" type="line"/>
      <point x="323" y="418" type="line"/>
      <point x="339" y="518" type="line" smooth="yes"/>
      <point x="342" y="527"/>
      <point x="342" y="531"/>
      <point x="361" y="531" type="curve" smooth="yes"/>
      <point x="370" y="531"/>
      <point x="371" y="530"/>
      <point x="374" y="528" type="curve" smooth="yes"/>
      <point x="356.439" y="418" type="line"/>
      <point x="420" y="418" type="line" smooth="yes"/>
      <point x="434" y="418"/>
      <point x="427" y="375"/>
      <point x="414" y="369" type="curve"/>
      <point x="348.616" y="369" type="line"/>
      <point x="325.947" y="227" type="line"/>
      <point x="393" y="227" type="line" smooth="yes"/>
      <point x="407" y="227"/>
      <point x="399" y="184"/>
      <point x="386" y="178" type="curve"/>
      <point x="318.124" y="178" type="line"/>
      <point x="302" y="77" type="line" smooth="yes"/>
      <point x="301" y="73"/>
      <point x="293" y="64"/>
      <point x="278" y="64" type="curve" smooth="yes"/>
      <point x="268" y="64"/>
      <point x="267" y="68" type="line"/>
      <point x="284.6" y="178" type="line"/>
      <point x="156.348" y="178" type="line"/>
      <point x="140" y="77" type="line" smooth="yes"/>
      <point x="139" y="73"/>
      <point x="132" y="64"/>
      <point x="117" y="64" type="curve" smooth="yes"/>
      <point x="107" y="64"/>
      <point x="106" y="68" type="line"/>
      <point x="123.6" y="178" type="line"/>
      <point x="57" y="178" type="line" smooth="yes"/>
      <point x="45" y="178"/>
      <point x="54" y="223"/>
      <point x="67" y="227" type="curve"/>
      <point x="131.44" y="227" type="line"/>
      <point x="154.16" y="369" type="line"/>
    </contour>
    <contour>
      <point x="187.264" y="369" type="line"/>
      <point x="164.279" y="227" type="line"/>
      <point x="292.44" y="227" type="line"/>
      <point x="315.16" y="369" type="line"/>
    </contour>
  </outline>
</glyph>
<glyph name="ampersand" format="1">
  <advance width="683"/>
  <unicode hex="0026"/>
  <outline>
    <contour>
      <point x="53" y="158" type="curve" smooth="yes"/>
      <point x="53" y="254"/>
      <point x="135" y="307"/>
      <point x="219" y="350" type="curve"/>
      <point x="182" y="413"/>
      <point x="161" y="458"/>
      <point x="161" y="519" type="curve" smooth="yes"/>
      <point x="161" y="595"/>
      <point x="224" y="656"/>
      <point x="308" y="656" type="curve" smooth="yes"/>
      <point x="396" y="656"/>
      <point x="453" y="616"/>
      <point x="453" y="544" type="curve" smooth="yes"/>
      <point x="453" y="454"/>
      <point x="380" y="400"/>
      <point x="304" y="353" type="curve"/>
      <point x="346" y="282"/>
      <point x="402" y="210"/>
      <point x="452" y="154" type="curve"/>
      <point x="489" y="210"/>
      <point x="509" y="261"/>
      <point x="509" y="271" type="curve" smooth="yes"/>
      <point x="509" y="291"/>
      <point x="471" y="287"/>
      <point x="464" y="289" type="curve"/>
      <point x="461" y="295"/>
      <point x="461" y="308"/>
      <point x="465" y="312" type="curve"/>
      <point x="544" y="312" type="line" smooth="yes"/>
      <point x="579" y="312"/>
      <point x="608" y="315"/>
      <point x="654" y="317" type="curve"/>
      <point x="657" y="315"/>
      <point x="656" y="289"/>
      <point x="653" y="289" type="curve"/>
      <point x="636" y="289"/>
      <point x="595" y="279"/>
      <point x="584" y="272" type="curve" smooth="yes"/>
      <point x="579" y="269"/>
      <point x="541" y="194"/>
      <point x="480" y="123" type="curve"/>
      <point x="525" y="76"/>
      <point x="554" y="45"/>
      <point x="578" y="45" type="curve" smooth="yes"/>
      <point x="599" y="45"/>
      <point x="625" y="78"/>
      <point x="630" y="91" type="curve"/>
      <point x="641" y="91"/>
      <point x="653" y="80"/>
      <point x="653" y="73" type="curve"/>
      <point x="649" y="64"/>
      <point x="621" y="0"/>
      <point x="544" y="0" type="curve" smooth="yes"/>
      <point x="485" y="0"/>
      <point x="429" y="72"/>
      <point x="429" y="72" type="curve"/>
      <point x="381" y="30"/>
      <point x="313" y="-3"/>
      <point x="247" y="-3" type="curve" smooth="yes"/>
      <point x="130" y="-3"/>
      <point x="53" y="57"/>
    </contour>
    <contour>
      <point x="139" y="172" type="curve" smooth="yes"/>
      <point x="139" y="78"/>
      <point x="208" y="40"/>
      <point x="281" y="40" type="curve" smooth="yes"/>
      <point x="321" y="40"/>
      <point x="374" y="61"/>
      <point x="406" y="95" type="curve"/>
      <point x="347" y="156"/>
      <point x="287" y="239"/>
      <point x="242" y="314" type="curve"/>
      <point x="178" y="271"/>
      <point x="139" y="238"/>
    </contour>
    <contour>
      <point x="234" y="543" type="curve" smooth="yes"/>
      <point x="234" y="494"/>
      <point x="254" y="443"/>
      <point x="286" y="385" type="curve"/>
      <point x="348" y="421"/>
      <point x="385" y="453"/>
      <point x="385" y="530" type="curve" smooth="yes"/>
      <point x="385" y="575"/>
      <point x="358" y="620"/>
      <point x="308" y="620" type="curve" smooth="yes"/>
      <point x="270" y="620"/>
      <point x="234" y="589"/>
    </contour>
  </outline>
</glyph>
<glyph name="quotesingle" format="1">
  <advance width="160"/>
  <unicode hex="0027"/>
  <outline>
    <contour>
      <point x="39" y="629" type="curve" smooth="yes"/>
      <point x="39" y="657"/>
      <point x="59" y="699"/>
      <point x="91" y="699" type="curve" smooth="yes"/>
      <point x="103" y="699"/>
      <point x="109" y="696"/>
      <point x="117" y="686" type="curve"/>
      <point x="117" y="657"/>
      <point x="109" y="544"/>
      <point x="103" y="492" type="curve"/>
      <point x="100" y="486"/>
      <point x="91" y="477"/>
      <point x="83" y="473" type="curve"/>
      <point x="80" y="473"/>
      <point x="76" y="475"/>
      <point x="74" y="479" type="curve"/>
      <point x="53" y="551"/>
      <point x="39" y="601"/>
    </contour>
  </outline>
</glyph>
<glyph name="parenleft" format="1">
  <advance width="262"/>
  <unicode hex="0028"/>
  <outline>
    <contour>
      <point x="37" y="285" type="curve" smooth="yes"/>
      <point x="37" y="480"/>
      <point x="120" y="627"/>
      <point x="237" y="719" type="curve"/>
      <point x="244" y="715"/>
      <point x="257" y="699"/>
      <point x="256" y="699" type="curve"/>
      <point x="162" y="616"/>
      <point x="110" y="443"/>
      <point x="110" y="285" type="curve" smooth="yes"/>
      <point x="110" y="128"/>
      <point x="162" y="-47"/>
      <point x="256" y="-130" type="curve"/>
      <point x="257" y="-130"/>
      <point x="244" y="-146"/>
      <point x="237" y="-150" type="curve"/>
      <point x="120" y="-58"/>
      <point x="37" y="91"/>
    </contour>
  </outline>
</glyph>
<glyph name="parenright" format="1">
  <advance width="262"/>
  <unicode hex="0029"/>
  <outline>
    <contour>
      <point x="6" y="-130" type="curve"/>
      <point x="100" y="-47"/>
      <point x="152" y="128"/>
      <point x="152" y="285" type="curve" smooth="yes"/>
      <point x="152" y="443"/>
      <point x="100" y="616"/>
      <point x="6" y="699" type="curve"/>
      <point x="5" y="699"/>
      <point x="18" y="715"/>
      <point x="25" y="719" type="curve"/>
      <point x="142" y="627"/>
      <point x="225" y="480"/>
      <point x="225" y="285" type="curve" smooth="yes"/>
      <point x="225" y="91"/>
      <point x="142" y="-58"/>
      <point x="25" y="-150" type="curve"/>
      <point x="18" y="-146"/>
      <point x="5" y="-130"/>
    </contour>
  </outline>
</glyph>
<glyph name="asterisk" format="1">
  <advance width="443"/>
  <unicode hex="002A"/>
  <outline>
    <contour>
      <point x="35" y="463" type="curve" smooth="yes"/>
      <point x="35" y="486"/>
      <point x="55" y="500"/>
      <point x="93" y="500" type="curve" smooth="yes"/>
      <point x="110.658" y="500"/>
      <point x="125.583" y="498.575"/>
      <point x="142" y="495.58" type="curve" smooth="yes"/>
      <point x="152.689" y="493.629"/>
      <point x="165.304" y="493"/>
      <point x="176" y="493" type="curve" smooth="yes"/>
      <point x="186.4" y="493"/>
      <point x="202" y="495"/>
      <point x="202" y="507" type="curve" smooth="yes"/>
      <point x="202" y="510"/>
      <point x="200.979" y="512.784"/>
      <point x="199" y="516" type="curve" smooth="yes"/>
      <point x="191" y="529"/>
      <point x="181.75" y="540.75"/>
      <point x="170.732" y="552" type="curve" smooth="yes"/>
      <point x="158" y="565"/>
      <point x="143" y="581"/>
      <point x="130" y="604" type="curve" smooth="yes"/>
      <point x="124.499" y="613.733"/>
      <point x="122" y="623"/>
      <point x="122" y="633" type="curve" smooth="yes"/>
      <point x="122" y="652"/>
      <point x="135" y="664"/>
      <point x="152" y="664" type="curve" smooth="yes"/>
      <point x="166" y="664"/>
      <point x="179" y="654"/>
      <point x="187" y="637" type="curve" smooth="yes"/>
      <point x="198.118" y="612.541"/>
      <point x="202" y="592"/>
      <point x="204.667" y="572" type="curve" smooth="yes"/>
      <point x="206.789" y="556.088"/>
      <point x="210.45" y="540.988"/>
      <point x="218" y="525" type="curve" smooth="yes"/>
      <point x="221" y="519"/>
      <point x="225.838" y="514"/>
      <point x="229" y="514" type="curve" smooth="yes"/>
      <point x="234" y="514"/>
      <point x="237" y="516"/>
      <point x="241" y="520" type="curve" smooth="yes"/>
      <point x="253" y="533"/>
      <point x="260" y="546"/>
      <point x="268" y="561" type="curve" smooth="yes"/>
      <point x="284" y="593"/>
      <point x="309" y="633"/>
      <point x="339" y="633" type="curve" smooth="yes"/>
      <point x="353" y="633"/>
      <point x="368" y="620"/>
      <point x="368" y="602" type="curve" smooth="yes"/>
      <point x="368" y="571.367"/>
      <point x="329" y="550"/>
      <point x="298" y="534" type="curve" smooth="yes"/>
      <point x="282.893" y="526.203"/>
      <point x="268.51" y="518.51"/>
      <point x="256" y="506" type="curve" smooth="yes"/>
      <point x="253" y="503"/>
      <point x="249" y="498"/>
      <point x="249" y="493" type="curve" smooth="yes"/>
      <point x="249" y="487"/>
      <point x="254.233" y="483.596"/>
      <point x="260" y="481" type="curve" smooth="yes"/>
      <point x="272.996" y="475.149"/>
      <point x="286.033" y="471.548"/>
      <point x="304" y="468.62" type="curve" smooth="yes"/>
      <point x="343.2" y="462.232"/>
      <point x="399" y="446.897"/>
      <point x="399" y="414" type="curve" smooth="yes"/>
      <point x="399" y="401"/>
      <point x="388" y="383"/>
      <point x="365" y="383" type="curve" smooth="yes"/>
      <point x="342" y="383"/>
      <point x="314.787" y="406.267"/>
      <point x="285" y="435.144" type="curve" smooth="yes"/>
      <point x="274.467" y="445.354"/>
      <point x="263" y="455"/>
      <point x="250" y="462" type="curve" smooth="yes"/>
      <point x="244.866" y="464.764"/>
      <point x="242" y="466"/>
      <point x="239" y="466" type="curve" smooth="yes"/>
      <point x="231.305" y="466"/>
      <point x="229" y="458"/>
      <point x="229" y="449" type="curve" smooth="yes"/>
      <point x="229" y="435.817"/>
      <point x="230.168" y="423.969"/>
      <point x="231.474" y="412" type="curve" smooth="yes"/>
      <point x="233.127" y="396.845"/>
      <point x="235" y="378.496"/>
      <point x="235" y="360" type="curve" smooth="yes"/>
      <point x="235" y="327.233"/>
      <point x="225.48" y="299"/>
      <point x="200" y="299" type="curve" smooth="yes"/>
      <point x="179" y="299"/>
      <point x="167" y="315"/>
      <point x="167" y="335" type="curve" smooth="yes"/>
      <point x="167" y="360"/>
      <point x="182.325" y="392.635"/>
      <point x="195.377" y="418" type="curve" smooth="yes"/>
      <point x="201.459" y="429.819"/>
      <point x="209.107" y="451"/>
      <point x="209.107" y="460" type="curve" smooth="yes"/>
      <point x="209.107" y="468.207"/>
      <point x="205" y="474"/>
      <point x="197" y="474" type="curve" smooth="yes"/>
      <point x="187.645" y="474"/>
      <point x="166.052" y="464.91"/>
      <point x="152" y="457.855" type="curve" smooth="yes"/>
      <point x="132.34" y="447.985"/>
      <point x="97.9669" y="432"/>
      <point x="73" y="432" type="curve" smooth="yes"/>
      <point x="52" y="432"/>
      <point x="35" y="442"/>
    </contour>
  </outline>
</glyph>
<glyph name="plus" format="1">
  <advance width="542"/>
  <unicode hex="002B"/>
  <outline>
    <contour>
      <point x="31" y="228" type="curve" smooth="yes"/>
      <point x="31" y="232"/>
      <point x="36" y="266"/>
      <point x="46" y="274" type="curve"/>
      <point x="242" y="274" type="line"/>
      <point x="242" y="474" type="line"/>
      <point x="258" y="480"/>
      <point x="278" y="485"/>
      <point x="285" y="485" type="curve" smooth="yes"/>
      <point x="295" y="485"/>
      <point x="298" y="479"/>
      <point x="298" y="479" type="curve"/>
      <point x="298" y="274" type="line"/>
      <point x="502" y="274" type="line" smooth="yes"/>
      <point x="506" y="274"/>
      <point x="511" y="270"/>
      <point x="511" y="262" type="curve" smooth="yes"/>
      <point x="511" y="246"/>
      <point x="503" y="226"/>
      <point x="495" y="218" type="curve"/>
      <point x="298" y="218" type="line"/>
      <point x="298" y="16" type="line"/>
      <point x="286" y="7"/>
      <point x="265" y="5"/>
      <point x="255" y="5" type="curve" smooth="yes"/>
      <point x="248" y="5"/>
      <point x="242" y="10"/>
      <point x="242" y="14" type="curve" smooth="yes"/>
      <point x="242" y="218" type="line"/>
      <point x="37" y="218" type="line"/>
      <point x="37" y="218"/>
      <point x="31" y="218"/>
    </contour>
  </outline>
</glyph>
<glyph name="comma" format="1">
  <advance width="201"/>
  <unicode hex="002C"/>
  <outline>
    <contour>
      <point x="17" y="-118" type="curve"/>
      <point x="37" y="-103"/>
      <point x="80" y="-71"/>
      <point x="80" y="-7" type="curve" smooth="yes"/>
      <point x="80" y="26"/>
      <point x="47" y="35"/>
      <point x="47" y="74" type="curve" smooth="yes"/>
      <point x="47" y="95"/>
      <point x="70" y="123"/>
      <point x="106" y="123" type="curve" smooth="yes"/>
      <point x="114" y="123"/>
      <point x="125" y="120"/>
      <point x="132" y="116" type="curve"/>
      <point x="139" y="104"/>
      <point x="150" y="84"/>
      <point x="150" y="46" type="curve" smooth="yes"/>
      <point x="150" y="-11"/>
      <point x="83" y="-111"/>
      <point x="32" y="-139" type="curve"/>
      <point x="25" y="-139"/>
      <point x="17" y="-124"/>
    </contour>
  </outline>
</glyph>
<glyph name="hyphen" format="1">
  <advance width="377"/>
  <unicode hex="002D"/>
  <outline>
    <contour>
      <point x="58" y="210" type="curve" smooth="yes"/>
      <point x="58" y="229"/>
      <point x="64" y="246"/>
      <point x="71" y="261" type="curve"/>
      <point x="71" y="261"/>
      <point x="279" y="272"/>
      <point x="312" y="273" type="curve" smooth="yes"/>
      <point x="316" y="273"/>
      <point x="319" y="272"/>
      <point x="319" y="264" type="curve" smooth="yes"/>
      <point x="319" y="247"/>
      <point x="314" y="227"/>
      <point x="306" y="210" type="curve"/>
      <point x="65" y="199" type="line" smooth="yes"/>
      <point x="60" y="199"/>
      <point x="58" y="201"/>
    </contour>
  </outline>
</glyph>
<glyph name="two" format="1">
  <advance width="497"/>
  <unicode hex="0032"/>
  <outline>
    <contour>
      <point x="44" y="14" type="curve"/>
      <point x="128" y="107"/>
      <point x="224" y="221"/>
      <point x="282" y="306" type="curve" smooth="yes"/>
      <point x="323" y="366"/>
      <point x="330" y="407"/>
      <point x="330" y="456" type="curve" smooth="yes"/>
      <point x="330" y="525"/>
      <point x="284" y="577"/>
      <point x="220" y="577" type="curve" smooth="yes"/>
      <point x="140" y="577"/>
      <point x="89" y="511"/>
      <point x="77" y="491" type="curve"/>
      <point x="69" y="491"/>
      <point x="58" y="503"/>
      <point x="58" y="507" type="curve"/>
      <point x="65" y="532"/>
      <point x="137" y="642"/>
      <point x="242" y="642" type="curve" smooth="yes"/>
      <point x="338" y="642"/>
      <point x="415" y="560"/>
      <point x="415" y="475" type="curve" smooth="yes"/>
      <point x="415" y="418"/>
      <point x="393" y="367"/>
      <point x="358" y="324" type="curve" smooth="yes"/>
      <point x="287" y="237"/>
      <point x="185" y="123"/>
      <point x="140" y="73" type="curve"/>
      <point x="338" y="73" type="line" smooth="yes"/>
      <point x="378" y="73"/>
      <point x="401" y="98"/>
      <point x="422" y="150" type="curve" smooth="yes"/>
      <point x="424" y="155"/>
      <point x="428" y="156"/>
      <point x="434" y="156" type="curve" smooth="yes"/>
      <point x="438" y="156"/>
      <point x="450" y="153"/>
      <point x="454" y="150" type="curve"/>
      <point x="434" y="101"/>
      <point x="406" y="18"/>
      <point x="400" y="0" type="curve"/>
      <point x="400" y="0"/>
      <point x="61" y="0"/>
      <point x="54" y="0" type="curve"/>
      <point x="50" y="2"/>
      <point x="44" y="10"/>
    </contour>
  </outline>
</glyph>
<glyph name="three" format="1">
  <advance width="497"/>
  <unicode hex="0033"/>
  <outline>
    <contour>
      <point x="60" y="56" type="curve" smooth="yes"/>
      <point x="60" y="85"/>
      <point x="80" y="104"/>
      <point x="102" y="104" type="curve" smooth="yes"/>
      <point x="130" y="104"/>
      <point x="142" y="76"/>
      <point x="158" y="60" type="curve" smooth="yes"/>
      <point x="177" y="41"/>
      <point x="205" y="35"/>
      <point x="232" y="35" type="curve" smooth="yes"/>
      <point x="285" y="35"/>
      <point x="350" y="75"/>
      <point x="350" y="190" type="curve" smooth="yes"/>
      <point x="350" y="271"/>
      <point x="288" y="331"/>
      <point x="222" y="331" type="curve" smooth="yes"/>
      <point x="201" y="331"/>
      <point x="174" y="321"/>
      <point x="162" y="318" type="curve"/>
      <point x="158" y="323"/>
      <point x="156" y="330"/>
      <point x="156" y="338" type="curve" smooth="yes"/>
      <point x="156" y="342"/>
      <point x="156" y="345"/>
      <point x="158" y="348" type="curve"/>
      <point x="238" y="366"/>
      <point x="314" y="410"/>
      <point x="314" y="496" type="curve" smooth="yes"/>
      <point x="314" y="549"/>
      <point x="273" y="589"/>
      <point x="216" y="589" type="curve" smooth="yes"/>
      <point x="153" y="589"/>
      <point x="113" y="530"/>
      <point x="104" y="523" type="curve"/>
      <point x="98" y="523"/>
      <point x="92" y="536"/>
      <point x="92" y="545" type="curve"/>
      <point x="123" y="591"/>
      <point x="180" y="642"/>
      <point x="258" y="642" type="curve" smooth="yes"/>
      <point x="309" y="642"/>
      <point x="389" y="596"/>
      <point x="389" y="514" type="curve" smooth="yes"/>
      <point x="389" y="449"/>
      <point x="331" y="400"/>
      <point x="296" y="379" type="curve"/>
      <point x="353" y="371"/>
      <point x="436" y="316"/>
      <point x="436" y="218" type="curve" smooth="yes"/>
      <point x="436" y="81"/>
      <point x="307" y="-5"/>
      <point x="182" y="-5" type="curve" smooth="yes"/>
      <point x="155" y="-5"/>
      <point x="112" y="2"/>
      <point x="80" y="18" type="curve"/>
      <point x="74" y="22"/>
      <point x="60" y="40"/>
    </contour>
  </outline>
</glyph>
<glyph name="five" format="1">
  <advance width="497"/>
  <unicode hex="0035"/>
  <outline>
    <contour>
      <point x="60" y="56" type="curve" smooth="yes"/>
      <point x="60" y="85"/>
      <point x="80" y="104"/>
      <point x="102" y="104" type="curve" smooth="yes"/>
      <point x="130" y="104"/>
      <point x="142" y="76"/>
      <point x="158" y="60" type="curve" smooth="yes"/>
      <point x="177" y="41"/>
      <point x="205" y="35"/>
      <point x="232" y="35" type="curve" smooth="yes"/>
      <point x="285" y="35"/>
      <point x="350" y="74"/>
      <point x="350" y="190" type="curve" smooth="yes"/>
      <point x="350" y="252"/>
      <point x="306" y="339"/>
      <point x="190" y="339" type="curve" smooth="yes"/>
      <point x="169" y="339"/>
      <point x="122" y="332"/>
      <point x="106" y="324" type="curve"/>
      <point x="102" y="324"/>
      <point x="98" y="331"/>
      <point x="98" y="338" type="curve"/>
      <point x="120" y="450"/>
      <point x="145" y="574"/>
      <point x="156" y="635" type="curve"/>
      <point x="304" y="635" type="line" smooth="yes"/>
      <point x="345" y="635"/>
      <point x="396" y="644"/>
      <point x="396" y="644" type="curve"/>
      <point x="402" y="640"/>
      <point x="408" y="638"/>
      <point x="408" y="633" type="curve" smooth="yes"/>
      <point x="408" y="627"/>
      <point x="396" y="583"/>
      <point x="378" y="562" type="curve"/>
      <point x="350" y="559"/>
      <point x="314" y="556"/>
      <point x="262" y="556" type="curve" smooth="yes"/>
      <point x="178" y="556" type="line"/>
      <point x="166" y="496"/>
      <point x="154" y="432"/>
      <point x="142" y="376" type="curve"/>
      <point x="170" y="387"/>
      <point x="221" y="395"/>
      <point x="248" y="395" type="curve" smooth="yes"/>
      <point x="366" y="395"/>
      <point x="436" y="303"/>
      <point x="436" y="218" type="curve" smooth="yes"/>
      <point x="436" y="81"/>
      <point x="307" y="-5"/>
      <point x="182" y="-5" type="curve" smooth="yes"/>
      <point x="155" y="-5"/>
      <point x="112" y="2"/>
      <point x="80" y="18" type="curve"/>
      <point x="74" y="22"/>
      <point x="60" y="40"/>
    </contour>
  </outline>
</glyph>
<glyph name="six" format="1">
  <advance width="497"/>
  <unicode hex="0036"/>
  <outline>
    <contour>
      <point x="49" y="220" type="curve" smooth="yes"/>
      <point x="49" y="322"/>
      <point x="82" y="416"/>
      <point x="145" y="485" type="curve" smooth="yes"/>
      <point x="216" y="563"/>
      <point x="329" y="625"/>
      <point x="413" y="647" type="curve"/>
      <point x="422" y="647"/>
      <point x="425" y="624"/>
      <point x="425" y="618" type="curve"/>
      <point x="341" y="591"/>
      <point x="192" y="527"/>
      <point x="147" y="350" type="curve"/>
      <point x="182" y="379"/>
      <point x="231" y="395"/>
      <point x="265" y="395" type="curve" smooth="yes"/>
      <point x="405" y="395"/>
      <point x="448" y="275"/>
      <point x="448" y="203" type="curve" smooth="yes"/>
      <point x="448" y="91"/>
      <point x="359" y="-6"/>
      <point x="245" y="-6" type="curve" smooth="yes"/>
      <point x="124" y="-6"/>
      <point x="49" y="112"/>
    </contour>
    <contour>
      <point x="135" y="238" type="curve" smooth="yes"/>
      <point x="135" y="148"/>
      <point x="173" y="27"/>
      <point x="253" y="27" type="curve" smooth="yes"/>
      <point x="316" y="27"/>
      <point x="363" y="94"/>
      <point x="363" y="184" type="curve" smooth="yes"/>
      <point x="363" y="269"/>
      <point x="327" y="346"/>
      <point x="237" y="346" type="curve" smooth="yes"/>
      <point x="208" y="346"/>
      <point x="172" y="342"/>
      <point x="139" y="306" type="curve"/>
      <point x="136" y="285"/>
      <point x="135" y="262"/>
    </contour>
  </outline>
</glyph>
<glyph name="seven" format="1">
  <advance width="497"/>
  <unicode hex="0037"/>
  <outline>
    <contour>
      <point x="38" y="483" type="curve"/>
      <point x="55" y="537"/>
      <point x="73" y="601"/>
      <point x="80" y="633" type="curve"/>
      <point x="384" y="633" type="line" smooth="yes"/>
      <point x="410" y="633"/>
      <point x="446" y="636"/>
      <point x="452" y="636" type="curve" smooth="yes"/>
      <point x="458" y="636"/>
      <point x="458" y="632"/>
      <point x="458" y="627" type="curve" smooth="yes"/>
      <point x="458" y="614"/>
      <point x="443" y="588"/>
      <point x="430" y="560" type="curve" smooth="yes"/>
      <point x="166" y="-2" type="line"/>
      <point x="164" y="-4"/>
      <point x="161" y="-5"/>
      <point x="156" y="-5" type="curve" smooth="yes"/>
      <point x="141" y="-5"/>
      <point x="112" y="4"/>
      <point x="112" y="13" type="curve"/>
      <point x="215" y="169"/>
      <point x="396" y="560"/>
      <point x="396" y="560" type="curve"/>
      <point x="142" y="560" type="line" smooth="yes"/>
      <point x="102" y="560"/>
      <point x="85" y="536"/>
      <point x="70" y="483" type="curve" smooth="yes"/>
      <point x="69" y="478"/>
      <point x="64" y="477"/>
      <point x="58" y="477" type="curve" smooth="yes"/>
      <point x="54" y="477"/>
      <point x="42" y="480"/>
    </contour>
  </outline>
</glyph>
<glyph name="eight" format="1">
  <advance width="497"/>
  <unicode hex="0038"/>
  <outline>
    <contour>
      <point x="60" y="154" type="curve" smooth="yes"/>
      <point x="60" y="242"/>
      <point x="151" y="293"/>
      <point x="190" y="318" type="curve" smooth="yes"/>
      <point x="193" y="320"/>
      <point x="192" y="323"/>
      <point x="190" y="324" type="curve" smooth="yes"/>
      <point x="148" y="349"/>
      <point x="88" y="406"/>
      <point x="88" y="480" type="curve" smooth="yes"/>
      <point x="88" y="565"/>
      <point x="166" y="643"/>
      <point x="254" y="643" type="curve" smooth="yes"/>
      <point x="343" y="643"/>
      <point x="418" y="589"/>
      <point x="418" y="496" type="curve" smooth="yes"/>
      <point x="418" y="418"/>
      <point x="352" y="373"/>
      <point x="306" y="344" type="curve"/>
      <point x="302" y="343"/>
      <point x="303" y="340"/>
      <point x="306" y="338" type="curve" smooth="yes"/>
      <point x="366" y="304"/>
      <point x="437" y="239"/>
      <point x="437" y="167" type="curve" smooth="yes"/>
      <point x="437" y="67"/>
      <point x="346" y="-9"/>
      <point x="246" y="-9" type="curve" smooth="yes"/>
      <point x="136" y="-9"/>
      <point x="60" y="57"/>
    </contour>
    <contour>
      <point x="139" y="157" type="curve" smooth="yes"/>
      <point x="139" y="75"/>
      <point x="195" y="27"/>
      <point x="248" y="27" type="curve" smooth="yes"/>
      <point x="314" y="27"/>
      <point x="356" y="70"/>
      <point x="356" y="138" type="curve" smooth="yes"/>
      <point x="356" y="221"/>
      <point x="242" y="287"/>
      <point x="228" y="295" type="curve" smooth="yes"/>
      <point x="226" y="296"/>
      <point x="225" y="297"/>
      <point x="222" y="297" type="curve" smooth="yes"/>
      <point x="221" y="297"/>
      <point x="219" y="297"/>
      <point x="218" y="296" type="curve" smooth="yes"/>
      <point x="163" y="261"/>
      <point x="139" y="221"/>
    </contour>
    <contour>
      <point x="162" y="498" type="curve" smooth="yes"/>
      <point x="162" y="421"/>
      <point x="228" y="386"/>
      <point x="266" y="364" type="curve" smooth="yes"/>
      <point x="268" y="363"/>
      <point x="270" y="362"/>
      <point x="272" y="362" type="curve" smooth="yes"/>
      <point x="274" y="362"/>
      <point x="275" y="362"/>
      <point x="278" y="364" type="curve" smooth="yes"/>
      <point x="319" y="391"/>
      <point x="346" y="431"/>
      <point x="346" y="486" type="curve" smooth="yes"/>
      <point x="346" y="544"/>
      <point x="308" y="608"/>
      <point x="248" y="608" type="curve" smooth="yes"/>
      <point x="200" y="608"/>
      <point x="162" y="558"/>
    </contour>
  </outline>
</glyph>
<glyph name="nine" format="1">
  <advance width="497"/>
  <unicode hex="0039"/>
  <outline>
    <contour>
      <point x="50" y="438" type="curve" smooth="yes"/>
      <point x="50" y="550"/>
      <point x="138" y="647"/>
      <point x="252" y="647" type="curve" smooth="yes"/>
      <point x="373" y="647"/>
      <point x="448" y="529"/>
      <point x="448" y="421" type="curve" smooth="yes"/>
      <point x="448" y="319"/>
      <point x="415" y="225"/>
      <point x="352" y="156" type="curve" smooth="yes"/>
      <point x="281" y="78"/>
      <point x="168" y="16"/>
      <point x="84" y="-6" type="curve"/>
      <point x="75" y="-6"/>
      <point x="72" y="17"/>
      <point x="72" y="23" type="curve"/>
      <point x="156" y="50"/>
      <point x="305" y="114"/>
      <point x="350" y="291" type="curve"/>
      <point x="315" y="262"/>
      <point x="266" y="246"/>
      <point x="232" y="246" type="curve" smooth="yes"/>
      <point x="92" y="246"/>
      <point x="50" y="366"/>
    </contour>
    <contour>
      <point x="135" y="457" type="curve" smooth="yes"/>
      <point x="135" y="372"/>
      <point x="170" y="295"/>
      <point x="260" y="295" type="curve" smooth="yes"/>
      <point x="289" y="295"/>
      <point x="325" y="299"/>
      <point x="358" y="335" type="curve"/>
      <point x="361" y="356"/>
      <point x="362" y="379"/>
      <point x="362" y="403" type="curve" smooth="yes"/>
      <point x="362" y="493"/>
      <point x="324" y="614"/>
      <point x="244" y="614" type="curve" smooth="yes"/>
      <point x="181" y="614"/>
      <point x="135" y="547"/>
    </contour>
  </outline>
</glyph>
<glyph name="less" format="1">
  <advance width="492"/>
  <unicode hex="003C"/>
  <outline>
    <contour>
      <point x="30" y="217" type="curve" smooth="yes"/>
      <point x="30" y="228"/>
      <point x="38" y="236"/>
      <point x="48" y="241" type="curve" smooth="yes"/>
      <point x="417" y="428" type="line" smooth="yes"/>
      <point x="419" y="429"/>
      <point x="421" y="430"/>
      <point x="422" y="430" type="curve" smooth="yes"/>
      <point x="425" y="430"/>
      <point x="432" y="420"/>
      <point x="439" y="383" type="curve" smooth="yes"/>
      <point x="440" y="377"/>
      <point x="436" y="374"/>
      <point x="436" y="374" type="curve"/>
      <point x="110" y="209" type="line"/>
      <point x="441" y="41" type="line"/>
      <point x="441" y="41"/>
      <point x="444" y="40"/>
      <point x="444" y="35" type="curve" smooth="yes"/>
      <point x="444" y="28"/>
      <point x="434" y="-15"/>
      <point x="428" y="-15" type="curve" smooth="yes"/>
      <point x="427" y="-15"/>
      <point x="425" y="-14"/>
      <point x="423" y="-13" type="curve" smooth="yes"/>
      <point x="48" y="177" type="line" smooth="yes"/>
      <point x="33" y="185"/>
      <point x="30" y="200"/>
    </contour>
  </outline>
</glyph>
<glyph name="equal" format="1">
  <advance width="565"/>
  <unicode hex="003D"/>
  <outline>
    <contour>
      <point x="73" y="120" type="line"/>
      <point x="61" y="120"/>
      <point x="75" y="170"/>
      <point x="89" y="175" type="curve"/>
      <point x="492" y="175" type="line"/>
      <point x="506" y="175"/>
      <point x="493" y="127"/>
      <point x="479" y="120" type="curve"/>
    </contour>
    <contour>
      <point x="73" y="264" type="line"/>
      <point x="61" y="264"/>
      <point x="75" y="314"/>
      <point x="89" y="319" type="curve"/>
      <point x="492" y="319" type="line"/>
      <point x="506" y="319"/>
      <point x="493" y="271"/>
      <point x="479" y="264" type="curve"/>
    </contour>
  </outline>
</glyph>
<glyph name="greater" format="1">
  <advance width="493"/>
  <unicode hex="003E"/>
  <outline>
    <contour>
      <point x="48" y="35" type="curve" smooth="yes"/>
      <point x="48" y="39"/>
      <point x="51" y="41"/>
      <point x="51" y="41" type="curve"/>
      <point x="382" y="209" type="line"/>
      <point x="57" y="374" type="line"/>
      <point x="57" y="374"/>
      <point x="54" y="375"/>
      <point x="54" y="382" type="curve" smooth="yes"/>
      <point x="54" y="400"/>
      <point x="66" y="430"/>
      <point x="70" y="430" type="curve" smooth="yes"/>
      <point x="71" y="430"/>
      <point x="73" y="429"/>
      <point x="75" y="428" type="curve" smooth="yes"/>
      <point x="445" y="241" type="line" smooth="yes"/>
      <point x="455" y="236"/>
      <point x="462" y="228"/>
      <point x="462" y="217" type="curve" smooth="yes"/>
      <point x="462" y="200"/>
      <point x="460" y="185"/>
      <point x="445" y="177" type="curve" smooth="yes"/>
      <point x="70" y="-13" type="line" smooth="yes"/>
      <point x="68" y="-14"/>
      <point x="66" y="-15"/>
      <point x="65" y="-15" type="curve" smooth="yes"/>
      <point x="59" y="-15"/>
      <point x="48" y="27"/>
    </contour>
  </outline>
</glyph>
<glyph name="at" format="1">
  <advance width="748"/>
  <unicode hex="0040"/>
  <outline>
    <contour>
      <point x="49" y="170" type="curve" smooth="yes"/>
      <point x="49" y="366"/>
      <point x="186" y="578"/>
      <point x="418" y="578" type="curve" smooth="yes"/>
      <point x="614" y="578"/>
      <point x="712" y="426"/>
      <point x="712" y="270" type="curve" smooth="yes"/>
      <point x="712" y="117"/>
      <point x="623" y="-7"/>
      <point x="506" y="-7" type="curve" smooth="yes"/>
      <point x="457" y="-7"/>
      <point x="423" y="18"/>
      <point x="423" y="79" type="curve" smooth="yes"/>
      <point x="423" y="91"/>
      <point x="427" y="117"/>
      <point x="430" y="125" type="curve"/>
      <point x="411" y="88"/>
      <point x="347" y="-5"/>
      <point x="289" y="-5" type="curve" smooth="yes"/>
      <point x="227" y="-5"/>
      <point x="194" y="60"/>
      <point x="194" y="130" type="curve" smooth="yes"/>
      <point x="194" y="276"/>
      <point x="343" y="435"/>
      <point x="480" y="435" type="curve" smooth="yes"/>
      <point x="515" y="435"/>
      <point x="534" y="429"/>
      <point x="553" y="422" type="curve"/>
      <point x="492" y="106" type="line" smooth="yes"/>
      <point x="491" y="102"/>
      <point x="489" y="86"/>
      <point x="489" y="81" type="curve" smooth="yes"/>
      <point x="489" y="49"/>
      <point x="510" y="36"/>
      <point x="537" y="36" type="curve" smooth="yes"/>
      <point x="600" y="36"/>
      <point x="672" y="142"/>
      <point x="672" y="267" type="curve" smooth="yes"/>
      <point x="672" y="402"/>
      <point x="592" y="538"/>
      <point x="418" y="538" type="curve" smooth="yes"/>
      <point x="214" y="538"/>
      <point x="89" y="344"/>
      <point x="89" y="170" type="curve" smooth="yes"/>
      <point x="89" y="53"/>
      <point x="150" y="-36"/>
      <point x="222" y="-78" type="curve" smooth="yes"/>
      <point x="258" y="-99"/>
      <point x="278" y="-103"/>
      <point x="297" y="-106" type="curve"/>
      <point x="297" y="-114"/>
      <point x="273" y="-124"/>
      <point x="261" y="-124" type="curve" smooth="yes"/>
      <point x="249" y="-124"/>
      <point x="235" y="-123"/>
      <point x="222" y="-118" type="curve" smooth="yes"/>
      <point x="130" y="-84"/>
      <point x="49" y="29"/>
    </contour>
    <contour>
      <point x="268" y="151" type="curve" smooth="yes"/>
      <point x="268" y="89"/>
      <point x="284" y="53"/>
      <point x="319" y="53" type="curve" smooth="yes"/>
      <point x="369" y="53"/>
      <point x="440" y="178"/>
      <point x="459" y="274" type="curve" smooth="yes"/>
      <point x="479" y="376" type="line"/>
      <point x="470" y="386"/>
      <point x="451" y="389"/>
      <point x="438" y="389" type="curve" smooth="yes"/>
      <point x="361" y="389"/>
      <point x="268" y="266"/>
    </contour>
  </outline>
</glyph>
<glyph name="B" format="1">
  <advance width="596"/>
  <unicode hex="0042"/>
  <outline>
    <contour>
      <point x="45" y="-3" type="line"/>
      <point x="40" y="2"/>
      <point x="41" y="21"/>
      <point x="45" y="26" type="curve"/>
      <point x="57" y="26"/>
      <point x="111" y="31"/>
      <point x="114" y="42" type="curve" smooth="yes"/>
      <point x="119" y="58"/>
      <point x="119" y="86"/>
      <point x="119" y="116" type="curve" smooth="yes"/>
      <point x="119" y="543" type="line" smooth="yes"/>
      <point x="119" y="573"/>
      <point x="119" y="601"/>
      <point x="114" y="617" type="curve" smooth="yes"/>
      <point x="111" y="628"/>
      <point x="57" y="633"/>
      <point x="45" y="633" type="curve"/>
      <point x="41" y="638"/>
      <point x="40" y="657"/>
      <point x="45" y="662" type="curve"/>
      <point x="86" y="660"/>
      <point x="124" y="657"/>
      <point x="163" y="657" type="curve" smooth="yes"/>
      <point x="202" y="657"/>
      <point x="246" y="659"/>
      <point x="305" y="659" type="curve" smooth="yes"/>
      <point x="396" y="659"/>
      <point x="506" y="624"/>
      <point x="506" y="510" type="curve" smooth="yes"/>
      <point x="506" y="433"/>
      <point x="440" y="378"/>
      <point x="405" y="365" type="curve" smooth="yes"/>
      <point x="403" y="364"/>
      <point x="402" y="362"/>
      <point x="405" y="360" type="curve"/>
      <point x="454" y="358"/>
      <point x="552" y="298"/>
      <point x="552" y="199" type="curve" smooth="yes"/>
      <point x="552" y="142"/>
      <point x="534" y="92"/>
      <point x="485" y="51" type="curve" smooth="yes"/>
      <point x="437" y="11"/>
      <point x="352" y="-2"/>
      <point x="275" y="-3" type="curve" smooth="yes"/>
    </contour>
    <contour>
      <point x="206" y="115" type="line" smooth="yes"/>
      <point x="206" y="101"/>
      <point x="208" y="54"/>
      <point x="215" y="47" type="curve" smooth="yes"/>
      <point x="230" y="31"/>
      <point x="257" y="29"/>
      <point x="294" y="29" type="curve" smooth="yes"/>
      <point x="369" y="29"/>
      <point x="453" y="54"/>
      <point x="453" y="176" type="curve" smooth="yes"/>
      <point x="453" y="251"/>
      <point x="421" y="332"/>
      <point x="267" y="332" type="curve" smooth="yes"/>
      <point x="206" y="332" type="line"/>
    </contour>
    <contour>
      <point x="206" y="370" type="line"/>
      <point x="290" y="370" type="line" smooth="yes"/>
      <point x="380" y="370"/>
      <point x="415" y="430"/>
      <point x="415" y="487" type="curve" smooth="yes"/>
      <point x="415" y="576"/>
      <point x="354" y="627"/>
      <point x="261" y="627" type="curve" smooth="yes"/>
      <point x="249" y="627"/>
      <point x="215" y="626"/>
      <point x="211" y="617" type="curve" smooth="yes"/>
      <point x="206" y="605"/>
      <point x="206" y="572"/>
      <point x="206" y="542" type="curve" smooth="yes"/>
    </contour>
  </outline>
</glyph>
<glyph name="C" format="1">
  <advance width="674"/>
  <unicode hex="0043"/>
  <outline>
    <contour>
      <point x="48" y="322" type="curve" smooth="yes"/>
      <point x="48" y="509"/>
      <point x="189" y="667"/>
      <point x="386" y="667" type="curve" smooth="yes"/>
      <point x="452" y="667"/>
      <point x="524" y="662"/>
      <point x="598" y="646" type="curve"/>
      <point x="598" y="646"/>
      <point x="621" y="508"/>
      <point x="621" y="498" type="curve"/>
      <point x="622" y="492"/>
      <point x="609" y="485"/>
      <point x="599" y="485" type="curve" smooth="yes"/>
      <point x="593" y="485"/>
      <point x="590" y="486"/>
      <point x="587" y="488" type="curve"/>
      <point x="581" y="519"/>
      <point x="558" y="634"/>
      <point x="391" y="634" type="curve" smooth="yes"/>
      <point x="243" y="634"/>
      <point x="147" y="483"/>
      <point x="147" y="343" type="curve" smooth="yes"/>
      <point x="147" y="187"/>
      <point x="233" y="27"/>
      <point x="407" y="27" type="curve" smooth="yes"/>
      <point x="468" y="27"/>
      <point x="510" y="49"/>
      <point x="539" y="75" type="curve" smooth="yes"/>
      <point x="578" y="110"/>
      <point x="593" y="158"/>
      <point x="600" y="191" type="curve"/>
      <point x="610" y="192"/>
      <point x="623" y="189"/>
      <point x="632" y="183" type="curve"/>
      <point x="632" y="163"/>
      <point x="611" y="51"/>
      <point x="597" y="39" type="curve"/>
      <point x="542" y="8"/>
      <point x="474" y="-6"/>
      <point x="382" y="-6" type="curve" smooth="yes"/>
      <point x="184" y="-6"/>
      <point x="48" y="145"/>
    </contour>
  </outline>
</glyph>
<glyph name="J" format="1">
  <advance width="313"/>
  <unicode hex="004A"/>
  <outline>
    <contour>
      <point x="-104" y="-186" type="curve" smooth="yes"/>
      <point x="-104" y="-155"/>
      <point x="-88" y="-130"/>
      <point x="-56" y="-130" type="curve" smooth="yes"/>
      <point x="-39" y="-130"/>
      <point x="-24.4324" y="-143.407"/>
      <point x="-11" y="-156" type="curve" smooth="yes"/>
      <point x="5" y="-171"/>
      <point x="21" y="-180"/>
      <point x="37" y="-180" type="curve" smooth="yes"/>
      <point x="79" y="-180"/>
      <point x="114" y="-126"/>
      <point x="114" y="116" type="curve" smooth="yes"/>
      <point x="114" y="543" type="line" smooth="yes"/>
      <point x="114" y="573"/>
      <point x="114" y="601"/>
      <point x="109" y="617" type="curve" smooth="yes"/>
      <point x="106" y="628"/>
      <point x="52" y="633"/>
      <point x="40" y="633" type="curve"/>
      <point x="36" y="638"/>
      <point x="35" y="657"/>
      <point x="40" y="662" type="curve"/>
      <point x="81" y="660"/>
      <point x="119" y="657"/>
      <point x="158" y="657" type="curve" smooth="yes"/>
      <point x="197" y="657"/>
      <point x="234" y="660"/>
      <point x="275" y="662" type="curve"/>
      <point x="280" y="657"/>
      <point x="279" y="638"/>
      <point x="275" y="633" type="curve"/>
      <point x="263" y="633"/>
      <point x="209" y="628"/>
      <point x="206" y="617" type="curve" smooth="yes"/>
      <point x="201" y="601"/>
      <point x="201" y="573"/>
      <point x="201" y="543" type="curve" smooth="yes"/>
      <point x="201" y="121" type="line" smooth="yes"/>
      <point x="201" y="-129"/>
      <point x="102" y="-227"/>
      <point x="-33" y="-227" type="curve" smooth="yes"/>
      <point x="-48" y="-227"/>
      <point x="-84" y="-218"/>
      <point x="-96" y="-209" type="curve"/>
      <point x="-101" y="-204"/>
      <point x="-104" y="-193"/>
    </contour>
  </outline>
</glyph>
<glyph name="P" format="1">
  <advance width="548"/>
  <unicode hex="0050"/>
  <outline>
    <contour>
      <point x="45" y="-3" type="curve"/>
      <point x="40" y="2"/>
      <point x="41" y="21"/>
      <point x="45" y="26" type="curve"/>
      <point x="57" y="26"/>
      <point x="111" y="31"/>
      <point x="114" y="42" type="curve" smooth="yes"/>
      <point x="119" y="58"/>
      <point x="119" y="86"/>
      <point x="119" y="116" type="curve" smooth="yes"/>
      <point x="119" y="543" type="line" smooth="yes"/>
      <point x="119" y="573"/>
      <point x="119" y="601"/>
      <point x="114" y="617" type="curve" smooth="yes"/>
      <point x="111" y="628"/>
      <point x="57" y="633"/>
      <point x="45" y="633" type="curve"/>
      <point x="41" y="638"/>
      <point x="40" y="657"/>
      <point x="45" y="662" type="curve"/>
      <point x="86" y="660"/>
      <point x="124" y="657"/>
      <point x="163" y="657" type="curve" smooth="yes"/>
      <point x="202" y="657"/>
      <point x="246" y="659"/>
      <point x="305" y="659" type="curve" smooth="yes"/>
      <point x="411" y="659"/>
      <point x="518" y="595"/>
      <point x="518" y="479" type="curve" smooth="yes"/>
      <point x="518" y="357"/>
      <point x="429" y="278"/>
      <point x="298" y="278" type="curve" smooth="yes"/>
      <point x="287" y="278"/>
      <point x="265" y="281"/>
      <point x="255" y="286" type="curve" smooth="yes"/>
      <point x="252" y="288"/>
      <point x="241" y="296"/>
      <point x="241" y="308" type="curve" smooth="yes"/>
      <point x="241" y="310"/>
      <point x="242" y="314"/>
      <point x="246" y="313" type="curve" smooth="yes"/>
      <point x="257" y="310"/>
      <point x="269" y="306"/>
      <point x="284" y="306" type="curve" smooth="yes"/>
      <point x="364" y="306"/>
      <point x="426" y="362"/>
      <point x="426" y="462" type="curve" smooth="yes"/>
      <point x="426" y="561"/>
      <point x="372" y="627"/>
      <point x="261" y="627" type="curve" smooth="yes"/>
      <point x="249" y="627"/>
      <point x="215" y="626"/>
      <point x="211" y="617" type="curve" smooth="yes"/>
      <point x="206" y="605"/>
      <point x="206" y="572"/>
      <point x="206" y="542" type="curve" smooth="yes"/>
      <point x="206" y="116" type="line" smooth="yes"/>
      <point x="206" y="86"/>
      <point x="206" y="58"/>
      <point x="211" y="42" type="curve" smooth="yes"/>
      <point x="214" y="31"/>
      <point x="268" y="26"/>
      <point x="280" y="26" type="curve"/>
      <point x="284" y="21"/>
      <point x="285" y="2"/>
      <point x="280" y="-3" type="curve"/>
      <point x="239" y="-1"/>
      <point x="202" y="2"/>
      <point x="163" y="2" type="curve" smooth="yes"/>
      <point x="124" y="2"/>
      <point x="86" y="-1"/>
    </contour>
  </outline>
</glyph>
<glyph name="Q" format="1">
  <advance width="747"/>
  <unicode hex="0051"/>
  <outline>
    <contour>
      <point x="49" y="328" type="curve" smooth="yes"/>
      <point x="49" y="515"/>
      <point x="197" y="667"/>
      <point x="373" y="667" type="curve" smooth="yes"/>
      <point x="549" y="667"/>
      <point x="699" y="527"/>
      <point x="699" y="328" type="curve" smooth="yes"/>
      <point x="699" y="175"/>
      <point x="599" y="46"/>
      <point x="466" y="4" type="curve"/>
      <point x="493" y="-9"/>
      <point x="516" y="-22"/>
      <point x="535" y="-34" type="curve" smooth="yes"/>
      <point x="591" y="-69"/>
      <point x="624" y="-81"/>
      <point x="685" y="-81" type="curve" smooth="yes"/>
      <point x="725" y="-81"/>
      <point x="749" y="-77"/>
      <point x="756" y="-75" type="curve"/>
      <point x="763" y="-75"/>
      <point x="771" y="-78"/>
      <point x="774" y="-82" type="curve" smooth="yes"/>
      <point x="775" y="-83"/>
      <point x="775" y="-84"/>
      <point x="775" y="-85" type="curve"/>
      <point x="720" y="-114"/>
      <point x="670" y="-136"/>
      <point x="609" y="-136" type="curve" smooth="yes"/>
      <point x="554" y="-136"/>
      <point x="507.064" y="-109.897"/>
      <point x="441" y="-69" type="curve" smooth="yes"/>
      <point x="399" y="-43"/>
      <point x="348.976" y="-14.0947"/>
      <point x="293" y="0" type="curve" smooth="yes"/>
      <point x="154" y="35"/>
      <point x="49" y="161"/>
    </contour>
    <contour>
      <point x="148" y="350" type="curve" smooth="yes"/>
      <point x="148" y="195"/>
      <point x="234" y="24"/>
      <point x="389" y="24" type="curve" smooth="yes"/>
      <point x="539" y="24"/>
      <point x="600" y="174"/>
      <point x="600" y="309" type="curve" smooth="yes"/>
      <point x="600" y="464"/>
      <point x="513" y="633"/>
      <point x="358" y="633" type="curve" smooth="yes"/>
      <point x="208" y="633"/>
      <point x="148" y="484"/>
    </contour>
  </outline>
</glyph>
<glyph name="S" format="1">
  <advance width="502"/>
  <unicode hex="0053"/>
  <outline>
    <contour>
      <point x="49" y="174" type="curve"/>
      <point x="55" y="180"/>
      <point x="66" y="186"/>
      <point x="75" y="186" type="curve" smooth="yes"/>
      <point x="82" y="186"/>
      <point x="85" y="182"/>
      <point x="86" y="177" type="curve" smooth="yes"/>
      <point x="94" y="139"/>
      <point x="132" y="24"/>
      <point x="252" y="24" type="curve" smooth="yes"/>
      <point x="317" y="24"/>
      <point x="372" y="68"/>
      <point x="372" y="146" type="curve" smooth="yes"/>
      <point x="372" y="215"/>
      <point x="336" y="237"/>
      <point x="239" y="290" type="curve" smooth="yes"/>
      <point x="163" y="332"/>
      <point x="65" y="390"/>
      <point x="65" y="490" type="curve" smooth="yes"/>
      <point x="65" y="596"/>
      <point x="161" y="666"/>
      <point x="261" y="666" type="curve" smooth="yes"/>
      <point x="323" y="666"/>
      <point x="346" y="653"/>
      <point x="412" y="638" type="curve"/>
      <point x="420" y="586"/>
      <point x="424" y="523"/>
      <point x="426" y="496" type="curve" smooth="yes"/>
      <point x="427" y="489"/>
      <point x="412" y="485"/>
      <point x="405" y="485" type="curve" smooth="yes"/>
      <point x="402" y="485"/>
      <point x="397" y="486"/>
      <point x="394" y="489" type="curve"/>
      <point x="388" y="539"/>
      <point x="339" y="632"/>
      <point x="254" y="632" type="curve" smooth="yes"/>
      <point x="172" y="632"/>
      <point x="145" y="569"/>
      <point x="145" y="521" type="curve" smooth="yes"/>
      <point x="145" y="449"/>
      <point x="205" y="413"/>
      <point x="277" y="371" type="curve" smooth="yes"/>
      <point x="361" y="322"/>
      <point x="459" y="265"/>
      <point x="459" y="173" type="curve" smooth="yes"/>
      <point x="459" y="63"/>
      <point x="357" y="-10"/>
      <point x="250" y="-10" type="curve" smooth="yes"/>
      <point x="182" y="-10"/>
      <point x="119" y="9"/>
      <point x="70" y="19" type="curve"/>
      <point x="58" y="78"/>
      <point x="49" y="162"/>
    </contour>
  </outline>
</glyph>
<glyph name="V" format="1">
  <advance width="638"/>
  <unicode hex="0056"/>
  <outline>
    <contour>
      <point x="-6" y="633" type="curve"/>
      <point x="-8" y="633"/>
      <point x="-8" y="660"/>
      <point x="-6" y="662" type="curve"/>
      <point x="40" y="660"/>
      <point x="64" y="657"/>
      <point x="110" y="657" type="curve" smooth="yes"/>
      <point x="154" y="657"/>
      <point x="194" y="660"/>
      <point x="234" y="662" type="curve"/>
      <point x="236" y="656"/>
      <point x="236" y="634"/>
      <point x="232" y="633" type="curve"/>
      <point x="224" y="633"/>
      <point x="172" y="628"/>
      <point x="172" y="600" type="curve" smooth="yes"/>
      <point x="172" y="590"/>
      <point x="177" y="566"/>
      <point x="189" y="532" type="curve" smooth="yes"/>
      <point x="222" y="442"/>
      <point x="335" y="137"/>
      <point x="338" y="129" type="curve"/>
      <point x="344" y="142"/>
      <point x="438" y="369"/>
      <point x="498" y="523" type="curve" smooth="yes"/>
      <point x="507" y="546"/>
      <point x="516" y="575"/>
      <point x="516" y="593" type="curve" smooth="yes"/>
      <point x="516" y="625"/>
      <point x="462" y="632"/>
      <point x="450" y="632" type="curve"/>
      <point x="445" y="634"/>
      <point x="445" y="656"/>
      <point x="450" y="661" type="curve"/>
      <point x="487" y="659"/>
      <point x="517" y="657"/>
      <point x="554" y="657" type="curve" smooth="yes"/>
      <point x="600" y="657"/>
      <point x="612" y="660"/>
      <point x="652" y="662" type="curve"/>
      <point x="655" y="657"/>
      <point x="653" y="633"/>
      <point x="650" y="633" type="curve"/>
      <point x="642" y="633"/>
      <point x="603" y="627"/>
      <point x="586" y="607" type="curve" smooth="yes"/>
      <point x="574" y="593"/>
      <point x="551" y="544"/>
      <point x="536" y="506" type="curve" smooth="yes"/>
      <point x="463" y="322"/>
      <point x="420" y="218"/>
      <point x="342" y="32" type="curve" smooth="yes"/>
      <point x="331" y="5"/>
      <point x="317" y="-2"/>
      <point x="304" y="-2" type="curve" smooth="yes"/>
      <point x="300" y="-2"/>
      <point x="296" y="10"/>
      <point x="294" y="14" type="curve" smooth="yes"/>
      <point x="226" y="192"/>
      <point x="179" y="322"/>
      <point x="104" y="514" type="curve" smooth="yes"/>
      <point x="89" y="553"/>
      <point x="75" y="584"/>
      <point x="58" y="610" type="curve" smooth="yes"/>
      <point x="47" y="626"/>
      <point x="6" y="633"/>
    </contour>
  </outline>
</glyph>
<glyph name="W" format="1">
  <advance width="900"/>
  <unicode hex="0057"/>
  <outline>
    <contour>
      <point x="-4" y="633" type="curve"/>
      <point x="-6" y="633"/>
      <point x="-6" y="660"/>
      <point x="-4" y="662" type="curve"/>
      <point x="42" y="660"/>
      <point x="72" y="657"/>
      <point x="118" y="657" type="curve" smooth="yes"/>
      <point x="162" y="657"/>
      <point x="186" y="660"/>
      <point x="226" y="662" type="curve"/>
      <point x="228" y="656"/>
      <point x="228" y="634"/>
      <point x="224" y="633" type="curve"/>
      <point x="216" y="633"/>
      <point x="164" y="628"/>
      <point x="164" y="600" type="curve" smooth="yes"/>
      <point x="164" y="593"/>
      <point x="169" y="570"/>
      <point x="179" y="535" type="curve" smooth="yes"/>
      <point x="202" y="452"/>
      <point x="253" y="290"/>
      <point x="295" y="148" type="curve"/>
      <point x="342" y="303"/>
      <point x="416" y="531"/>
      <point x="446" y="629" type="curve" smooth="yes"/>
      <point x="452" y="648"/>
      <point x="471" y="662"/>
      <point x="482" y="662" type="curve" smooth="yes"/>
      <point x="486" y="662"/>
      <point x="489" y="657"/>
      <point x="494" y="646" type="curve"/>
      <point x="501" y="624"/>
      <point x="586" y="350"/>
      <point x="653" y="151" type="curve"/>
      <point x="696" y="304"/>
      <point x="721" y="383"/>
      <point x="758" y="524" type="curve" smooth="yes"/>
      <point x="764" y="548"/>
      <point x="770" y="576"/>
      <point x="770" y="594" type="curve" smooth="yes"/>
      <point x="770" y="626"/>
      <point x="714" y="633"/>
      <point x="702" y="633" type="curve"/>
      <point x="697" y="635"/>
      <point x="697" y="657"/>
      <point x="702" y="662" type="curve"/>
      <point x="739" y="660"/>
      <point x="773" y="657"/>
      <point x="810" y="657" type="curve" smooth="yes"/>
      <point x="856" y="657"/>
      <point x="864" y="660"/>
      <point x="904" y="662" type="curve"/>
      <point x="907" y="657"/>
      <point x="905" y="633"/>
      <point x="902" y="633" type="curve"/>
      <point x="894" y="633"/>
      <point x="859" y="624"/>
      <point x="839" y="607" type="curve" smooth="yes"/>
      <point x="825" y="595"/>
      <point x="815" y="572"/>
      <point x="803" y="531" type="curve" smooth="yes"/>
      <point x="748" y="342"/>
      <point x="713" y="211"/>
      <point x="660" y="32" type="curve" smooth="yes"/>
      <point x="655" y="14"/>
      <point x="635" y="-2"/>
      <point x="622" y="-2" type="curve" smooth="yes"/>
      <point x="618" y="-2"/>
      <point x="613" y="10"/>
      <point x="612" y="14" type="curve" smooth="yes"/>
      <point x="563" y="159"/>
      <point x="448" y="509"/>
      <point x="448" y="508" type="curve"/>
      <point x="392" y="324"/>
      <point x="351" y="209"/>
      <point x="298" y="32" type="curve" smooth="yes"/>
      <point x="293" y="14"/>
      <point x="273" y="-2"/>
      <point x="260" y="-2" type="curve" smooth="yes"/>
      <point x="256" y="-2"/>
      <point x="251" y="10"/>
      <point x="250" y="14" type="curve" smooth="yes"/>
      <point x="192" y="199"/>
      <point x="151" y="335"/>
      <point x="90" y="532" type="curve" smooth="yes"/>
      <point x="78" y="572"/>
      <point x="73" y="595"/>
      <point x="54" y="613" type="curve" smooth="yes"/>
      <point x="40" y="626"/>
      <point x="8" y="633"/>
    </contour>
  </outline>
</glyph>
<glyph name="X" format="1">
  <advance width="668"/>
  <unicode hex="0058"/>
  <outline>
    <contour>
      <point x="-8" y="-3" type="curve"/>
      <point x="-11" y="3"/>
      <point x="-8" y="23"/>
      <point x="-6" y="26" type="curve"/>
      <point x="2" y="26"/>
      <point x="73" y="34"/>
      <point x="101" y="70" type="curve" smooth="yes"/>
      <point x="177" y="167"/>
      <point x="225" y="236"/>
      <point x="297" y="332" type="curve"/>
      <point x="258" y="392"/>
      <point x="156" y="548"/>
      <point x="156" y="548" type="curve" smooth="yes"/>
      <point x="133" y="584"/>
      <point x="118" y="601"/>
      <point x="90" y="617" type="curve" smooth="yes"/>
      <point x="73" y="627"/>
      <point x="46" y="633"/>
      <point x="34" y="633" type="curve" smooth="yes"/>
      <point x="29" y="633"/>
      <point x="29" y="657"/>
      <point x="34" y="662" type="curve"/>
      <point x="83" y="660"/>
      <point x="110" y="657"/>
      <point x="159" y="657" type="curve" smooth="yes"/>
      <point x="208" y="657"/>
      <point x="247" y="660"/>
      <point x="287" y="662" type="curve"/>
      <point x="289" y="656"/>
      <point x="290" y="633"/>
      <point x="285" y="633" type="curve" smooth="yes"/>
      <point x="271" y="633"/>
      <point x="225" y="627"/>
      <point x="225" y="601" type="curve" smooth="yes"/>
      <point x="225" y="593"/>
      <point x="229" y="583"/>
      <point x="237" y="571" type="curve" smooth="yes"/>
      <point x="353" y="393" type="line"/>
      <point x="413" y="473"/>
      <point x="474" y="550"/>
      <point x="499" y="590" type="curve" smooth="yes"/>
      <point x="503" y="596"/>
      <point x="503" y="604"/>
      <point x="503" y="606" type="curve" smooth="yes"/>
      <point x="503" y="615"/>
      <point x="492" y="632"/>
      <point x="436" y="632" type="curve"/>
      <point x="432" y="633"/>
      <point x="431" y="654"/>
      <point x="434" y="661" type="curve"/>
      <point x="474" y="658"/>
      <point x="500" y="656"/>
      <point x="537" y="656" type="curve" smooth="yes"/>
      <point x="589" y="656"/>
      <point x="623" y="659"/>
      <point x="647" y="661" type="curve"/>
      <point x="650" y="656"/>
      <point x="651" y="638"/>
      <point x="645" y="632" type="curve"/>
      <point x="637" y="632"/>
      <point x="585" y="627"/>
      <point x="556" y="592" type="curve" smooth="yes"/>
      <point x="479" y="500"/>
      <point x="444" y="456"/>
      <point x="372" y="360" type="curve"/>
      <point x="569" y="66" type="line" smooth="yes"/>
      <point x="588" y="37"/>
      <point x="634" y="26"/>
      <point x="667" y="26" type="curve"/>
      <point x="671" y="21"/>
      <point x="669" y="-1"/>
      <point x="668" y="-3" type="curve"/>
      <point x="628" y="-1"/>
      <point x="606" y="2"/>
      <point x="565" y="2" type="curve" smooth="yes"/>
      <point x="509" y="2"/>
      <point x="475" y="-1"/>
      <point x="419" y="-3" type="curve"/>
      <point x="414" y="2"/>
      <point x="414" y="26"/>
      <point x="419" y="26" type="curve" smooth="yes"/>
      <point x="430" y="26"/>
      <point x="477" y="35"/>
      <point x="477" y="54" type="curve" smooth="yes"/>
      <point x="477" y="57"/>
      <point x="474" y="63"/>
      <point x="472" y="66" type="curve" smooth="yes"/>
      <point x="320" y="301" type="line"/>
      <point x="260" y="221"/>
      <point x="169" y="94"/>
      <point x="154" y="66" type="curve" smooth="yes"/>
      <point x="153" y="63"/>
      <point x="149" y="56"/>
      <point x="149" y="50" type="curve" smooth="yes"/>
      <point x="149" y="38"/>
      <point x="170" y="26"/>
      <point x="226" y="26" type="curve"/>
      <point x="230" y="20"/>
      <point x="230" y="0"/>
      <point x="228" y="-3" type="curve"/>
      <point x="191" y="-1"/>
      <point x="152" y="2"/>
      <point x="115" y="2" type="curve" smooth="yes"/>
      <point x="63" y="2"/>
      <point x="32" y="-1"/>
    </contour>
  </outline>
</glyph>
<glyph name="bracketleft" format="1">
  <advance width="259"/>
  <unicode hex="005B"/>
  <outline>
    <contour>
      <point x="79" y="-115" type="curve" smooth="yes"/>
      <point x="79" y="695" type="line" smooth="yes"/>
      <point x="79" y="697"/>
      <point x="80" y="718"/>
      <point x="98" y="718" type="curve" smooth="yes"/>
      <point x="180" y="718"/>
      <point x="251" y="724"/>
      <point x="251" y="724" type="curve"/>
      <point x="251" y="724"/>
      <point x="254" y="721"/>
      <point x="254" y="715" type="curve" smooth="yes"/>
      <point x="254" y="709"/>
      <point x="250" y="701"/>
      <point x="244" y="699" type="curve" smooth="yes"/>
      <point x="206" y="686"/>
      <point x="127" y="676"/>
      <point x="127" y="676" type="curve"/>
      <point x="127" y="-96" type="line"/>
      <point x="127" y="-96"/>
      <point x="206" y="-106"/>
      <point x="244" y="-119" type="curve" smooth="yes"/>
      <point x="250" y="-121"/>
      <point x="254" y="-129"/>
      <point x="254" y="-135" type="curve" smooth="yes"/>
      <point x="254" y="-141"/>
      <point x="251" y="-144"/>
      <point x="251" y="-144" type="curve"/>
      <point x="251" y="-144"/>
      <point x="180" y="-138"/>
      <point x="98" y="-138" type="curve" smooth="yes"/>
      <point x="80" y="-138"/>
      <point x="79" y="-117"/>
    </contour>
  </outline>
</glyph>
<glyph name="bracketright" format="1">
  <advance width="260"/>
  <unicode hex="005D"/>
  <outline>
    <contour>
      <point x="6" y="-135" type="curve" smooth="yes"/>
      <point x="6" y="-129"/>
      <point x="10" y="-121"/>
      <point x="16" y="-119" type="curve" smooth="yes"/>
      <point x="54" y="-106"/>
      <point x="133" y="-96"/>
      <point x="133" y="-96" type="curve"/>
      <point x="133" y="676" type="line"/>
      <point x="133" y="676"/>
      <point x="54" y="686"/>
      <point x="16" y="699" type="curve" smooth="yes"/>
      <point x="10" y="701"/>
      <point x="6" y="709"/>
      <point x="6" y="715" type="curve" smooth="yes"/>
      <point x="6" y="721"/>
      <point x="9" y="724"/>
      <point x="9" y="724" type="curve"/>
      <point x="9" y="724"/>
      <point x="80" y="718"/>
      <point x="162" y="718" type="curve" smooth="yes"/>
      <point x="180" y="718"/>
      <point x="181" y="697"/>
      <point x="181" y="695" type="curve" smooth="yes"/>
      <point x="181" y="-115" type="line" smooth="yes"/>
      <point x="181" y="-117"/>
      <point x="180" y="-138"/>
      <point x="162" y="-138" type="curve" smooth="yes"/>
      <point x="80" y="-138"/>
      <point x="9" y="-144"/>
      <point x="9" y="-144" type="curve"/>
      <point x="9" y="-144"/>
      <point x="6" y="-141"/>
    </contour>
  </outline>
</glyph>
<glyph name="g" format="1">
  <advance width="466"/>
  <unicode hex="0067"/>
  <outline>
    <contour>
      <point x="23" y="-105" type="curve" smooth="yes"/>
      <point x="23" y="-61"/>
      <point x="95" y="-18"/>
      <point x="129" y="-1" type="curve"/>
      <point x="94" y="10"/>
      <point x="47" y="42"/>
      <point x="47" y="92" type="curve"/>
      <point x="64" y="112"/>
      <point x="115" y="149"/>
      <point x="133" y="160" type="curve"/>
      <point x="84" y="187"/>
      <point x="50" y="239"/>
      <point x="50" y="288" type="curve" smooth="yes"/>
      <point x="50" y="367"/>
      <point x="123" y="439"/>
      <point x="219" y="439" type="curve" smooth="yes"/>
      <point x="256" y="439"/>
      <point x="281.86" y="428.656"/>
      <point x="310" y="417" type="curve" smooth="yes"/>
      <point x="314.975" y="414.939"/>
      <point x="326" y="411"/>
      <point x="333" y="410" type="curve"/>
      <point x="440" y="425" type="line"/>
      <point x="447" y="423"/>
      <point x="450" y="419"/>
      <point x="450" y="415" type="curve" smooth="yes"/>
      <point x="450" y="407"/>
      <point x="437" y="380"/>
      <point x="427" y="374" type="curve"/>
      <point x="402" y="375"/>
      <point x="361" y="378"/>
      <point x="361" y="378" type="curve" smooth="yes"/>
      <point x="358" y="378"/>
      <point x="357" y="377"/>
      <point x="357" y="375" type="curve"/>
      <point x="362" y="370"/>
      <point x="385" y="330"/>
      <point x="385" y="284" type="curve" smooth="yes"/>
      <point x="385" y="214"/>
      <point x="312" y="137"/>
      <point x="216" y="137" type="curve" smooth="yes"/>
      <point x="199" y="137"/>
      <point x="170" y="142"/>
      <point x="160" y="146" type="curve"/>
      <point x="142" y="136"/>
      <point x="123" y="118"/>
      <point x="123" y="102" type="curve" smooth="yes"/>
      <point x="123" y="92"/>
      <point x="143" y="67"/>
      <point x="183" y="67" type="curve" smooth="yes"/>
      <point x="301" y="67" type="line" smooth="yes"/>
      <point x="380" y="67"/>
      <point x="456" y="18"/>
      <point x="456" y="-38" type="curve" smooth="yes"/>
      <point x="456" y="-120"/>
      <point x="335" y="-226"/>
      <point x="196" y="-227" type="curve" smooth="yes"/>
      <point x="115" y="-228"/>
      <point x="23" y="-187"/>
    </contour>
    <contour>
      <point x="102" y="-76" type="curve" smooth="yes"/>
      <point x="102" y="-141"/>
      <point x="151" y="-188"/>
      <point x="236" y="-188" type="curve" smooth="yes"/>
      <point x="305" y="-188"/>
      <point x="387" y="-136"/>
      <point x="387" y="-81" type="curve" smooth="yes"/>
      <point x="387" y="-52"/>
      <point x="350" y="-4"/>
      <point x="255" y="-4" type="curve" smooth="yes"/>
      <point x="237" y="-4"/>
      <point x="169" y="-5"/>
      <point x="162" y="-9" type="curve" smooth="yes"/>
      <point x="139" y="-22"/>
      <point x="102" y="-50"/>
    </contour>
    <contour>
      <point x="127" y="292" type="curve" smooth="yes"/>
      <point x="127" y="231"/>
      <point x="162" y="167"/>
      <point x="223" y="167" type="curve" smooth="yes"/>
      <point x="278" y="167"/>
      <point x="308" y="226"/>
      <point x="308" y="281" type="curve" smooth="yes"/>
      <point x="308" y="343"/>
      <point x="277" y="409"/>
      <point x="215" y="409" type="curve" smooth="yes"/>
      <point x="158" y="409"/>
      <point x="127" y="349"/>
    </contour>
  </outline>
</glyph>
<glyph name="h" format="1">
  <advance width="516"/>
  <unicode hex="0068"/>
  <outline>
    <contour>
      <point x="21" y="-3" type="curve"/>
      <point x="16" y="2"/>
      <point x="17" y="21"/>
      <point x="21" y="26" type="curve"/>
      <point x="33" y="26"/>
      <point x="81" y="31"/>
      <point x="84" y="42" type="curve" smooth="yes"/>
      <point x="89" y="58"/>
      <point x="89" y="86"/>
      <point x="89" y="116" type="curve" smooth="yes"/>
      <point x="89" y="558" type="line" smooth="yes"/>
      <point x="89" y="571"/>
      <point x="89" y="598"/>
      <point x="84" y="610" type="curve" smooth="yes"/>
      <point x="78" y="624"/>
      <point x="51" y="628"/>
      <point x="23" y="628" type="curve"/>
      <point x="22" y="628"/>
      <point x="20" y="653"/>
      <point x="24" y="654" type="curve"/>
      <point x="74" y="659"/>
      <point x="124" y="675"/>
      <point x="166" y="694" type="curve"/>
      <point x="171" y="694"/>
      <point x="177" y="685"/>
      <point x="177" y="678" type="curve"/>
      <point x="177" y="678"/>
      <point x="166" y="646"/>
      <point x="166" y="591" type="curve" smooth="yes"/>
      <point x="166" y="365" type="line" smooth="yes"/>
      <point x="166" y="364"/>
      <point x="167" y="363"/>
      <point x="169" y="363" type="curve" smooth="yes"/>
      <point x="170" y="363"/>
      <point x="171" y="364"/>
      <point x="172" y="365" type="curve" smooth="yes"/>
      <point x="192" y="387"/>
      <point x="259" y="438"/>
      <point x="307" y="438" type="curve" smooth="yes"/>
      <point x="415" y="438"/>
      <point x="436" y="371"/>
      <point x="436" y="226" type="curve" smooth="yes"/>
      <point x="436" y="116" type="line" smooth="yes"/>
      <point x="436" y="86"/>
      <point x="436" y="58"/>
      <point x="441" y="42" type="curve" smooth="yes"/>
      <point x="444" y="31"/>
      <point x="492" y="26"/>
      <point x="504" y="26" type="curve"/>
      <point x="508" y="21"/>
      <point x="509" y="2"/>
      <point x="504" y="-3" type="curve"/>
      <point x="463" y="-1"/>
      <point x="436" y="2"/>
      <point x="397" y="2" type="curve" smooth="yes"/>
      <point x="358" y="2"/>
      <point x="332" y="-1"/>
      <point x="291" y="-3" type="curve"/>
      <point x="286" y="2"/>
      <point x="287" y="21"/>
      <point x="291" y="26" type="curve"/>
      <point x="303" y="26"/>
      <point x="351" y="31"/>
      <point x="354" y="42" type="curve" smooth="yes"/>
      <point x="359" y="58"/>
      <point x="359" y="86"/>
      <point x="359" y="116" type="curve" smooth="yes"/>
      <point x="359" y="216" type="line" smooth="yes"/>
      <point x="359" y="340"/>
      <point x="339" y="380"/>
      <point x="261" y="380" type="curve" smooth="yes"/>
      <point x="224" y="380"/>
      <point x="166" y="334"/>
      <point x="166" y="325" type="curve" smooth="yes"/>
      <point x="166" y="116" type="line" smooth="yes"/>
      <point x="166" y="86"/>
      <point x="166" y="58"/>
      <point x="171" y="42" type="curve" smooth="yes"/>
      <point x="174" y="31"/>
      <point x="222" y="26"/>
      <point x="234" y="26" type="curve"/>
      <point x="238" y="21"/>
      <point x="239" y="2"/>
      <point x="234" y="-3" type="curve"/>
      <point x="193" y="-1"/>
      <point x="166" y="2"/>
      <point x="127" y="2" type="curve" smooth="yes"/>
      <point x="88" y="2"/>
      <point x="62" y="-1"/>
    </contour>
  </outline>
</glyph>
<glyph name="k" format="1">
  <advance width="518"/>
  <unicode hex="006B"/>
  <outline>
    <contour>
      <point x="21" y="-3" type="curve"/>
      <point x="16" y="2"/>
      <point x="17" y="21"/>
      <point x="21" y="26" type="curve"/>
      <point x="33" y="26"/>
      <point x="81" y="31"/>
      <point x="84" y="42" type="curve" smooth="yes"/>
      <point x="89" y="58"/>
      <point x="89" y="86"/>
      <point x="89" y="116" type="curve" smooth="yes"/>
      <point x="89" y="558" type="line" smooth="yes"/>
      <point x="89" y="572"/>
      <point x="89" y="598"/>
      <point x="84" y="610" type="curve" smooth="yes"/>
      <point x="78" y="624"/>
      <point x="51" y="628"/>
      <point x="23" y="628" type="curve"/>
      <point x="22" y="628"/>
      <point x="20" y="653"/>
      <point x="24" y="654" type="curve"/>
      <point x="74" y="659"/>
      <point x="124" y="675"/>
      <point x="166" y="694" type="curve"/>
      <point x="171" y="694"/>
      <point x="177" y="685"/>
      <point x="177" y="678" type="curve"/>
      <point x="177" y="678"/>
      <point x="166" y="646"/>
      <point x="166" y="591" type="curve" smooth="yes"/>
      <point x="166" y="235" type="line"/>
      <point x="183" y="241"/>
      <point x="214" y="267"/>
      <point x="248" y="296" type="curve" smooth="yes"/>
      <point x="300" y="340"/>
      <point x="340" y="369"/>
      <point x="340" y="379" type="curve" smooth="yes"/>
      <point x="340" y="394"/>
      <point x="301" y="395"/>
      <point x="292" y="396" type="curve"/>
      <point x="287" y="403"/>
      <point x="289" y="423"/>
      <point x="294" y="425" type="curve"/>
      <point x="323" y="422"/>
      <point x="358" y="420"/>
      <point x="390" y="420" type="curve" smooth="yes"/>
      <point x="424" y="420"/>
      <point x="456" y="422"/>
      <point x="478" y="425" type="curve"/>
      <point x="482" y="419"/>
      <point x="481" y="400"/>
      <point x="478" y="396" type="curve"/>
      <point x="464" y="396"/>
      <point x="422" y="388"/>
      <point x="401" y="373" type="curve" smooth="yes"/>
      <point x="390" y="365"/>
      <point x="298" y="299"/>
      <point x="239" y="249" type="curve"/>
      <point x="314" y="168"/>
      <point x="395" y="73"/>
      <point x="419" y="53" type="curve" smooth="yes"/>
      <point x="445" y="32"/>
      <point x="485" y="25"/>
      <point x="511" y="26" type="curve"/>
      <point x="513" y="23"/>
      <point x="515" y="7"/>
      <point x="512" y="2" type="curve"/>
      <point x="505" y="-1"/>
      <point x="474" y="-4"/>
      <point x="447" y="-4" type="curve" smooth="yes"/>
      <point x="388" y="-4"/>
      <point x="339" y="24"/>
      <point x="324" y="40" type="curve" smooth="yes"/>
      <point x="324" y="40"/>
      <point x="238" y="133"/>
      <point x="181" y="195" type="curve" smooth="yes"/>
      <point x="177" y="200"/>
      <point x="166" y="204"/>
      <point x="166" y="204" type="curve"/>
      <point x="166" y="116" type="line" smooth="yes"/>
      <point x="166" y="86"/>
      <point x="166" y="58"/>
      <point x="171" y="42" type="curve" smooth="yes"/>
      <point x="174" y="31"/>
      <point x="222" y="26"/>
      <point x="234" y="26" type="curve"/>
      <point x="238" y="21"/>
      <point x="239" y="2"/>
      <point x="234" y="-3" type="curve"/>
      <point x="193" y="-1"/>
      <point x="166" y="2"/>
      <point x="127" y="2" type="curve" smooth="yes"/>
      <point x="88" y="2"/>
      <point x="62" y="-1"/>
    </contour>
  </outline>
</glyph>
<glyph name="l" format="1">
  <advance width="255"/>
  <unicode hex="006C"/>
  <outline>
    <contour>
      <point x="21" y="-3" type="curve"/>
      <point x="16" y="2"/>
      <point x="17" y="21"/>
      <point x="21" y="26" type="curve"/>
      <point x="33" y="26"/>
      <point x="81" y="31"/>
      <point x="84" y="42" type="curve" smooth="yes"/>
      <point x="89" y="58"/>
      <point x="89" y="86"/>
      <point x="89" y="116" type="curve" smooth="yes"/>
      <point x="89" y="558" type="line" smooth="yes"/>
      <point x="89" y="572"/>
      <point x="89" y="598"/>
      <point x="84" y="610" type="curve" smooth="yes"/>
      <point x="78" y="624"/>
      <point x="51" y="628"/>
      <point x="23" y="628" type="curve"/>
      <point x="22" y="628"/>
      <point x="20" y="653"/>
      <point x="24" y="654" type="curve"/>
      <point x="74" y="659"/>
      <point x="124" y="675"/>
      <point x="166" y="694" type="curve"/>
      <point x="171" y="694"/>
      <point x="177" y="685"/>
      <point x="177" y="678" type="curve"/>
      <point x="177" y="678"/>
      <point x="166" y="646"/>
      <point x="166" y="591" type="curve" smooth="yes"/>
      <point x="166" y="116" type="line" smooth="yes"/>
      <point x="166" y="86"/>
      <point x="166" y="58"/>
      <point x="171" y="42" type="curve" smooth="yes"/>
      <point x="174" y="31"/>
      <point x="222" y="26"/>
      <point x="234" y="26" type="curve"/>
      <point x="238" y="21"/>
      <point x="239" y="2"/>
      <point x="234" y="-3" type="curve"/>
      <point x="193" y="-1"/>
      <point x="166" y="2"/>
      <point x="127" y="2" type="curve" smooth="yes"/>
      <point x="88" y="2"/>
      <point x="62" y="-1"/>
    </contour>
  </outline>
</glyph>
<glyph name="o" format="1">
  <advance width="509"/>
  <unicode hex="006F"/>
  <outline>
    <contour>
      <point x="41" y="213" type="curve" smooth="yes"/>
      <point x="41" y="342"/>
      <point x="133" y="439"/>
      <point x="254" y="439" type="curve" smooth="yes"/>
      <point x="386" y="439"/>
      <point x="468" y="346"/>
      <point x="468" y="221" type="curve" smooth="yes"/>
      <point x="468" y="92"/>
      <point x="377" y="-7"/>
      <point x="256" y="-7" type="curve" smooth="yes"/>
      <point x="124" y="-7"/>
      <point x="41" y="88"/>
    </contour>
    <contour>
      <point x="127" y="233" type="curve" smooth="yes"/>
      <point x="127" y="136"/>
      <point x="176" y="26"/>
      <point x="266" y="26" type="curve" smooth="yes"/>
      <point x="351" y="26"/>
      <point x="382" y="113"/>
      <point x="382" y="198" type="curve" smooth="yes"/>
      <point x="382" y="295"/>
      <point x="332" y="406"/>
      <point x="243" y="406" type="curve" smooth="yes"/>
      <point x="158" y="406"/>
      <point x="127" y="319"/>
    </contour>
  </outline>
</glyph>
<glyph name="r" format="1">
  <advance width="383"/>
  <unicode hex="0072"/>
  <outline>
    <contour>
      <point x="34" y="372" type="curve"/>
      <point x="32" y="374"/>
      <point x="30" y="393"/>
      <point x="34" y="398" type="curve"/>
      <point x="85" y="405"/>
      <point x="137" y="419"/>
      <point x="177" y="440" type="curve"/>
      <point x="182" y="440"/>
      <point x="188" y="429"/>
      <point x="188" y="424" type="curve"/>
      <point x="187" y="417"/>
      <point x="181" y="343"/>
      <point x="181" y="332" type="curve" smooth="yes"/>
      <point x="181" y="328"/>
      <point x="184" y="329"/>
      <point x="185" y="330" type="curve" smooth="yes"/>
      <point x="205" y="373"/>
      <point x="258" y="437"/>
      <point x="303" y="437" type="curve" smooth="yes"/>
      <point x="329" y="437"/>
      <point x="355" y="424"/>
      <point x="364" y="408" type="curve"/>
      <point x="366" y="402"/>
      <point x="368" y="392"/>
      <point x="368" y="381" type="curve" smooth="yes"/>
      <point x="368" y="344"/>
      <point x="345" y="329"/>
      <point x="335" y="329" type="curve" smooth="yes"/>
      <point x="324" y="329"/>
      <point x="315.245" y="335.316"/>
      <point x="305" y="343" type="curve" smooth="yes"/>
      <point x="293" y="352"/>
      <point x="281" y="360"/>
      <point x="261" y="360" type="curve" smooth="yes"/>
      <point x="218" y="360"/>
      <point x="181" y="293"/>
      <point x="181" y="270" type="curve" smooth="yes"/>
      <point x="181" y="116" type="line" smooth="yes"/>
      <point x="181" y="86"/>
      <point x="181" y="58"/>
      <point x="186" y="42" type="curve" smooth="yes"/>
      <point x="189" y="31"/>
      <point x="260" y="26"/>
      <point x="272" y="26" type="curve"/>
      <point x="276" y="21"/>
      <point x="277" y="2"/>
      <point x="272" y="-3" type="curve"/>
      <point x="231" y="-1"/>
      <point x="187" y="2"/>
      <point x="148" y="2" type="curve" smooth="yes"/>
      <point x="109" y="2"/>
      <point x="77" y="-1"/>
      <point x="36" y="-3" type="curve"/>
      <point x="31" y="2"/>
      <point x="32" y="21"/>
      <point x="36" y="26" type="curve"/>
      <point x="48" y="26"/>
      <point x="96" y="31"/>
      <point x="99" y="42" type="curve" smooth="yes"/>
      <point x="104" y="58"/>
      <point x="104" y="86"/>
      <point x="104" y="116" type="curve" smooth="yes"/>
      <point x="104" y="302" type="line" smooth="yes"/>
      <point x="104" y="315"/>
      <point x="104" y="342"/>
      <point x="99" y="354" type="curve" smooth="yes"/>
      <point x="92" y="371"/>
      <point x="41" y="372"/>
    </contour>
  </outline>
</glyph>
<glyph name="w" format="1">
  <advance width="721"/>
  <unicode hex="0077"/>
  <outline>
    <contour>
      <point x="2" y="401" type="curve"/>
      <point x="-1" y="407"/>
      <point x="-1" y="424"/>
      <point x="2" y="430" type="curve"/>
      <point x="43" y="428"/>
      <point x="60" y="425"/>
      <point x="101" y="425" type="curve" smooth="yes"/>
      <point x="139" y="425"/>
      <point x="161" y="428"/>
      <point x="201" y="430" type="curve"/>
      <point x="203" y="424"/>
      <point x="203" y="403"/>
      <point x="199" y="401" type="curve"/>
      <point x="191" y="401"/>
      <point x="149" y="399"/>
      <point x="149" y="378" type="curve" smooth="yes"/>
      <point x="149" y="377"/>
      <point x="151" y="372"/>
      <point x="154" y="363" type="curve" smooth="yes"/>
      <point x="166" y="331"/>
      <point x="201" y="249"/>
      <point x="257" y="117" type="curve"/>
      <point x="308" y="246"/>
      <point x="338" y="318"/>
      <point x="338" y="327" type="curve" smooth="yes"/>
      <point x="338" y="334"/>
      <point x="327" y="363"/>
      <point x="314" y="382" type="curve" smooth="yes"/>
      <point x="303" y="398"/>
      <point x="282" y="401"/>
      <point x="270" y="401" type="curve"/>
      <point x="265" y="404"/>
      <point x="265" y="425"/>
      <point x="270" y="430" type="curve"/>
      <point x="311" y="428"/>
      <point x="320" y="425"/>
      <point x="361" y="425" type="curve" smooth="yes"/>
      <point x="399" y="425"/>
      <point x="425" y="428"/>
      <point x="465" y="430" type="curve"/>
      <point x="467" y="424"/>
      <point x="468" y="405"/>
      <point x="464" y="401" type="curve"/>
      <point x="433" y="401"/>
      <point x="414" y="393"/>
      <point x="414" y="369" type="curve" smooth="yes"/>
      <point x="414" y="366"/>
      <point x="415" y="363"/>
      <point x="417" y="358" type="curve" smooth="yes"/>
      <point x="425" y="331"/>
      <point x="453" y="262"/>
      <point x="508" y="120" type="curve"/>
      <point x="547" y="217"/>
      <point x="581" y="302"/>
      <point x="596" y="344" type="curve" smooth="yes"/>
      <point x="600" y="355"/>
      <point x="601" y="364"/>
      <point x="601" y="368" type="curve" smooth="yes"/>
      <point x="601" y="397"/>
      <point x="564" y="399"/>
      <point x="541" y="401" type="curve"/>
      <point x="537" y="404"/>
      <point x="536" y="425"/>
      <point x="541" y="430" type="curve"/>
      <point x="582" y="428"/>
      <point x="587" y="425"/>
      <point x="628" y="425" type="curve" smooth="yes"/>
      <point x="666" y="425"/>
      <point x="680" y="428"/>
      <point x="720" y="430" type="curve"/>
      <point x="721" y="427"/>
      <point x="723" y="406"/>
      <point x="717" y="401" type="curve"/>
      <point x="709" y="401"/>
      <point x="661" y="395"/>
      <point x="649" y="365" type="curve" smooth="yes"/>
      <point x="594" y="226"/>
      <point x="562" y="145"/>
      <point x="504" y="6" type="curve" smooth="yes"/>
      <point x="501" y="-2"/>
      <point x="489" y="-11"/>
      <point x="483" y="-11" type="curve" smooth="yes"/>
      <point x="477" y="-11"/>
      <point x="472" y="-9"/>
      <point x="471" y="-7" type="curve" smooth="yes"/>
      <point x="360" y="282" type="line"/>
      <point x="252" y="8" type="line" smooth="yes"/>
      <point x="251" y="5"/>
      <point x="238" y="-11"/>
      <point x="227" y="-11" type="curve" smooth="yes"/>
      <point x="223" y="-11"/>
      <point x="219" y="-9"/>
      <point x="218" y="-7" type="curve" smooth="yes"/>
      <point x="156" y="148"/>
      <point x="122" y="230"/>
      <point x="56" y="379" type="curve" smooth="yes"/>
      <point x="47" y="400"/>
      <point x="14" y="401"/>
    </contour>
  </outline>
</glyph>
<glyph name="braceleft" format="1">
  <advance width="222"/>
  <unicode hex="007B"/>
  <outline>
    <contour>
      <point x="26" y="288" type="curve" smooth="yes"/>
      <point x="26" y="292"/>
      <point x="26" y="297"/>
      <point x="28" y="299" type="curve"/>
      <point x="67" y="309"/>
      <point x="104" y="330"/>
      <point x="104" y="383" type="curve" smooth="yes"/>
      <point x="104" y="409"/>
      <point x="92" y="433"/>
      <point x="81" y="458" type="curve" smooth="yes"/>
      <point x="69" y="484"/>
      <point x="58" y="510"/>
      <point x="58" y="541" type="curve" smooth="yes"/>
      <point x="58" y="638"/>
      <point x="122" y="703"/>
      <point x="165" y="720" type="curve"/>
      <point x="173" y="720"/>
      <point x="181" y="710"/>
      <point x="181" y="701" type="curve"/>
      <point x="154" y="688"/>
      <point x="102" y="640"/>
      <point x="102" y="589" type="curve" smooth="yes"/>
      <point x="102" y="551"/>
      <point x="115" y="526"/>
      <point x="127" y="498" type="curve" smooth="yes"/>
      <point x="139" y="473"/>
      <point x="150" y="445"/>
      <point x="150" y="405" type="curve" smooth="yes"/>
      <point x="150" y="340"/>
      <point x="103" y="298"/>
      <point x="77" y="288" type="curve"/>
      <point x="103" y="278"/>
      <point x="150" y="236"/>
      <point x="150" y="171" type="curve" smooth="yes"/>
      <point x="150" y="131"/>
      <point x="139" y="103"/>
      <point x="127" y="78" type="curve" smooth="yes"/>
      <point x="115" y="50"/>
      <point x="102" y="25"/>
      <point x="102" y="-13" type="curve" smooth="yes"/>
      <point x="102" y="-64"/>
      <point x="154" y="-112"/>
      <point x="181" y="-125" type="curve"/>
      <point x="181" y="-134"/>
      <point x="173" y="-144"/>
      <point x="165" y="-144" type="curve"/>
      <point x="122" y="-127"/>
      <point x="58" y="-62"/>
      <point x="58" y="35" type="curve" smooth="yes"/>
      <point x="58" y="66"/>
      <point x="69" y="92"/>
      <point x="81" y="118" type="curve" smooth="yes"/>
      <point x="92" y="143"/>
      <point x="104" y="167"/>
      <point x="104" y="193" type="curve" smooth="yes"/>
      <point x="104" y="246"/>
      <point x="67" y="267"/>
      <point x="28" y="277" type="curve"/>
      <point x="26" y="279"/>
      <point x="26" y="284"/>
    </contour>
  </outline>
</glyph>
<glyph name="bar" format="1">
  <advance width="205"/>
  <unicode hex="007C"/>
  <outline>
    <contour>
      <point x="77" y="-115" type="curve" smooth="yes"/>
      <point x="77" y="757" type="line"/>
      <point x="77" y="757"/>
      <point x="76" y="763"/>
      <point x="82" y="765" type="curve" smooth="yes"/>
      <point x="99" y="770"/>
      <point x="116" y="772"/>
      <point x="119" y="772" type="curve" smooth="yes"/>
      <point x="128" y="772"/>
      <point x="128" y="767"/>
      <point x="128" y="766" type="curve" smooth="yes"/>
      <point x="128" y="-106" type="line" smooth="yes"/>
      <point x="128" y="-114"/>
      <point x="84" y="-123"/>
      <point x="82" y="-123" type="curve" smooth="yes"/>
      <point x="75" y="-123"/>
      <point x="77" y="-119"/>
    </contour>
  </outline>
</glyph>
<glyph name="asciitilde" format="1">
  <advance width="570"/>
  <unicode hex="007E"/>
  <outline>
    <contour>
      <point x="56" y="276" type="curve" smooth="yes"/>
      <point x="56" y="313"/>
      <point x="133" y="354"/>
      <point x="186" y="354" type="curve" smooth="yes"/>
      <point x="233" y="354"/>
      <point x="269" y="340"/>
      <point x="305" y="327" type="curve" smooth="yes"/>
      <point x="340" y="314"/>
      <point x="375" y="301"/>
      <point x="422" y="301" type="curve" smooth="yes"/>
      <point x="461" y="301"/>
      <point x="483" y="322"/>
      <point x="512" y="345" type="curve"/>
      <point x="518" y="342"/>
      <point x="521" y="336"/>
      <point x="521" y="328" type="curve" smooth="yes"/>
      <point x="521" y="295"/>
      <point x="455" y="250"/>
      <point x="393" y="250" type="curve" smooth="yes"/>
      <point x="344" y="250"/>
      <point x="308" y="263"/>
      <point x="271" y="277" type="curve" smooth="yes"/>
      <point x="236" y="290"/>
      <point x="201" y="303"/>
      <point x="156" y="303" type="curve" smooth="yes"/>
      <point x="117" y="303"/>
      <point x="89" y="281"/>
      <point x="65" y="259" type="curve"/>
      <point x="59" y="262"/>
      <point x="56" y="268"/>
    </contour>
  </outline>
</glyph>
<glyph name="cent" format="1">
  <advance width="446"/>
  <unicode hex="00A2"/>
  <outline>
    <contour>
      <point x="194.927" y="-1.57836" type="line"/>
      <point x="103.327" y="21.8164"/>
      <point x="45" y="105.748"/>
      <point x="45" y="194" type="curve" smooth="yes"/>
      <point x="45" y="330.024"/>
      <point x="165.653" y="424.383"/>
      <point x="266.246" y="436.643" type="curve"/>
      <point x="272" y="472" type="line"/>
      <point x="280" y="472"/>
      <point x="300" y="473"/>
      <point x="300" y="466" type="curve" smooth="yes"/>
      <point x="295.432" y="437.878" type="line"/>
      <point x="327.39" y="436.817"/>
      <point x="355.713" y="428.858"/>
      <point x="378" y="414" type="curve" smooth="yes"/>
      <point x="382" y="410"/>
      <point x="388" y="396"/>
      <point x="388" y="386" type="curve" smooth="yes"/>
      <point x="388" y="350"/>
      <point x="367" y="338"/>
      <point x="350" y="338" type="curve" smooth="yes"/>
      <point x="328" y="338"/>
      <point x="309" y="364"/>
      <point x="292" y="375" type="curve" smooth="yes"/>
      <point x="289.852" y="376.432"/>
      <point x="287.819" y="377.77"/>
      <point x="285.872" y="379.018" type="curve" smooth="yes"/>
      <point x="234.713" y="64.0516" type="line"/>
      <point x="250.52" y="59.9849"/>
      <point x="267.416" y="58"/>
      <point x="285" y="58" type="curve" smooth="yes"/>
      <point x="340" y="58"/>
      <point x="378" y="94"/>
      <point x="391" y="109" type="curve" smooth="yes"/>
      <point x="392" y="109"/>
      <point x="399" y="103"/>
      <point x="399" y="95" type="curve" smooth="yes"/>
      <point x="399" y="90"/>
      <point x="396" y="82"/>
      <point x="393" y="77" type="curve" smooth="yes"/>
      <point x="375" y="48"/>
      <point x="325" y="-8"/>
      <point x="247" y="-8" type="curve" smooth="yes"/>
      <point x="238.889" y="-8"/>
      <point x="230.959" y="-7.55969"/>
      <point x="223.22" y="-6.70678" type="curve"/>
      <point x="217" y="-45" type="line"/>
      <point x="208" y="-45"/>
      <point x="189" y="-45"/>
      <point x="189" y="-38" type="curve" smooth="yes"/>
    </contour>
    <contour>
      <point x="207.194" y="73.7937" type="curve"/>
      <point x="258.928" y="391.679" type="line"/>
      <point x="252.253" y="393.297"/>
      <point x="244.752" y="394"/>
      <point x="235" y="394" type="curve" smooth="yes"/>
      <point x="182" y="394"/>
      <point x="123" y="332"/>
      <point x="123" y="227" type="curve" smooth="yes"/>
      <point x="123" y="146.75"/>
      <point x="156.873" y="97.0793"/>
    </contour>
  </outline>
</glyph>
<glyph name="sterling" format="1">
  <advance width="477"/>
  <unicode hex="00A3"/>
  <outline>
    <contour>
      <point x="55" y="306" type="line"/>
      <point x="49" y="312"/>
      <point x="69" y="342"/>
      <point x="78" y="342" type="curve" smooth="yes"/>
      <point x="131.998" y="342" type="line"/>
      <point x="128.312" y="366.143"/>
      <point x="125.352" y="387.724"/>
      <point x="125" y="399" type="curve" smooth="yes"/>
      <point x="121" y="535"/>
      <point x="220" y="636"/>
      <point x="314" y="636" type="curve" smooth="yes"/>
      <point x="349" y="636"/>
      <point x="362" y="628"/>
      <point x="386" y="612" type="curve" smooth="yes"/>
      <point x="390" y="608"/>
      <point x="396" y="594"/>
      <point x="396" y="584" type="curve" smooth="yes"/>
      <point x="396" y="548"/>
      <point x="375" y="536"/>
      <point x="358" y="536" type="curve" smooth="yes"/>
      <point x="336" y="536"/>
      <point x="320" y="559"/>
      <point x="305" y="573" type="curve" smooth="yes"/>
      <point x="290" y="587"/>
      <point x="283" y="590"/>
      <point x="270" y="590" type="curve" smooth="yes"/>
      <point x="218" y="590"/>
      <point x="202" y="528"/>
      <point x="202" y="459" type="curve" smooth="yes"/>
      <point x="202" y="415.138"/>
      <point x="209.378" y="377.249"/>
      <point x="215.387" y="342" type="curve"/>
      <point x="381" y="342" type="line"/>
      <point x="395" y="331"/>
      <point x="378" y="310"/>
      <point x="372" y="306" type="curve"/>
      <point x="220.798" y="306" type="line"/>
      <point x="222.153" y="294.54"/>
      <point x="223" y="283.25"/>
      <point x="223" y="272" type="curve" smooth="yes"/>
      <point x="223" y="197"/>
      <point x="159" y="120"/>
      <point x="134" y="97" type="curve"/>
      <point x="148" y="104"/>
      <point x="158" y="105"/>
      <point x="169" y="105" type="curve" smooth="yes"/>
      <point x="224" y="105"/>
      <point x="238" y="58"/>
      <point x="327" y="58" type="curve" smooth="yes"/>
      <point x="382" y="58"/>
      <point x="418" y="121"/>
      <point x="427" y="139" type="curve" smooth="yes"/>
      <point x="428" y="139"/>
      <point x="440" y="131"/>
      <point x="440" y="123" type="curve" smooth="yes"/>
      <point x="440" y="119"/>
      <point x="439" y="114"/>
      <point x="437" y="108" type="curve" smooth="yes"/>
      <point x="426" y="76"/>
      <point x="369" y="-8"/>
      <point x="291" y="-8" type="curve" smooth="yes"/>
      <point x="206" y="-8"/>
      <point x="168" y="49"/>
      <point x="116" y="49" type="curve" smooth="yes"/>
      <point x="85" y="49"/>
      <point x="77" y="10"/>
      <point x="60" y="-6" type="curve"/>
      <point x="52" y="-6"/>
      <point x="44" y="7"/>
      <point x="44" y="16" type="curve" smooth="yes"/>
      <point x="44" y="45"/>
      <point x="79" y="79"/>
      <point x="94" y="94" type="curve" smooth="yes"/>
      <point x="122" y="122"/>
      <point x="148" y="182"/>
      <point x="148" y="231" type="curve" smooth="yes"/>
      <point x="148" y="241.017"/>
      <point x="142.995" y="272.419"/>
      <point x="137.651" y="306" type="curve"/>
    </contour>
  </outline>
</glyph>
<glyph name="currency" format="1">
  <advance width="574"/>
  <unicode hex="00A4"/>
  <outline>
    <contour>
      <point x="78" y="154" type="curve"/>
      <point x="132" y="205" type="line"/>
      <point x="113" y="235"/>
      <point x="102" y="270"/>
      <point x="102" y="307" type="curve" smooth="yes"/>
      <point x="102" y="351"/>
      <point x="116" y="391"/>
      <point x="140" y="423" type="curve"/>
      <point x="88" y="479" type="line" smooth="yes"/>
      <point x="80" y="487"/>
      <point x="108" y="513"/>
      <point x="132" y="520" type="curve"/>
      <point x="184" y="465" type="line"/>
      <point x="213" y="485"/>
      <point x="248" y="496"/>
      <point x="286" y="496" type="curve" smooth="yes"/>
      <point x="329" y="496"/>
      <point x="367" y="481"/>
      <point x="398" y="455" type="curve"/>
      <point x="457" y="510" type="line" smooth="yes"/>
      <point x="465" y="518"/>
      <point x="491" y="490"/>
      <point x="498" y="466" type="curve"/>
      <point x="438" y="410" type="line"/>
      <point x="456" y="380"/>
      <point x="467" y="344"/>
      <point x="467" y="307" type="curve" smooth="yes"/>
      <point x="467" y="267"/>
      <point x="455" y="230"/>
      <point x="434" y="199" type="curve"/>
      <point x="488" y="141" type="line" smooth="yes"/>
      <point x="496" y="133"/>
      <point x="468" y="107"/>
      <point x="444" y="100" type="curve"/>
      <point x="392" y="155" type="line"/>
      <point x="362" y="133"/>
      <point x="326" y="120"/>
      <point x="286" y="120" type="curve" smooth="yes"/>
      <point x="243" y="120"/>
      <point x="203" y="135"/>
      <point x="172" y="160" type="curve"/>
      <point x="119" y="110" type="line" smooth="yes"/>
      <point x="111" y="102"/>
      <point x="85" y="130"/>
    </contour>
    <contour>
      <point x="175" y="319" type="curve" smooth="yes"/>
      <point x="175" y="227"/>
      <point x="231" y="152"/>
      <point x="294" y="152" type="curve" smooth="yes"/>
      <point x="355" y="152"/>
      <point x="395" y="219"/>
      <point x="395" y="294" type="curve" smooth="yes"/>
      <point x="395" y="386"/>
      <point x="340" y="463"/>
      <point x="277" y="463" type="curve" smooth="yes"/>
      <point x="216" y="463"/>
      <point x="175" y="394"/>
    </contour>
  </outline>
</glyph>
<glyph name="brokenbar" format="1">
  <advance width="214"/>
  <unicode hex="00A6"/>
  <outline>
    <contour>
      <point x="82" y="-115" type="curve" smooth="yes"/>
      <point x="82" y="249" type="line"/>
      <point x="82" y="249"/>
      <point x="81" y="255"/>
      <point x="87" y="257" type="curve" smooth="yes"/>
      <point x="104" y="262"/>
      <point x="122" y="262"/>
      <point x="125" y="262" type="curve" smooth="yes"/>
      <point x="134" y="262"/>
      <point x="133" y="256"/>
      <point x="133" y="256" type="curve"/>
      <point x="133" y="-108" type="line" smooth="yes"/>
      <point x="133" y="-116"/>
      <point x="89" y="-123"/>
      <point x="87" y="-123" type="curve" smooth="yes"/>
      <point x="80" y="-123"/>
      <point x="82" y="-119"/>
    </contour>
    <contour>
      <point x="82" y="393" type="curve" smooth="yes"/>
      <point x="82" y="757" type="line"/>
      <point x="82" y="757"/>
      <point x="81" y="763"/>
      <point x="87" y="765" type="curve" smooth="yes"/>
      <point x="104" y="770"/>
      <point x="122" y="770"/>
      <point x="125" y="770" type="curve" smooth="yes"/>
      <point x="134" y="770"/>
      <point x="133" y="764"/>
      <point x="133" y="764" type="curve"/>
      <point x="133" y="400" type="line" smooth="yes"/>
      <point x="133" y="392"/>
      <point x="89" y="385"/>
      <point x="87" y="385" type="curve" smooth="yes"/>
      <point x="80" y="385"/>
      <point x="82" y="389"/>
    </contour>
  </outline>
</glyph>
<glyph name="plusminus" format="1">
  <advance width="548"/>
  <unicode hex="00B1"/>
  <outline>
    <contour>
      <point x="34" y="16" type="curve" smooth="yes"/>
      <point x="34" y="20"/>
      <point x="39" y="54"/>
      <point x="49" y="62" type="curve"/>
      <point x="505" y="62" type="line" smooth="yes"/>
      <point x="509" y="62"/>
      <point x="514" y="58"/>
      <point x="514" y="50" type="curve" smooth="yes"/>
      <point x="514" y="34"/>
      <point x="506" y="14"/>
      <point x="498" y="6" type="curve"/>
      <point x="40" y="6" type="line"/>
      <point x="40" y="6"/>
      <point x="34" y="6"/>
    </contour>
    <contour>
      <point x="34" y="315" type="curve" smooth="yes"/>
      <point x="34" y="319"/>
      <point x="39" y="353"/>
      <point x="49" y="361" type="curve"/>
      <point x="245" y="361" type="line"/>
      <point x="245" y="561" type="line"/>
      <point x="261" y="567"/>
      <point x="281" y="572"/>
      <point x="288" y="572" type="curve" smooth="yes"/>
      <point x="298" y="572"/>
      <point x="301" y="566"/>
      <point x="301" y="566" type="curve"/>
      <point x="301" y="361" type="line"/>
      <point x="505" y="361" type="line" smooth="yes"/>
      <point x="509" y="361"/>
      <point x="514" y="357"/>
      <point x="514" y="349" type="curve" smooth="yes"/>
      <point x="514" y="333"/>
      <point x="506" y="313"/>
      <point x="498" y="305" type="curve"/>
      <point x="301" y="305" type="line"/>
      <point x="301" y="103" type="line"/>
      <point x="289" y="94"/>
      <point x="268" y="92"/>
      <point x="258" y="92" type="curve" smooth="yes"/>
      <point x="251" y="92"/>
      <point x="245" y="97"/>
      <point x="245" y="101" type="curve" smooth="yes"/>
      <point x="245" y="305" type="line"/>
      <point x="40" y="305" type="line"/>
      <point x="40" y="305"/>
      <point x="34" y="305"/>
    </contour>
  </outline>
</glyph>
<glyph name="uni00B2" format="1">
  <advance width="358"/>
  <unicode hex="00B2"/>
  <outline>
    <contour>
      <point x="39" y="266" type="curve"/>
      <point x="79" y="310"/>
      <point x="139" y="363"/>
      <point x="180" y="418" type="curve" smooth="yes"/>
      <point x="208" y="455"/>
      <point x="227" y="494"/>
      <point x="227" y="530" type="curve" smooth="yes"/>
      <point x="227" y="572"/>
      <point x="203" y="602"/>
      <point x="161" y="602" type="curve" smooth="yes"/>
      <point x="116" y="602"/>
      <point x="92" y="575"/>
      <point x="74" y="553" type="curve"/>
      <point x="70" y="549"/>
      <point x="56" y="565"/>
      <point x="57" y="570" type="curve"/>
      <point x="80" y="610"/>
      <point x="127" y="647"/>
      <point x="173" y="647" type="curve" smooth="yes"/>
      <point x="243" y="647"/>
      <point x="292" y="603"/>
      <point x="292" y="540" type="curve" smooth="yes"/>
      <point x="292" y="507"/>
      <point x="276" y="475"/>
      <point x="246" y="439" type="curve" smooth="yes"/>
      <point x="219" y="407"/>
      <point x="169" y="358"/>
      <point x="121" y="309" type="curve"/>
      <point x="241" y="309" type="line" smooth="yes"/>
      <point x="282" y="309"/>
      <point x="295" y="353"/>
      <point x="301" y="363" type="curve" smooth="yes"/>
      <point x="302" y="365"/>
      <point x="303" y="365"/>
      <point x="306" y="366" type="curve" smooth="yes"/>
      <point x="309" y="366"/>
      <point x="317" y="364"/>
      <point x="320" y="360" type="curve"/>
      <point x="309" y="331"/>
      <point x="297" y="287"/>
      <point x="283" y="254" type="curve"/>
      <point x="51" y="254" type="line" smooth="yes"/>
      <point x="45" y="254"/>
      <point x="37" y="262"/>
    </contour>
  </outline>
</glyph>
<glyph name="uni00B3" format="1">
  <advance width="318"/>
  <unicode hex="00B3"/>
  <outline>
    <contour>
      <point x="39" y="288" type="curve" smooth="yes"/>
      <point x="39" y="308"/>
      <point x="54" y="321"/>
      <point x="70" y="321" type="curve" smooth="yes"/>
      <point x="87" y="321"/>
      <point x="94" y="304"/>
      <point x="106" y="292" type="curve" smooth="yes"/>
      <point x="116" y="282"/>
      <point x="130" y="277"/>
      <point x="145" y="277" type="curve" smooth="yes"/>
      <point x="187" y="277"/>
      <point x="217" y="307"/>
      <point x="217" y="368" type="curve" smooth="yes"/>
      <point x="217" y="417"/>
      <point x="182" y="454"/>
      <point x="145" y="454" type="curve" smooth="yes"/>
      <point x="127" y="454"/>
      <point x="110" y="447"/>
      <point x="105" y="446" type="curve"/>
      <point x="103" y="448"/>
      <point x="101" y="453"/>
      <point x="100" y="457" type="curve" smooth="yes"/>
      <point x="99" y="461"/>
      <point x="99" y="465"/>
      <point x="100" y="467" type="curve"/>
      <point x="149" y="477"/>
      <point x="193" y="507"/>
      <point x="193" y="556" type="curve" smooth="yes"/>
      <point x="193" y="582"/>
      <point x="168" y="607"/>
      <point x="142" y="607" type="curve" smooth="yes"/>
      <point x="105" y="607"/>
      <point x="78" y="576"/>
      <point x="72" y="570" type="curve"/>
      <point x="67" y="572"/>
      <point x="62" y="585"/>
      <point x="63" y="586" type="curve"/>
      <point x="77" y="607"/>
      <point x="109" y="646"/>
      <point x="162" y="646" type="curve" smooth="yes"/>
      <point x="204" y="646"/>
      <point x="249" y="620"/>
      <point x="249" y="569" type="curve" smooth="yes"/>
      <point x="249" y="525"/>
      <point x="213" y="496"/>
      <point x="191" y="486" type="curve"/>
      <point x="217" y="486"/>
      <point x="281" y="452"/>
      <point x="281" y="386" type="curve" smooth="yes"/>
      <point x="281" y="298"/>
      <point x="205" y="249"/>
      <point x="118" y="249" type="curve" smooth="yes"/>
      <point x="96" y="249"/>
      <point x="61" y="255"/>
      <point x="51" y="264" type="curve"/>
      <point x="51" y="264"/>
      <point x="39" y="275"/>
    </contour>
  </outline>
</glyph>
<glyph name="uni00B9" format="1">
  <advance width="292"/>
  <unicode hex="00B9"/>
  <outline>
    <contour>
      <point x="39" y="570" type="curve" smooth="yes"/>
      <point x="39" y="573"/>
      <point x="40" y="577"/>
      <point x="42" y="578" type="curve" smooth="yes"/>
      <point x="148" y="622"/>
      <point x="189" y="652"/>
      <point x="192" y="652" type="curve" smooth="yes"/>
      <point x="194" y="652" type="line" smooth="yes"/>
      <point x="200" y="652"/>
      <point x="205" y="632"/>
      <point x="206" y="629" type="curve"/>
      <point x="206" y="629"/>
      <point x="197" y="587"/>
      <point x="197" y="548" type="curve" smooth="yes"/>
      <point x="197" y="340" type="line" smooth="yes"/>
      <point x="197" y="320"/>
      <point x="198" y="309"/>
      <point x="205" y="293" type="curve" smooth="yes"/>
      <point x="208" y="286"/>
      <point x="249" y="279"/>
      <point x="257" y="279" type="curve" smooth="yes"/>
      <point x="260" y="279"/>
      <point x="260" y="257"/>
      <point x="257" y="253" type="curve"/>
      <point x="218" y="254"/>
      <point x="200" y="256"/>
      <point x="161" y="256" type="curve" smooth="yes"/>
      <point x="122" y="256"/>
      <point x="100" y="254"/>
      <point x="61" y="253" type="curve"/>
      <point x="56" y="256"/>
      <point x="56" y="278"/>
      <point x="61" y="278" type="curve" smooth="yes"/>
      <point x="73" y="278"/>
      <point x="114" y="285"/>
      <point x="117" y="292" type="curve" smooth="yes"/>
      <point x="122" y="305"/>
      <point x="123" y="328"/>
      <point x="123" y="338" type="curve" smooth="yes"/>
      <point x="123" y="518" type="line" smooth="yes"/>
      <point x="123" y="564"/>
      <point x="115" y="569"/>
      <point x="104" y="569" type="curve" smooth="yes"/>
      <point x="92" y="569"/>
      <point x="68" y="560"/>
      <point x="48" y="553" type="curve"/>
      <point x="42" y="556"/>
      <point x="39" y="564"/>
    </contour>
  </outline>
</glyph>
<glyph name="ordmasculine" format="1">
  <advance width="388"/>
  <unicode hex="00BA"/>
  <outline>
    <contour>
      <point x="38" y="399" type="curve" smooth="yes"/>
      <point x="38" y="484"/>
      <point x="107" y="554"/>
      <point x="196" y="554" type="curve" smooth="yes"/>
      <point x="283" y="554"/>
      <point x="350" y="486"/>
      <point x="350" y="403" type="curve" smooth="yes"/>
      <point x="350" y="320"/>
      <point x="283" y="247"/>
      <point x="196" y="247" type="curve" smooth="yes"/>
      <point x="109" y="247"/>
      <point x="38" y="316"/>
    </contour>
    <contour>
      <point x="107" y="411" type="curve" smooth="yes"/>
      <point x="107" y="345"/>
      <point x="138" y="271"/>
      <point x="204" y="271" type="curve" smooth="yes"/>
      <point x="259" y="271"/>
      <point x="281" y="336"/>
      <point x="281" y="391" type="curve" smooth="yes"/>
      <point x="281" y="456"/>
      <point x="252" y="530"/>
      <point x="187" y="530" type="curve" smooth="yes"/>
      <point x="129" y="530"/>
      <point x="107" y="467"/>
    </contour>
  </outline>
</glyph>
<glyph name="guillemotright" format="1">
  <advance width="482"/>
  <unicode hex="00BB"/>
  <outline>
    <contour>
      <point x="41" y="83" type="curve"/>
      <point x="47" y="104"/>
      <point x="143" y="206"/>
      <point x="189" y="247" type="curve"/>
      <point x="143" y="288"/>
      <point x="47" y="390"/>
      <point x="41" y="411" type="curve"/>
      <point x="43" y="414"/>
      <point x="47" y="418"/>
      <point x="63" y="423" type="curve"/>
      <point x="64" y="422"/>
      <point x="141" y="343"/>
      <point x="272" y="264" type="curve"/>
      <point x="276" y="255"/>
      <point x="277" y="256"/>
      <point x="277" y="246" type="curve" smooth="yes"/>
      <point x="277" y="240"/>
      <point x="274" y="233"/>
      <point x="272" y="230" type="curve"/>
      <point x="141" y="151"/>
      <point x="64" y="72"/>
      <point x="63" y="71" type="curve"/>
      <point x="47" y="76"/>
      <point x="43" y="80"/>
    </contour>
    <contour>
      <point x="221" y="83" type="curve"/>
      <point x="227" y="104"/>
      <point x="323" y="206"/>
      <point x="369" y="247" type="curve"/>
      <point x="323" y="288"/>
      <point x="227" y="390"/>
      <point x="221" y="411" type="curve"/>
      <point x="223" y="414"/>
      <point x="227" y="418"/>
      <point x="243" y="423" type="curve"/>
      <point x="244" y="422"/>
      <point x="321" y="343"/>
      <point x="452" y="264" type="curve"/>
      <point x="456" y="255"/>
      <point x="457" y="256"/>
      <point x="457" y="246" type="curve" smooth="yes"/>
      <point x="457" y="240"/>
      <point x="454" y="233"/>
      <point x="452" y="230" type="curve"/>
      <point x="321" y="151"/>
      <point x="244" y="72"/>
      <point x="243" y="71" type="curve"/>
      <point x="227" y="76"/>
      <point x="223" y="80"/>
    </contour>
  </outline>
</glyph>
<glyph name="onequarter" format="1">
  <advance width="699"/>
  <unicode hex="00BC"/>
  <outline>
    <contour>
      <point x="34" y="558" type="curve"/>
      <point x="53" y="570"/>
      <point x="84" y="588"/>
      <point x="169" y="638" type="curve"/>
      <point x="176" y="636"/>
      <point x="182" y="629"/>
      <point x="182" y="622" type="curve"/>
      <point x="182" y="622"/>
      <point x="174" y="573"/>
      <point x="174" y="534" type="curve" smooth="yes"/>
      <point x="174" y="336" type="line" smooth="yes"/>
      <point x="174" y="316"/>
      <point x="176" y="302"/>
      <point x="181" y="287" type="curve" smooth="yes"/>
      <point x="183" y="280"/>
      <point x="223" y="273"/>
      <point x="231" y="273" type="curve"/>
      <point x="236" y="268"/>
      <point x="233" y="253"/>
      <point x="232" y="251" type="curve"/>
      <point x="193" y="252"/>
      <point x="185" y="254"/>
      <point x="146" y="254" type="curve" smooth="yes"/>
      <point x="107" y="254"/>
      <point x="93" y="252"/>
      <point x="54" y="251" type="curve"/>
      <point x="49" y="254"/>
      <point x="50" y="269"/>
      <point x="54" y="273" type="curve"/>
      <point x="66" y="273"/>
      <point x="101" y="281"/>
      <point x="104" y="288" type="curve" smooth="yes"/>
      <point x="109" y="301"/>
      <point x="112" y="324"/>
      <point x="112" y="334" type="curve" smooth="yes"/>
      <point x="112" y="520" type="line" smooth="yes"/>
      <point x="112" y="539"/>
      <point x="105" y="555"/>
      <point x="95" y="555" type="curve" smooth="yes"/>
      <point x="84" y="555"/>
      <point x="67" y="547"/>
      <point x="47" y="540" type="curve"/>
      <point x="41" y="543"/>
      <point x="36" y="552"/>
    </contour>
    <contour>
      <point x="175" y="-4" type="curve"/>
      <point x="524" y="636" type="line"/>
      <point x="525" y="639"/>
      <point x="538" y="647"/>
      <point x="555" y="644" type="curve" smooth="yes"/>
      <point x="561" y="643"/>
      <point x="563" y="637"/>
      <point x="563" y="634" type="curve"/>
      <point x="218" y="2" type="line" smooth="yes"/>
      <point x="215" y="-4"/>
      <point x="202" y="-16"/>
      <point x="186" y="-13" type="curve" smooth="yes"/>
      <point x="175" y="-11"/>
      <point x="175" y="-4"/>
    </contour>
    <contour>
      <point x="381" y="122" type="curve"/>
      <point x="586" y="395" type="line" smooth="yes"/>
      <point x="592.005" y="402.996"/>
      <point x="598" y="407"/>
      <point x="606" y="407" type="curve" smooth="yes"/>
      <point x="612" y="407"/>
      <point x="615" y="400"/>
      <point x="615" y="395" type="curve" smooth="yes"/>
      <point x="615" y="151" type="line"/>
      <point x="651" y="151" type="line"/>
      <point x="660" y="143"/>
      <point x="664" y="120"/>
      <point x="656" y="106" type="curve"/>
      <point x="615" y="106" type="line"/>
      <point x="615" y="0" type="line"/>
      <point x="613" y="-2"/>
      <point x="601" y="-3"/>
      <point x="587" y="-3" type="curve" smooth="yes"/>
      <point x="574" y="-3"/>
      <point x="561" y="-2"/>
      <point x="556" y="2" type="curve"/>
      <point x="556" y="106" type="line"/>
      <point x="391" y="106" type="line"/>
      <point x="386" y="107"/>
      <point x="382" y="111"/>
    </contour>
    <contour>
      <point x="442" y="151" type="curve"/>
      <point x="556" y="151" type="line"/>
      <point x="556" y="305" type="line"/>
      <point x="515" y="253"/>
      <point x="487" y="209"/>
    </contour>
  </outline>
</glyph>
<glyph name="questiondown" format="1">
  <advance width="345"/>
  <unicode hex="00BF"/>
  <outline>
    <contour>
      <point x="295" y="-179" type="curve" smooth="yes"/>
      <point x="295" y="-194"/>
      <point x="291" y="-209"/>
      <point x="286" y="-216" type="curve"/>
      <point x="276" y="-221"/>
      <point x="259" y="-223"/>
      <point x="238" y="-223" type="curve" smooth="yes"/>
      <point x="172" y="-223"/>
      <point x="41" y="-155"/>
      <point x="41" y="-38" type="curve" smooth="yes"/>
      <point x="41" y="26"/>
      <point x="66" y="71"/>
      <point x="129" y="107" type="curve" smooth="yes"/>
      <point x="160" y="125"/>
      <point x="211" y="161"/>
      <point x="220" y="177" type="curve" smooth="yes"/>
      <point x="230" y="194"/>
      <point x="226" y="224"/>
      <point x="226" y="247" type="curve"/>
      <point x="230" y="255"/>
      <point x="233" y="259"/>
      <point x="242" y="260" type="curve"/>
      <point x="247" y="258"/>
      <point x="252" y="255"/>
      <point x="255" y="249" type="curve"/>
      <point x="260" y="228"/>
      <point x="263" y="185"/>
      <point x="263" y="158" type="curve" smooth="yes"/>
      <point x="263" y="84"/>
      <point x="215" y="58"/>
      <point x="178" y="34" type="curve" smooth="yes"/>
      <point x="129" y="3"/>
      <point x="91" y="-20"/>
      <point x="91" y="-68" type="curve" smooth="yes"/>
      <point x="91" y="-120"/>
      <point x="127" y="-150"/>
      <point x="165" y="-150" type="curve" smooth="yes"/>
      <point x="218" y="-150"/>
      <point x="225" y="-129"/>
      <point x="251" y="-129" type="curve" smooth="yes"/>
      <point x="265" y="-129"/>
      <point x="295" y="-146"/>
    </contour>
    <contour>
      <point x="178" y="374" type="curve" smooth="yes"/>
      <point x="178" y="404"/>
      <point x="202" y="430"/>
      <point x="232" y="430" type="curve" smooth="yes"/>
      <point x="262" y="430"/>
      <point x="288" y="404"/>
      <point x="288" y="374" type="curve" smooth="yes"/>
      <point x="288" y="344"/>
      <point x="262" y="320"/>
      <point x="232" y="320" type="curve" smooth="yes"/>
      <point x="202" y="320"/>
      <point x="178" y="344"/>
    </contour>
  </outline>
</glyph>
<glyph name="Aring" format="1">
  <advance width="627"/>
  <unicode hex="00C5"/>
  <outline>
    <contour>
      <point x="257" y="784" type="curve" smooth="yes"/>
      <point x="257" y="753"/>
      <point x="283" y="728"/>
      <point x="313" y="728" type="curve" smooth="yes"/>
      <point x="343" y="728"/>
      <point x="367" y="753"/>
      <point x="367" y="784" type="curve" smooth="yes"/>
      <point x="367" y="815"/>
      <point x="343" y="839"/>
      <point x="313" y="839" type="curve" smooth="yes"/>
      <point x="283" y="839"/>
      <point x="257" y="815"/>
    </contour>
    <contour>
      <point x="224" y="784" type="curve" smooth="yes"/>
      <point x="224" y="833"/>
      <point x="265" y="873"/>
      <point x="313" y="873" type="curve" smooth="yes"/>
      <point x="361" y="873"/>
      <point x="400" y="833"/>
      <point x="400" y="784" type="curve" smooth="yes"/>
      <point x="400" y="735"/>
      <point x="361" y="694"/>
      <point x="313" y="694" type="curve" smooth="yes"/>
      <point x="265" y="694"/>
      <point x="224" y="735"/>
    </contour>
    <contour>
      <point x="199" y="298" type="line"/>
      <point x="199" y="294"/>
      <point x="201" y="294" type="curve" smooth="yes"/>
      <point x="227" y="293"/>
      <point x="269" y="292"/>
      <point x="292" y="292" type="curve" smooth="yes"/>
      <point x="323" y="292"/>
      <point x="345" y="293"/>
      <point x="376" y="295" type="curve" smooth="yes"/>
      <point x="378" y="295"/>
      <point x="379" y="300"/>
      <point x="379" y="300" type="curve"/>
      <point x="291" y="542" type="line"/>
    </contour>
    <contour>
      <point x="-12" y="-3" type="curve" smooth="yes"/>
      <point x="-15" y="0"/>
      <point x="-15" y="19"/>
      <point x="-12" y="26" type="curve"/>
      <point x="0" y="26"/>
      <point x="38" y="32"/>
      <point x="48" y="45" type="curve" smooth="yes"/>
      <point x="68" y="71"/>
      <point x="81" y="103"/>
      <point x="95" y="139" type="curve" smooth="yes"/>
      <point x="95" y="139"/>
      <point x="227" y="478"/>
      <point x="288" y="634" type="curve" smooth="yes"/>
      <point x="293" y="644"/>
      <point x="317" y="663"/>
      <point x="326" y="663" type="curve" smooth="yes"/>
      <point x="329" y="663"/>
      <point x="329" y="661"/>
      <point x="332" y="660" type="curve" smooth="yes"/>
      <point x="536" y="126" type="line" smooth="yes"/>
      <point x="550" y="89"/>
      <point x="559" y="64"/>
      <point x="561" y="60" type="curve" smooth="yes"/>
      <point x="571" y="36"/>
      <point x="621" y="26"/>
      <point x="629" y="26" type="curve"/>
      <point x="634" y="19"/>
      <point x="632" y="0"/>
      <point x="631" y="-3" type="curve" smooth="yes"/>
      <point x="591" y="-1"/>
      <point x="565" y="2"/>
      <point x="521" y="2" type="curve" smooth="yes"/>
      <point x="475" y="2"/>
      <point x="451" y="-1"/>
      <point x="405" y="-3" type="curve"/>
      <point x="400" y="2"/>
      <point x="401" y="21"/>
      <point x="406" y="26" type="curve"/>
      <point x="418" y="26"/>
      <point x="453" y="31"/>
      <point x="462" y="39" type="curve" smooth="yes"/>
      <point x="465" y="42"/>
      <point x="466" y="47"/>
      <point x="466" y="53" type="curve" smooth="yes"/>
      <point x="466" y="83"/>
      <point x="398" y="248"/>
      <point x="398" y="248" type="curve"/>
      <point x="398" y="248"/>
      <point x="395" y="252"/>
      <point x="392" y="252" type="curve" smooth="yes"/>
      <point x="366" y="254"/>
      <point x="318" y="253"/>
      <point x="293" y="253" type="curve" smooth="yes"/>
      <point x="252" y="253"/>
      <point x="230" y="253"/>
      <point x="185" y="250" type="curve" smooth="yes"/>
      <point x="183" y="250"/>
      <point x="180" y="247"/>
      <point x="180" y="247" type="curve"/>
      <point x="180" y="247"/>
      <point x="152" y="173"/>
      <point x="135" y="125" type="curve" smooth="yes"/>
      <point x="123" y="90"/>
      <point x="121" y="67"/>
      <point x="121" y="54" type="curve" smooth="yes"/>
      <point x="121" y="30"/>
      <point x="182" y="26"/>
      <point x="190" y="26" type="curve" smooth="yes"/>
      <point x="193" y="23"/>
      <point x="194" y="3"/>
      <point x="192" y="-3" type="curve"/>
      <point x="152" y="-1"/>
      <point x="139" y="2"/>
      <point x="95" y="2" type="curve" smooth="yes"/>
      <point x="49" y="2"/>
      <point x="34" y="-1"/>
    </contour>
  </outline>
</glyph>
<glyph name="Ccedilla" format="1">
  <advance width="674"/>
  <unicode hex="00C7"/>
  <outline>
    <contour>
      <point x="307" y="-147" type="curve" smooth="yes"/>
      <point x="307" y="-139"/>
      <point x="317" y="-131"/>
      <point x="324" y="-131" type="curve" smooth="yes"/>
      <point x="338" y="-131"/>
      <point x="348" y="-146"/>
      <point x="367" y="-146" type="curve" smooth="yes"/>
      <point x="400" y="-146"/>
      <point x="418" y="-127"/>
      <point x="418" y="-107" type="curve" smooth="yes"/>
      <point x="418" y="-79"/>
      <point x="397" y="-67"/>
      <point x="382" y="-67" type="curve" smooth="yes"/>
      <point x="369" y="-67"/>
      <point x="363" y="-70"/>
      <point x="351" y="-75" type="curve" smooth="yes"/>
      <point x="349" y="-75"/>
      <point x="337" y="-65"/>
      <point x="339" y="-60" type="curve" smooth="yes"/>
      <point x="348.788" y="-43.9827"/>
      <point x="364.12" y="-22.4226"/>
      <point x="373.72" y="-5.88881" type="curve"/>
      <point x="180.763" y="-1.25188"/>
      <point x="49" y="147.779"/>
      <point x="49" y="322" type="curve" smooth="yes"/>
      <point x="49" y="509"/>
      <point x="190" y="667"/>
      <point x="387" y="667" type="curve" smooth="yes"/>
      <point x="453" y="667"/>
      <point x="525" y="662"/>
      <point x="599" y="646" type="curve"/>
      <point x="599" y="646"/>
      <point x="622" y="508"/>
      <point x="622" y="498" type="curve" smooth="yes"/>
      <point x="623" y="492"/>
      <point x="610" y="485"/>
      <point x="600" y="485" type="curve" smooth="yes"/>
      <point x="594" y="485"/>
      <point x="591" y="486"/>
      <point x="588" y="488" type="curve" smooth="yes"/>
      <point x="582" y="519"/>
      <point x="559" y="634"/>
      <point x="392" y="634" type="curve" smooth="yes"/>
      <point x="244" y="634"/>
      <point x="148" y="483"/>
      <point x="148" y="343" type="curve" smooth="yes"/>
      <point x="148" y="187"/>
      <point x="234" y="27"/>
      <point x="408" y="27" type="curve" smooth="yes"/>
      <point x="469" y="27"/>
      <point x="511" y="49"/>
      <point x="540" y="75" type="curve" smooth="yes"/>
      <point x="579" y="110"/>
      <point x="594" y="158"/>
      <point x="601" y="191" type="curve"/>
      <point x="611" y="192"/>
      <point x="624" y="189"/>
      <point x="633" y="183" type="curve"/>
      <point x="633" y="163"/>
      <point x="612" y="51"/>
      <point x="598" y="39" type="curve" smooth="yes"/>
      <point x="545.869" y="9.61728"/>
      <point x="482.06" y="-4.49296"/>
      <point x="397.205" y="-5.88526" type="curve"/>
      <point x="380" y="-27" type="line"/>
      <point x="410" y="-27" type="line" smooth="yes"/>
      <point x="441" y="-27"/>
      <point x="462" y="-54"/>
      <point x="462" y="-85" type="curve" smooth="yes"/>
      <point x="462" y="-140"/>
      <point x="412" y="-174"/>
      <point x="351" y="-174" type="curve" smooth="yes"/>
      <point x="337" y="-174"/>
      <point x="318" y="-169"/>
      <point x="311" y="-164" type="curve"/>
      <point x="310" y="-158"/>
      <point x="307" y="-154"/>
    </contour>
  </outline>
</glyph>
<glyph name="Thorn" format="1">
  <advance width="548"/>
  <unicode hex="00DE"/>
  <outline>
    <contour>
      <point x="45" y="-3" type="curve"/>
      <point x="40" y="2"/>
      <point x="41" y="21"/>
      <point x="45" y="26" type="curve"/>
      <point x="57" y="26"/>
      <point x="111" y="31"/>
      <point x="114" y="42" type="curve" smooth="yes"/>
      <point x="119" y="58"/>
      <point x="119" y="86"/>
      <point x="119" y="116" type="curve" smooth="yes"/>
      <point x="119" y="543" type="line" smooth="yes"/>
      <point x="119" y="573"/>
      <point x="119" y="601"/>
      <point x="114" y="617" type="curve" smooth="yes"/>
      <point x="111" y="628"/>
      <point x="57" y="633"/>
      <point x="45" y="633" type="curve"/>
      <point x="41" y="638"/>
      <point x="40" y="657"/>
      <point x="45" y="662" type="curve"/>
      <point x="86" y="660"/>
      <point x="124" y="657"/>
      <point x="163" y="657" type="curve" smooth="yes"/>
      <point x="202" y="657"/>
      <point x="239" y="660"/>
      <point x="280" y="662" type="curve"/>
      <point x="285" y="657"/>
      <point x="284" y="638"/>
      <point x="280" y="633" type="curve"/>
      <point x="268" y="633"/>
      <point x="214" y="628"/>
      <point x="211" y="617" type="curve" smooth="yes"/>
      <point x="206" y="601"/>
      <point x="206" y="573"/>
      <point x="206" y="543" type="curve" smooth="yes"/>
      <point x="206" y="480" type="line"/>
      <point x="243" y="506"/>
      <point x="308" y="509"/>
      <point x="325" y="509" type="curve" smooth="yes"/>
      <point x="406" y="509"/>
      <point x="518" y="445"/>
      <point x="518" y="329" type="curve" smooth="yes"/>
      <point x="518" y="207"/>
      <point x="429" y="128"/>
      <point x="298" y="128" type="curve" smooth="yes"/>
      <point x="287" y="128"/>
      <point x="265" y="131"/>
      <point x="255" y="136" type="curve" smooth="yes"/>
      <point x="252" y="138"/>
      <point x="241" y="146"/>
      <point x="241" y="158" type="curve" smooth="yes"/>
      <point x="241" y="160"/>
      <point x="242" y="164"/>
      <point x="246" y="163" type="curve"/>
      <point x="257" y="160"/>
      <point x="269" y="156"/>
      <point x="284" y="156" type="curve" smooth="yes"/>
      <point x="364" y="156"/>
      <point x="426" y="212"/>
      <point x="426" y="312" type="curve" smooth="yes"/>
      <point x="426" y="411"/>
      <point x="370" y="470"/>
      <point x="288" y="470" type="curve" smooth="yes"/>
      <point x="276" y="470"/>
      <point x="229" y="464"/>
      <point x="214" y="440" type="curve" smooth="yes"/>
      <point x="207" y="429"/>
      <point x="206" y="390"/>
      <point x="206" y="360" type="curve" smooth="yes"/>
      <point x="206" y="116" type="line" smooth="yes"/>
      <point x="206" y="86"/>
      <point x="206" y="58"/>
      <point x="211" y="42" type="curve" smooth="yes"/>
      <point x="214" y="31"/>
      <point x="268" y="26"/>
      <point x="280" y="26" type="curve"/>
      <point x="284" y="21"/>
      <point x="285" y="2"/>
      <point x="280" y="-3" type="curve"/>
      <point x="239" y="-1"/>
      <point x="202" y="2"/>
      <point x="163" y="2" type="curve" smooth="yes"/>
      <point x="124" y="2"/>
      <point x="86" y="-1"/>
    </contour>
  </outline>
</glyph>
<glyph name="ae" format="1">
  <advance width="653"/>
  <unicode hex="00E6"/>
  <outline>
    <contour>
      <point x="37" y="107" type="curve" smooth="yes"/>
      <point x="37" y="148"/>
      <point x="60" y="174"/>
      <point x="83" y="186" type="curve" smooth="yes"/>
      <point x="131" y="210"/>
      <point x="220" y="243"/>
      <point x="249" y="256" type="curve" smooth="yes"/>
      <point x="259" y="260"/>
      <point x="261" y="262"/>
      <point x="263" y="270" type="curve" smooth="yes"/>
      <point x="265" y="279"/>
      <point x="265" y="290"/>
      <point x="265" y="302" type="curve" smooth="yes"/>
      <point x="265" y="347"/>
      <point x="237" y="398"/>
      <point x="188" y="398" type="curve" smooth="yes"/>
      <point x="153" y="398"/>
      <point x="140" y="374"/>
      <point x="133" y="335" type="curve" smooth="yes"/>
      <point x="127" y="301"/>
      <point x="111" y="288"/>
      <point x="86" y="288" type="curve" smooth="yes"/>
      <point x="65" y="288"/>
      <point x="52" y="310"/>
      <point x="52" y="330" type="curve" smooth="yes"/>
      <point x="52" y="338"/>
      <point x="56" y="350"/>
      <point x="59" y="354" type="curve"/>
      <point x="83" y="377"/>
      <point x="166" y="436"/>
      <point x="239" y="436" type="curve" smooth="yes"/>
      <point x="282" y="436"/>
      <point x="315" y="406"/>
      <point x="332" y="374" type="curve"/>
      <point x="356" y="400"/>
      <point x="403" y="438"/>
      <point x="460" y="438" type="curve" smooth="yes"/>
      <point x="580" y="438"/>
      <point x="610" y="342"/>
      <point x="610" y="302" type="curve" smooth="yes"/>
      <point x="610" y="273"/>
      <point x="605" y="256"/>
      <point x="586" y="255" type="curve" smooth="yes"/>
      <point x="555" y="253"/>
      <point x="346" y="248"/>
      <point x="334" y="248" type="curve"/>
      <point x="331" y="120"/>
      <point x="409" y="56"/>
      <point x="497" y="56" type="curve" smooth="yes"/>
      <point x="552" y="56"/>
      <point x="594" y="94"/>
      <point x="607" y="109" type="curve"/>
      <point x="608" y="109"/>
      <point x="615" y="103"/>
      <point x="615" y="95" type="curve" smooth="yes"/>
      <point x="615" y="90"/>
      <point x="612" y="82"/>
      <point x="609" y="77" type="curve" smooth="yes"/>
      <point x="591" y="48"/>
      <point x="541" y="-8"/>
      <point x="463" y="-8" type="curve" smooth="yes"/>
      <point x="402" y="-8"/>
      <point x="332" y="20"/>
      <point x="298" y="77" type="curve"/>
      <point x="274" y="52"/>
      <point x="189" y="-8"/>
      <point x="154" y="-8" type="curve" smooth="yes"/>
      <point x="88" y="-8"/>
      <point x="37" y="42"/>
    </contour>
    <contour>
      <point x="120" y="116" type="curve" smooth="yes"/>
      <point x="120" y="79"/>
      <point x="149" y="46"/>
      <point x="187" y="46" type="curve" smooth="yes"/>
      <point x="220" y="46"/>
      <point x="279" y="93"/>
      <point x="279" y="104" type="curve"/>
      <point x="271" y="122"/>
      <point x="264" y="163"/>
      <point x="261" y="193" type="curve" smooth="yes"/>
      <point x="260" y="204"/>
      <point x="259" y="213"/>
      <point x="259" y="220" type="curve"/>
      <point x="233" y="211"/>
      <point x="198" y="200"/>
      <point x="181" y="194" type="curve" smooth="yes"/>
      <point x="145" y="181"/>
      <point x="120" y="154"/>
    </contour>
    <contour>
      <point x="339" y="285" type="curve"/>
      <point x="502" y="285" type="line" smooth="yes"/>
      <point x="514" y="285"/>
      <point x="524" y="290"/>
      <point x="525" y="308" type="curve" smooth="yes"/>
      <point x="526" y="332"/>
      <point x="504" y="402"/>
      <point x="443" y="402" type="curve" smooth="yes"/>
      <point x="359" y="402"/>
      <point x="337" y="285"/>
    </contour>
  </outline>
</glyph>
<glyph name="ccedilla" format="1">
  <advance width="423"/>
  <unicode hex="00E7"/>
  <outline>
    <contour>
      <point x="39" y="194" type="curve" smooth="yes"/>
      <point x="39" y="340"/>
      <point x="178" y="438"/>
      <point x="282" y="438" type="curve" smooth="yes"/>
      <point x="317" y="438"/>
      <point x="348" y="430"/>
      <point x="372" y="414" type="curve" smooth="yes"/>
      <point x="376" y="410"/>
      <point x="382" y="396"/>
      <point x="382" y="386" type="curve" smooth="yes"/>
      <point x="382" y="350"/>
      <point x="361" y="338"/>
      <point x="344" y="338" type="curve" smooth="yes"/>
      <point x="322" y="338"/>
      <point x="303" y="364"/>
      <point x="286" y="375" type="curve" smooth="yes"/>
      <point x="265" y="389"/>
      <point x="255" y="394"/>
      <point x="229" y="394" type="curve" smooth="yes"/>
      <point x="176" y="394"/>
      <point x="117" y="332"/>
      <point x="117" y="227" type="curve" smooth="yes"/>
      <point x="117" y="110"/>
      <point x="189" y="58"/>
      <point x="279" y="58" type="curve" smooth="yes"/>
      <point x="334" y="58"/>
      <point x="372" y="94"/>
      <point x="385" y="109" type="curve" smooth="yes"/>
      <point x="386" y="109"/>
      <point x="393" y="103"/>
      <point x="393" y="95" type="curve" smooth="yes"/>
      <point x="393" y="90"/>
      <point x="390" y="82"/>
      <point x="387" y="77" type="curve" smooth="yes"/>
      <point x="369.948" y="49.5279"/>
      <point x="324.18" y="-2.17421"/>
      <point x="253.095" y="-7.54582" type="curve"/>
      <point x="241" y="-23" type="line"/>
      <point x="266" y="-23" type="line" smooth="yes"/>
      <point x="292" y="-23"/>
      <point x="310" y="-46"/>
      <point x="310" y="-72" type="curve" smooth="yes"/>
      <point x="310" y="-119"/>
      <point x="268" y="-148"/>
      <point x="216" y="-148" type="curve" smooth="yes"/>
      <point x="204" y="-148"/>
      <point x="188" y="-143"/>
      <point x="182" y="-139" type="curve" smooth="yes"/>
      <point x="181" y="-134"/>
      <point x="179" y="-131"/>
      <point x="179" y="-125" type="curve" smooth="yes"/>
      <point x="179" y="-118"/>
      <point x="187" y="-111"/>
      <point x="193" y="-111" type="curve" smooth="yes"/>
      <point x="205" y="-111"/>
      <point x="214" y="-124"/>
      <point x="230" y="-124" type="curve" smooth="yes"/>
      <point x="258" y="-124"/>
      <point x="273" y="-108"/>
      <point x="273" y="-91" type="curve" smooth="yes"/>
      <point x="273" y="-67"/>
      <point x="255" y="-57"/>
      <point x="242" y="-57" type="curve" smooth="yes"/>
      <point x="231" y="-57"/>
      <point x="226" y="-60"/>
      <point x="216" y="-64" type="curve" smooth="yes"/>
      <point x="214" y="-64"/>
      <point x="204" y="-55"/>
      <point x="206" y="-51" type="curve" smooth="yes"/>
      <point x="213.45" y="-38.5829"/>
      <point x="225.012" y="-21.3689"/>
      <point x="233.311" y="-7.86709" type="curve"/>
      <point x="116.581" y="-3.81599"/>
      <point x="39" y="92.2186"/>
    </contour>
  </outline>
</glyph>
<glyph name="eth" format="1">
  <advance width="517"/>
  <unicode hex="00F0"/>
  <outline>
    <contour>
      <point x="126" y="227" type="curve" smooth="yes"/>
      <point x="126" y="129"/>
      <point x="178" y="26"/>
      <point x="259" y="26" type="curve" smooth="yes"/>
      <point x="338" y="26"/>
      <point x="375" y="104"/>
      <point x="375" y="202" type="curve" smooth="yes"/>
      <point x="375" y="257"/>
      <point x="366" y="308"/>
      <point x="355" y="329" type="curve" smooth="yes"/>
      <point x="327" y="382"/>
      <point x="288" y="406"/>
      <point x="234" y="406" type="curve" smooth="yes"/>
      <point x="154" y="406"/>
      <point x="126" y="319"/>
    </contour>
    <contour>
      <point x="40" y="211" type="curve" smooth="yes"/>
      <point x="40" y="319"/>
      <point x="108" y="439"/>
      <point x="247" y="439" type="curve" smooth="yes"/>
      <point x="276" y="439"/>
      <point x="312" y="435"/>
      <point x="332" y="423" type="curve"/>
      <point x="317.031" y="461.4"/>
      <point x="294.013" y="519.709"/>
      <point x="228.484" y="576.699" type="curve"/>
      <point x="128" y="509" type="line"/>
      <point x="121" y="514"/>
      <point x="104" y="535"/>
      <point x="111" y="541" type="curve" smooth="yes"/>
      <point x="198.912" y="600.107" type="line"/>
      <point x="167.851" y="622.528"/>
      <point x="129.276" y="644.274"/>
      <point x="81" y="664" type="curve"/>
      <point x="81" y="671"/>
      <point x="87" y="688"/>
      <point x="95" y="688" type="curve" smooth="yes"/>
      <point x="141.352" y="677.344"/>
      <point x="189.691" y="655.335"/>
      <point x="235.48" y="624.693" type="curve"/>
      <point x="346" y="699" type="line"/>
      <point x="354" y="694"/>
      <point x="371" y="674"/>
      <point x="364" y="668" type="curve" smooth="yes"/>
      <point x="266.493" y="602.307" type="line"/>
      <point x="295.247" y="579.986"/>
      <point x="322.493" y="554.303"/>
      <point x="347" y="526" type="curve" smooth="yes"/>
      <point x="415" y="448"/>
      <point x="462" y="349"/>
      <point x="462" y="247" type="curve" smooth="yes"/>
      <point x="462" y="85"/>
      <point x="361" y="-7"/>
      <point x="256" y="-7" type="curve" smooth="yes"/>
      <point x="120" y="-7"/>
      <point x="40" y="91"/>
    </contour>
  </outline>
</glyph>
<glyph name="divide" format="1">
  <advance width="599"/>
  <unicode hex="00F7"/>
  <outline>
    <contour>
      <point x="60" y="229" type="curve" smooth="yes"/>
      <point x="60" y="233"/>
      <point x="66" y="267"/>
      <point x="77" y="275" type="curve"/>
      <point x="531" y="275" type="line" smooth="yes"/>
      <point x="535" y="275"/>
      <point x="540" y="271"/>
      <point x="540" y="263" type="curve" smooth="yes"/>
      <point x="540" y="247"/>
      <point x="532" y="227"/>
      <point x="524" y="219" type="curve"/>
      <point x="66" y="219" type="line"/>
      <point x="66" y="219"/>
      <point x="60" y="219"/>
    </contour>
    <component base="uni0307" xOffset="302" yOffset="-110"/>
    <component base="uni0307" xOffset="302" yOffset="-493"/>
  </outline>
</glyph>
<glyph name="oslash" format="1">
  <advance width="509"/>
  <unicode hex="00F8"/>
  <outline>
    <contour>
      <point x="42" y="213" type="curve" smooth="yes"/>
      <point x="42" y="342"/>
      <point x="134" y="439"/>
      <point x="255" y="439" type="curve" smooth="yes"/>
      <point x="294.23" y="439"/>
      <point x="329.044" y="430.786"/>
      <point x="358.601" y="415.958" type="curve"/>
      <point x="372" y="437" type="line"/>
      <point x="379" y="434"/>
      <point x="402" y="423"/>
      <point x="399" y="417" type="curve" smooth="yes"/>
      <point x="387.179" y="398.393" type="line"/>
      <point x="439.415" y="359.62"/>
      <point x="469" y="296.083"/>
      <point x="469" y="221" type="curve" smooth="yes"/>
      <point x="469" y="92"/>
      <point x="378" y="-7"/>
      <point x="257" y="-7" type="curve" smooth="yes"/>
      <point x="214.886" y="-7"/>
      <point x="177.759" y="2.67022"/>
      <point x="146.725" y="19.8997" type="curve"/>
      <point x="129" y="-8" type="line"/>
      <point x="121" y="-4"/>
      <point x="99" y="7"/>
      <point x="102" y="13" type="curve" smooth="yes"/>
      <point x="118.524" y="38.9484" type="line"/>
      <point x="69.692" y="78.6055"/>
      <point x="42" y="140.798"/>
    </contour>
    <contour>
      <point x="326.827" y="366.062" type="line"/>
      <point x="305.04" y="390.516"/>
      <point x="277.24" y="406"/>
      <point x="244" y="406" type="curve" smooth="yes"/>
      <point x="159" y="406"/>
      <point x="128" y="319"/>
      <point x="128" y="233" type="curve" smooth="yes"/>
      <point x="128" y="188.079"/>
      <point x="138.509" y="140.37"/>
      <point x="158.732" y="102.09" type="curve"/>
    </contour>
    <contour>
      <point x="347.918" y="336.594" type="curve"/>
      <point x="179.164" y="70.9621" type="line"/>
      <point x="201.536" y="43.6146"/>
      <point x="230.985" y="26"/>
      <point x="267" y="26" type="curve" smooth="yes"/>
      <point x="352" y="26"/>
      <point x="383" y="113"/>
      <point x="383" y="198" type="curve" smooth="yes"/>
      <point x="383" y="245.781"/>
      <point x="370.868" y="296.959"/>
    </contour>
  </outline>
</glyph>
<glyph name="Aogonek" format="1">
  <advance width="627"/>
  <unicode hex="0104"/>
  <outline>
    <contour>
      <point x="-12" y="-3" type="curve"/>
      <point x="-15" y="0"/>
      <point x="-15" y="19"/>
      <point x="-12" y="26" type="curve"/>
      <point x="0" y="26"/>
      <point x="38" y="32"/>
      <point x="48" y="45" type="curve" smooth="yes"/>
      <point x="68" y="71"/>
      <point x="81" y="103"/>
      <point x="95" y="139" type="curve" smooth="yes"/>
      <point x="95" y="139"/>
      <point x="227" y="478"/>
      <point x="288" y="634" type="curve"/>
      <point x="293" y="644"/>
      <point x="317" y="663"/>
      <point x="326" y="663" type="curve" smooth="yes"/>
      <point x="329" y="663"/>
      <point x="329" y="661"/>
      <point x="332" y="660" type="curve"/>
      <point x="536" y="126" type="line" smooth="yes"/>
      <point x="550" y="89"/>
      <point x="559" y="64"/>
      <point x="561" y="60" type="curve" smooth="yes"/>
      <point x="571" y="36"/>
      <point x="621" y="26"/>
      <point x="629" y="26" type="curve"/>
      <point x="634" y="19"/>
      <point x="632" y="0"/>
      <point x="631" y="-3" type="curve"/>
      <point x="603" y="-2"/>
      <point x="583" y="0"/>
      <point x="559" y="1" type="curve"/>
      <point x="515" y="-25"/>
      <point x="456" y="-77"/>
      <point x="456" y="-121" type="curve" smooth="yes"/>
      <point x="456" y="-136"/>
      <point x="463" y="-164"/>
      <point x="497" y="-164" type="curve" smooth="yes"/>
      <point x="548" y="-164"/>
      <point x="572" y="-126"/>
      <point x="578" y="-126" type="curve" smooth="yes"/>
      <point x="579" y="-126"/>
      <point x="583" y="-131"/>
      <point x="583" y="-139" type="curve" smooth="yes"/>
      <point x="583" y="-144"/>
      <point x="581" y="-153"/>
      <point x="578" y="-157" type="curve" smooth="yes"/>
      <point x="556" y="-186"/>
      <point x="518" y="-223"/>
      <point x="473" y="-223" type="curve" smooth="yes"/>
      <point x="417" y="-223"/>
      <point x="402" y="-173"/>
      <point x="402" y="-146" type="curve" smooth="yes"/>
      <point x="402" y="-91"/>
      <point x="460" y="-32"/>
      <point x="514" y="2" type="curve"/>
      <point x="513" y="2"/>
      <point x="513" y="2"/>
      <point x="512" y="2" type="curve" smooth="yes"/>
      <point x="472" y="2"/>
      <point x="447" y="-1"/>
      <point x="405" y="-3" type="curve"/>
      <point x="400" y="2"/>
      <point x="401" y="21"/>
      <point x="406" y="26" type="curve"/>
      <point x="418" y="26"/>
      <point x="453" y="31"/>
      <point x="462" y="39" type="curve" smooth="yes"/>
      <point x="465" y="42"/>
      <point x="466" y="47"/>
      <point x="466" y="53" type="curve" smooth="yes"/>
      <point x="466" y="83"/>
      <point x="398" y="248"/>
      <point x="398" y="248" type="curve"/>
      <point x="398" y="248"/>
      <point x="395" y="252"/>
      <point x="392" y="252" type="curve" smooth="yes"/>
      <point x="366" y="254"/>
      <point x="318" y="253"/>
      <point x="293" y="253" type="curve" smooth="yes"/>
      <point x="252" y="253"/>
      <point x="230" y="253"/>
      <point x="185" y="250" type="curve" smooth="yes"/>
      <point x="183" y="250"/>
      <point x="180" y="247"/>
      <point x="180" y="247" type="curve"/>
      <point x="180" y="247"/>
      <point x="152" y="173"/>
      <point x="135" y="125" type="curve" smooth="yes"/>
      <point x="123" y="90"/>
      <point x="121" y="67"/>
      <point x="121" y="54" type="curve" smooth="yes"/>
      <point x="122" y="30"/>
      <point x="182" y="26"/>
      <point x="190" y="26" type="curve"/>
      <point x="193" y="23"/>
      <point x="194" y="3"/>
      <point x="192" y="-3" type="curve"/>
      <point x="152" y="-1"/>
      <point x="138" y="2"/>
      <point x="95" y="2" type="curve" smooth="yes"/>
      <point x="49" y="2"/>
      <point x="34" y="-1"/>
    </contour>
    <contour>
      <point x="199" y="298" type="line"/>
      <point x="199" y="298"/>
      <point x="199" y="294"/>
      <point x="201" y="294" type="curve" smooth="yes"/>
      <point x="227" y="293"/>
      <point x="269" y="292"/>
      <point x="292" y="292" type="curve" smooth="yes"/>
      <point x="323" y="292"/>
      <point x="345" y="293"/>
      <point x="376" y="295" type="curve" smooth="yes"/>
      <point x="378" y="295"/>
      <point x="379" y="300"/>
      <point x="379" y="300" type="curve"/>
      <point x="291" y="542" type="line"/>
    </contour>
  </outline>
</glyph>
<glyph name="aogonek" format="1">
  <advance width="431"/>
  <unicode hex="0105"/>
  <outline>
    <contour>
      <point x="37" y="107" type="curve" smooth="yes"/>
      <point x="37" y="148"/>
      <point x="65" y="179"/>
      <point x="87" y="187" type="curve" smooth="yes"/>
      <point x="143" y="207"/>
      <point x="233" y="237"/>
      <point x="262" y="250" type="curve" smooth="yes"/>
      <point x="272" y="254"/>
      <point x="274" y="257"/>
      <point x="274" y="275" type="curve" smooth="yes"/>
      <point x="274" y="302" type="line" smooth="yes"/>
      <point x="274" y="347"/>
      <point x="237" y="398"/>
      <point x="188" y="398" type="curve" smooth="yes"/>
      <point x="153" y="398"/>
      <point x="140" y="375"/>
      <point x="133" y="336" type="curve" smooth="yes"/>
      <point x="127" y="302"/>
      <point x="111" y="288"/>
      <point x="86" y="288" type="curve" smooth="yes"/>
      <point x="65" y="288"/>
      <point x="52" y="310"/>
      <point x="52" y="330" type="curve" smooth="yes"/>
      <point x="52" y="334"/>
      <point x="55" y="349"/>
      <point x="59" y="354" type="curve"/>
      <point x="90" y="383"/>
      <point x="168" y="436"/>
      <point x="241" y="436" type="curve" smooth="yes"/>
      <point x="298" y="436"/>
      <point x="350" y="376"/>
      <point x="350" y="299" type="curve" smooth="yes"/>
      <point x="350" y="93" type="line" smooth="yes"/>
      <point x="350" y="66"/>
      <point x="358" y="46"/>
      <point x="381" y="46" type="curve" smooth="yes"/>
      <point x="399" y="46"/>
      <point x="411" y="57"/>
      <point x="414" y="59" type="curve"/>
      <point x="417" y="59"/>
      <point x="418" y="54"/>
      <point x="418" y="51" type="curve" smooth="yes"/>
      <point x="418" y="45"/>
      <point x="416" y="37"/>
      <point x="413" y="32" type="curve"/>
      <point x="403" y="25"/>
      <point x="389" y="15"/>
      <point x="377" y="7" type="curve" smooth="yes"/>
      <point x="339" y="-20"/>
      <point x="264" y="-67"/>
      <point x="264" y="-121" type="curve" smooth="yes"/>
      <point x="264" y="-136"/>
      <point x="271" y="-164"/>
      <point x="305" y="-164" type="curve" smooth="yes"/>
      <point x="356" y="-164"/>
      <point x="380" y="-126"/>
      <point x="386" y="-126" type="curve" smooth="yes"/>
      <point x="387" y="-126"/>
      <point x="391" y="-131"/>
      <point x="391" y="-139" type="curve" smooth="yes"/>
      <point x="391" y="-144"/>
      <point x="389" y="-153"/>
      <point x="386" y="-157" type="curve" smooth="yes"/>
      <point x="364" y="-186"/>
      <point x="326" y="-223"/>
      <point x="281" y="-223" type="curve" smooth="yes"/>
      <point x="225" y="-223"/>
      <point x="210" y="-173"/>
      <point x="210" y="-146" type="curve" smooth="yes"/>
      <point x="210" y="-102"/>
      <point x="265" y="-37"/>
      <point x="313" y="1" type="curve"/>
      <point x="296" y="11"/>
      <point x="279" y="35"/>
      <point x="277" y="59" type="curve"/>
      <point x="265" y="47"/>
      <point x="189" y="-8"/>
      <point x="154" y="-8" type="curve" smooth="yes"/>
      <point x="88" y="-8"/>
      <point x="37" y="42"/>
    </contour>
    <contour>
      <point x="120" y="116" type="curve" smooth="yes"/>
      <point x="120" y="79"/>
      <point x="149" y="46"/>
      <point x="187" y="46" type="curve" smooth="yes"/>
      <point x="222" y="46"/>
      <point x="274" y="77"/>
      <point x="274" y="87" type="curve" smooth="yes"/>
      <point x="274" y="223" type="line"/>
      <point x="247" y="215"/>
      <point x="199" y="201"/>
      <point x="181" y="194" type="curve" smooth="yes"/>
      <point x="145" y="180"/>
      <point x="120" y="154"/>
    </contour>
  </outline>
</glyph>
<glyph name="eogonek" format="1">
  <advance width="431"/>
  <unicode hex="0119"/>
  <outline>
    <contour>
      <point x="40" y="200" type="curve" smooth="yes"/>
      <point x="40" y="334"/>
      <point x="149" y="438"/>
      <point x="237" y="438" type="curve" smooth="yes"/>
      <point x="357" y="438"/>
      <point x="387" y="342"/>
      <point x="387" y="302" type="curve" smooth="yes"/>
      <point x="387" y="273"/>
      <point x="382" y="256"/>
      <point x="363" y="255" type="curve" smooth="yes"/>
      <point x="332" y="253"/>
      <point x="123" y="248"/>
      <point x="111" y="248" type="curve"/>
      <point x="108" y="120"/>
      <point x="186" y="56"/>
      <point x="274" y="56" type="curve" smooth="yes"/>
      <point x="329" y="56"/>
      <point x="371" y="94"/>
      <point x="384" y="109" type="curve" smooth="yes"/>
      <point x="385" y="109"/>
      <point x="392" y="103"/>
      <point x="392" y="95" type="curve" smooth="yes"/>
      <point x="392" y="90"/>
      <point x="389" y="82"/>
      <point x="386" y="77" type="curve" smooth="yes"/>
      <point x="377" y="63"/>
      <point x="359" y="43"/>
      <point x="338" y="25" type="curve" smooth="yes"/>
      <point x="288" y="-17"/>
      <point x="240" y="-64"/>
      <point x="240" y="-122" type="curve" smooth="yes"/>
      <point x="240" y="-137"/>
      <point x="247" y="-165"/>
      <point x="281" y="-165" type="curve" smooth="yes"/>
      <point x="332" y="-165"/>
      <point x="356" y="-127"/>
      <point x="362" y="-127" type="curve" smooth="yes"/>
      <point x="363" y="-127"/>
      <point x="366" y="-132"/>
      <point x="366" y="-140" type="curve" smooth="yes"/>
      <point x="366" y="-145"/>
      <point x="365" y="-154"/>
      <point x="362" y="-158" type="curve" smooth="yes"/>
      <point x="340" y="-187"/>
      <point x="302" y="-224"/>
      <point x="257" y="-224" type="curve" smooth="yes"/>
      <point x="201" y="-224"/>
      <point x="186" y="-174"/>
      <point x="186" y="-147" type="curve" smooth="yes"/>
      <point x="186" y="-107"/>
      <point x="224" y="-46"/>
      <point x="264" y="-6" type="curve"/>
      <point x="256" y="-7"/>
      <point x="248" y="-8"/>
      <point x="240" y="-8" type="curve" smooth="yes"/>
      <point x="122" y="-8"/>
      <point x="40" y="82"/>
    </contour>
    <contour>
      <point x="116" y="285" type="curve" smooth="yes"/>
      <point x="279" y="285" type="line" smooth="yes"/>
      <point x="291" y="285"/>
      <point x="301" y="290"/>
      <point x="302" y="308" type="curve" smooth="yes"/>
      <point x="303" y="332"/>
      <point x="281" y="402"/>
      <point x="220" y="402" type="curve" smooth="yes"/>
      <point x="136" y="402"/>
      <point x="114" y="285"/>
    </contour>
  </outline>
</glyph>
<glyph name="Iogonek" format="1">
  <advance width="328"/>
  <unicode hex="012E"/>
  <outline>
    <contour>
      <point x="42" y="12" type="curve" smooth="yes"/>
      <point x="42" y="18"/>
      <point x="44" y="26"/>
      <point x="46" y="26" type="curve" smooth="yes"/>
      <point x="58" y="26"/>
      <point x="108" y="34"/>
      <point x="113" y="46" type="curve"/>
      <point x="119" y="69"/>
      <point x="120" y="117"/>
      <point x="120" y="135" type="curve" smooth="yes"/>
      <point x="120" y="523" type="line" smooth="yes"/>
      <point x="120" y="541"/>
      <point x="119" y="589"/>
      <point x="113" y="612" type="curve"/>
      <point x="108" y="624"/>
      <point x="58" y="633"/>
      <point x="46" y="633" type="curve" smooth="yes"/>
      <point x="44" y="633"/>
      <point x="42" y="640"/>
      <point x="42" y="646" type="curve" smooth="yes"/>
      <point x="42" y="652"/>
      <point x="44" y="660"/>
      <point x="46" y="662" type="curve"/>
      <point x="92" y="660"/>
      <point x="120" y="657"/>
      <point x="166" y="657" type="curve" smooth="yes"/>
      <point x="210" y="657"/>
      <point x="242" y="660"/>
      <point x="282" y="662" type="curve"/>
      <point x="283" y="659"/>
      <point x="284" y="652"/>
      <point x="284" y="647" type="curve" smooth="yes"/>
      <point x="284" y="641"/>
      <point x="283" y="633"/>
      <point x="280" y="633" type="curve" smooth="yes"/>
      <point x="272" y="633"/>
      <point x="219" y="623"/>
      <point x="216" y="612" type="curve" smooth="yes"/>
      <point x="209" y="585"/>
      <point x="207" y="555"/>
      <point x="207" y="519" type="curve" smooth="yes"/>
      <point x="207" y="139" type="line" smooth="yes"/>
      <point x="207" y="103"/>
      <point x="209" y="73"/>
      <point x="216" y="46" type="curve" smooth="yes"/>
      <point x="219" y="35"/>
      <point x="272" y="26"/>
      <point x="280" y="26" type="curve" smooth="yes"/>
      <point x="283" y="26"/>
      <point x="284" y="17"/>
      <point x="284" y="11" type="curve" smooth="yes"/>
      <point x="284" y="6"/>
      <point x="283" y="0"/>
      <point x="282" y="-3" type="curve"/>
      <point x="264" y="-2"/>
      <point x="245" y="-1"/>
      <point x="229" y="0" type="curve"/>
      <point x="185" y="-26"/>
      <point x="122" y="-78"/>
      <point x="122" y="-122" type="curve" smooth="yes"/>
      <point x="122" y="-137"/>
      <point x="129" y="-165"/>
      <point x="163" y="-165" type="curve" smooth="yes"/>
      <point x="214" y="-165"/>
      <point x="238" y="-127"/>
      <point x="244" y="-127" type="curve" smooth="yes"/>
      <point x="245" y="-127"/>
      <point x="248" y="-132"/>
      <point x="248" y="-140" type="curve" smooth="yes"/>
      <point x="248" y="-145"/>
      <point x="247" y="-154"/>
      <point x="244" y="-158" type="curve" smooth="yes"/>
      <point x="222" y="-187"/>
      <point x="184" y="-224"/>
      <point x="139" y="-224" type="curve" smooth="yes"/>
      <point x="83" y="-224"/>
      <point x="68" y="-174"/>
      <point x="68" y="-147" type="curve" smooth="yes"/>
      <point x="68" y="-93"/>
      <point x="131" y="-33"/>
      <point x="184" y="2" type="curve"/>
      <point x="166" y="2" type="line" smooth="yes"/>
      <point x="120" y="2"/>
      <point x="92" y="-1"/>
      <point x="46" y="-3" type="curve"/>
      <point x="44" y="-1"/>
      <point x="42" y="6"/>
    </contour>
  </outline>
</glyph>
<glyph name="iogonek" format="1">
  <advance width="268"/>
  <unicode hex="012F"/>
  <outline>
    <contour>
      <point x="32" y="-3" type="curve"/>
      <point x="27" y="2"/>
      <point x="28" y="21"/>
      <point x="32" y="26" type="curve"/>
      <point x="44" y="26"/>
      <point x="92" y="31"/>
      <point x="95" y="42" type="curve" smooth="yes"/>
      <point x="100" y="58"/>
      <point x="100" y="86"/>
      <point x="100" y="116" type="curve" smooth="yes"/>
      <point x="100" y="302" type="line" smooth="yes"/>
      <point x="100" y="315"/>
      <point x="100" y="342"/>
      <point x="95" y="354" type="curve" smooth="yes"/>
      <point x="88" y="371"/>
      <point x="37" y="372"/>
      <point x="30" y="372" type="curve"/>
      <point x="28" y="374"/>
      <point x="26" y="393"/>
      <point x="30" y="398" type="curve"/>
      <point x="81" y="405"/>
      <point x="133" y="419"/>
      <point x="173" y="440" type="curve"/>
      <point x="178" y="440"/>
      <point x="184" y="429"/>
      <point x="184" y="424" type="curve"/>
      <point x="183" y="417"/>
      <point x="177" y="368"/>
      <point x="177" y="358" type="curve" smooth="yes"/>
      <point x="177" y="116" type="line" smooth="yes"/>
      <point x="177" y="86"/>
      <point x="177" y="58"/>
      <point x="182" y="42" type="curve" smooth="yes"/>
      <point x="185" y="31"/>
      <point x="233" y="26"/>
      <point x="245" y="26" type="curve"/>
      <point x="249" y="21"/>
      <point x="250" y="2"/>
      <point x="245" y="-3" type="curve"/>
      <point x="236" y="-2"/>
      <point x="220" y="-2"/>
      <point x="211" y="-1" type="curve"/>
      <point x="167" y="-28"/>
      <point x="106" y="-79"/>
      <point x="106" y="-122" type="curve" smooth="yes"/>
      <point x="106" y="-137"/>
      <point x="113" y="-165"/>
      <point x="147" y="-165" type="curve" smooth="yes"/>
      <point x="198" y="-165"/>
      <point x="222" y="-127"/>
      <point x="228" y="-127" type="curve" smooth="yes"/>
      <point x="229" y="-127"/>
      <point x="232" y="-132"/>
      <point x="232" y="-140" type="curve" smooth="yes"/>
      <point x="232" y="-145"/>
      <point x="231" y="-154"/>
      <point x="228" y="-158" type="curve" smooth="yes"/>
      <point x="206" y="-187"/>
      <point x="168" y="-224"/>
      <point x="123" y="-224" type="curve" smooth="yes"/>
      <point x="67" y="-224"/>
      <point x="52" y="-174"/>
      <point x="52" y="-147" type="curve" smooth="yes"/>
      <point x="52" y="-93"/>
      <point x="115" y="-34"/>
      <point x="168" y="1" type="curve"/>
      <point x="160" y="1"/>
      <point x="151" y="2"/>
      <point x="141" y="2" type="curve" smooth="yes"/>
      <point x="100" y="2"/>
      <point x="73" y="-1"/>
    </contour>
    <component base="uni0307" xOffset="140" yOffset="45"/>
  </outline>
</glyph>
<glyph name="Eng" format="1">
  <advance width="776"/>
  <unicode hex="014A"/>
  <outline>
    <contour>
      <point x="41" y="-3" type="curve"/>
      <point x="38" y="2"/>
      <point x="36" y="15"/>
      <point x="41" y="26" type="curve"/>
      <point x="53" y="26"/>
      <point x="112" y="34"/>
      <point x="119" y="46" type="curve" smooth="yes"/>
      <point x="128" y="61"/>
      <point x="129" y="76"/>
      <point x="129" y="114" type="curve" smooth="yes"/>
      <point x="129" y="548" type="line" smooth="yes"/>
      <point x="129" y="586"/>
      <point x="128" y="601"/>
      <point x="119" y="616" type="curve" smooth="yes"/>
      <point x="112" y="628"/>
      <point x="53" y="636"/>
      <point x="41" y="636" type="curve"/>
      <point x="36" y="647"/>
      <point x="38" y="660"/>
      <point x="41" y="665" type="curve"/>
      <point x="87" y="663"/>
      <point x="110" y="660"/>
      <point x="143" y="660" type="curve" smooth="yes"/>
      <point x="173" y="660"/>
      <point x="205" y="661"/>
      <point x="219" y="662" type="curve"/>
      <point x="270" y="582"/>
      <point x="500" y="321"/>
      <point x="611" y="166" type="curve"/>
      <point x="611" y="545" type="line" smooth="yes"/>
      <point x="611" y="581"/>
      <point x="611" y="598"/>
      <point x="601" y="614" type="curve" smooth="yes"/>
      <point x="595" y="624"/>
      <point x="541" y="634"/>
      <point x="525" y="634" type="curve"/>
      <point x="520" y="641"/>
      <point x="521" y="657"/>
      <point x="523" y="663" type="curve"/>
      <point x="563" y="661"/>
      <point x="594" y="658"/>
      <point x="638" y="658" type="curve" smooth="yes"/>
      <point x="684" y="658"/>
      <point x="699" y="661"/>
      <point x="745" y="663" type="curve"/>
      <point x="748" y="658"/>
      <point x="750" y="645"/>
      <point x="745" y="634" type="curve"/>
      <point x="733" y="634"/>
      <point x="674" y="626"/>
      <point x="667" y="614" type="curve" smooth="yes"/>
      <point x="658" y="599"/>
      <point x="657" y="584"/>
      <point x="657" y="546" type="curve" smooth="yes"/>
      <point x="657" y="121" type="line" smooth="yes"/>
      <point x="657" y="-129"/>
      <point x="558" y="-227"/>
      <point x="423" y="-227" type="curve" smooth="yes"/>
      <point x="408" y="-227"/>
      <point x="372" y="-218"/>
      <point x="360" y="-209" type="curve"/>
      <point x="355" y="-204"/>
      <point x="352" y="-193"/>
      <point x="352" y="-186" type="curve" smooth="yes"/>
      <point x="352" y="-155"/>
      <point x="368" y="-130"/>
      <point x="400" y="-130" type="curve" smooth="yes"/>
      <point x="418" y="-130"/>
      <point x="434" y="-146"/>
      <point x="448" y="-159" type="curve" smooth="yes"/>
      <point x="459" y="-169"/>
      <point x="476" y="-180"/>
      <point x="493" y="-180" type="curve" smooth="yes"/>
      <point x="530" y="-180"/>
      <point x="583" y="-138"/>
      <point x="595" y="38" type="curve"/>
      <point x="175" y="569" type="line"/>
      <point x="175" y="115" type="line" smooth="yes"/>
      <point x="175" y="79"/>
      <point x="175" y="62"/>
      <point x="185" y="46" type="curve" smooth="yes"/>
      <point x="191" y="36"/>
      <point x="244" y="26"/>
      <point x="260" y="26" type="curve"/>
      <point x="265" y="19"/>
      <point x="264" y="3"/>
      <point x="262" y="-3" type="curve"/>
      <point x="222" y="-1"/>
      <point x="192" y="2"/>
      <point x="148" y="2" type="curve" smooth="yes"/>
      <point x="102" y="2"/>
      <point x="87" y="-1"/>
    </contour>
  </outline>
</glyph>
<glyph name="eng" format="1">
  <advance width="521"/>
  <unicode hex="014B"/>
  <outline>
    <contour>
      <point x="34" y="372" type="curve"/>
      <point x="32" y="374"/>
      <point x="30" y="393"/>
      <point x="34" y="398" type="curve"/>
      <point x="85" y="405"/>
      <point x="137" y="419"/>
      <point x="177" y="440" type="curve"/>
      <point x="182" y="440"/>
      <point x="188" y="429"/>
      <point x="188" y="424" type="curve"/>
      <point x="187" y="417"/>
      <point x="182" y="375"/>
      <point x="182" y="367" type="curve" smooth="yes"/>
      <point x="182" y="366"/>
      <point x="182" y="363"/>
      <point x="184" y="363" type="curve" smooth="yes"/>
      <point x="185" y="363"/>
      <point x="186" y="364"/>
      <point x="187" y="365" type="curve" smooth="yes"/>
      <point x="207" y="387"/>
      <point x="274" y="438"/>
      <point x="322" y="438" type="curve" smooth="yes"/>
      <point x="430" y="438"/>
      <point x="451" y="371"/>
      <point x="451" y="226" type="curve" smooth="yes"/>
      <point x="451" y="68" type="line" smooth="yes"/>
      <point x="451" y="-124"/>
      <point x="346" y="-203"/>
      <point x="278" y="-231" type="curve"/>
      <point x="273" y="-228"/>
      <point x="267" y="-221"/>
      <point x="265" y="-216" type="curve" smooth="yes"/>
      <point x="264" y="-214"/>
      <point x="264" y="-210"/>
      <point x="265" y="-209" type="curve"/>
      <point x="322" y="-168"/>
      <point x="374" y="-120"/>
      <point x="374" y="46" type="curve" smooth="yes"/>
      <point x="374" y="216" type="line" smooth="yes"/>
      <point x="374" y="340"/>
      <point x="354" y="380"/>
      <point x="276" y="380" type="curve" smooth="yes"/>
      <point x="239" y="380"/>
      <point x="181" y="334"/>
      <point x="181" y="325" type="curve" smooth="yes"/>
      <point x="181" y="116" type="line" smooth="yes"/>
      <point x="181" y="86"/>
      <point x="181" y="58"/>
      <point x="186" y="42" type="curve" smooth="yes"/>
      <point x="189" y="31"/>
      <point x="237" y="26"/>
      <point x="249" y="26" type="curve"/>
      <point x="253" y="21"/>
      <point x="254" y="2"/>
      <point x="249" y="-3" type="curve"/>
      <point x="208" y="-1"/>
      <point x="181" y="2"/>
      <point x="142" y="2" type="curve" smooth="yes"/>
      <point x="103" y="2"/>
      <point x="77" y="-1"/>
      <point x="36" y="-3" type="curve"/>
      <point x="31" y="2"/>
      <point x="32" y="21"/>
      <point x="36" y="26" type="curve"/>
      <point x="48" y="26"/>
      <point x="96" y="31"/>
      <point x="99" y="42" type="curve" smooth="yes"/>
      <point x="104" y="58"/>
      <point x="104" y="86"/>
      <point x="104" y="116" type="curve" smooth="yes"/>
      <point x="104" y="302" type="line" smooth="yes"/>
      <point x="104" y="315"/>
      <point x="104" y="342"/>
      <point x="99" y="354" type="curve" smooth="yes"/>
      <point x="92" y="371"/>
      <point x="41" y="372"/>
    </contour>
  </outline>
</glyph>
<glyph name="OE" format="1">
  <advance width="1017"/>
  <unicode hex="0152"/>
  <outline>
    <contour>
      <point x="49" y="328" type="curve" smooth="yes"/>
      <point x="49" y="515"/>
      <point x="199" y="667"/>
      <point x="368" y="667" type="curve" smooth="yes"/>
      <point x="393" y="667"/>
      <point x="528" y="656"/>
      <point x="593" y="657" type="curve" smooth="yes"/>
      <point x="687" y="657"/>
      <point x="806" y="664"/>
      <point x="915" y="664" type="curve"/>
      <point x="922" y="614"/>
      <point x="935" y="573"/>
      <point x="944" y="528" type="curve"/>
      <point x="941" y="525"/>
      <point x="933" y="523"/>
      <point x="926" y="523" type="curve" smooth="yes"/>
      <point x="919" y="523"/>
      <point x="913" y="525"/>
      <point x="912" y="530" type="curve" smooth="yes"/>
      <point x="890" y="610"/>
      <point x="849" y="624"/>
      <point x="796" y="624" type="curve" smooth="yes"/>
      <point x="710" y="624" type="line" smooth="yes"/>
      <point x="698" y="624"/>
      <point x="644" y="623"/>
      <point x="641" y="613" type="curve" smooth="yes"/>
      <point x="636" y="597"/>
      <point x="636" y="569"/>
      <point x="636" y="542" type="curve" smooth="yes"/>
      <point x="636" y="355" type="line" smooth="yes"/>
      <point x="636" y="350"/>
      <point x="657" y="349"/>
      <point x="679" y="349" type="curve" smooth="yes"/>
      <point x="732" y="349" type="line" smooth="yes"/>
      <point x="828" y="349"/>
      <point x="825" y="355"/>
      <point x="842" y="421" type="curve" smooth="yes"/>
      <point x="843" y="426"/>
      <point x="850" y="428"/>
      <point x="857" y="428" type="curve" smooth="yes"/>
      <point x="864" y="428"/>
      <point x="871" y="426"/>
      <point x="874" y="423" type="curve"/>
      <point x="874" y="234" type="line"/>
      <point x="872" y="232"/>
      <point x="865" y="230"/>
      <point x="858" y="230" type="curve" smooth="yes"/>
      <point x="851" y="230"/>
      <point x="844" y="233"/>
      <point x="842" y="238" type="curve" smooth="yes"/>
      <point x="827" y="295"/>
      <point x="823" y="298"/>
      <point x="814" y="304" type="curve" smooth="yes"/>
      <point x="803" y="311"/>
      <point x="746" y="312"/>
      <point x="708" y="312" type="curve" smooth="yes"/>
      <point x="680" y="312"/>
      <point x="636" y="312"/>
      <point x="636" y="303" type="curve" smooth="yes"/>
      <point x="636" y="113" type="line" smooth="yes"/>
      <point x="636" y="98"/>
      <point x="636" y="49"/>
      <point x="642" y="44" type="curve" smooth="yes"/>
      <point x="655" y="34"/>
      <point x="671" y="34"/>
      <point x="713" y="34" type="curve" smooth="yes"/>
      <point x="761" y="34" type="line" smooth="yes"/>
      <point x="808" y="34"/>
      <point x="859" y="44"/>
      <point x="887" y="61" type="curve" smooth="yes"/>
      <point x="919" y="80"/>
      <point x="934" y="119"/>
      <point x="950" y="162" type="curve" smooth="yes"/>
      <point x="951" y="166"/>
      <point x="957" y="168"/>
      <point x="964" y="168" type="curve" smooth="yes"/>
      <point x="974" y="168"/>
      <point x="986" y="165"/>
      <point x="989" y="162" type="curve"/>
      <point x="970" y="108"/>
      <point x="942" y="40"/>
      <point x="935" y="-4" type="curve"/>
      <point x="826" y="-4"/>
      <point x="727" y="0"/>
      <point x="594" y="0" type="curve" smooth="yes"/>
      <point x="548" y="0"/>
      <point x="505" y="-1"/>
      <point x="476" y="-3" type="curve" smooth="yes"/>
      <point x="461" y="-4"/>
      <point x="388" y="-7"/>
      <point x="363" y="-7" type="curve" smooth="yes"/>
      <point x="187" y="-7"/>
      <point x="49" y="141"/>
    </contour>
    <contour>
      <point x="148" y="350" type="curve" smooth="yes"/>
      <point x="148" y="195"/>
      <point x="233" y="24"/>
      <point x="388" y="24" type="curve" smooth="yes"/>
      <point x="443" y="24"/>
      <point x="502" y="28"/>
      <point x="525" y="63" type="curve" smooth="yes"/>
      <point x="549" y="99"/>
      <point x="549" y="133"/>
      <point x="549" y="187" type="curve" smooth="yes"/>
      <point x="549" y="495" type="line" smooth="yes"/>
      <point x="549" y="530"/>
      <point x="543" y="563"/>
      <point x="514" y="593" type="curve" smooth="yes"/>
      <point x="481" y="628"/>
      <point x="427" y="633"/>
      <point x="357" y="633" type="curve" smooth="yes"/>
      <point x="212" y="633"/>
      <point x="148" y="484"/>
    </contour>
  </outline>
</glyph>
<glyph name="oe" format="1">
  <advance width="778"/>
  <unicode hex="0153"/>
  <outline>
    <contour>
      <point x="41" y="213" type="curve" smooth="yes"/>
      <point x="41" y="342"/>
      <point x="133" y="439"/>
      <point x="254" y="439" type="curve" smooth="yes"/>
      <point x="336" y="439"/>
      <point x="399" y="403"/>
      <point x="435" y="346" type="curve"/>
      <point x="475" y="403"/>
      <point x="533" y="438"/>
      <point x="585" y="438" type="curve" smooth="yes"/>
      <point x="705" y="438"/>
      <point x="735" y="342"/>
      <point x="735" y="302" type="curve" smooth="yes"/>
      <point x="735" y="273"/>
      <point x="730" y="256"/>
      <point x="711" y="255" type="curve" smooth="yes"/>
      <point x="683" y="254"/>
      <point x="499" y="249"/>
      <point x="459" y="248" type="curve"/>
      <point x="459" y="101"/>
      <point x="550" y="56"/>
      <point x="622" y="56" type="curve" smooth="yes"/>
      <point x="677" y="56"/>
      <point x="719" y="94"/>
      <point x="732" y="109" type="curve" smooth="yes"/>
      <point x="733" y="109"/>
      <point x="740" y="103"/>
      <point x="740" y="95" type="curve" smooth="yes"/>
      <point x="740" y="90"/>
      <point x="737" y="82"/>
      <point x="734" y="77" type="curve" smooth="yes"/>
      <point x="716" y="48"/>
      <point x="666" y="-8"/>
      <point x="588" y="-8" type="curve" smooth="yes"/>
      <point x="516" y="-8"/>
      <point x="458" y="25"/>
      <point x="423" y="78" type="curve"/>
      <point x="385" y="26"/>
      <point x="325" y="-7"/>
      <point x="256" y="-7" type="curve" smooth="yes"/>
      <point x="124" y="-7"/>
      <point x="41" y="88"/>
    </contour>
    <contour>
      <point x="127" y="233" type="curve" smooth="yes"/>
      <point x="127" y="136"/>
      <point x="176" y="26"/>
      <point x="266" y="26" type="curve" smooth="yes"/>
      <point x="351" y="26"/>
      <point x="382" y="113"/>
      <point x="382" y="198" type="curve" smooth="yes"/>
      <point x="382" y="295"/>
      <point x="332" y="406"/>
      <point x="243" y="406" type="curve" smooth="yes"/>
      <point x="158" y="406"/>
      <point x="127" y="319"/>
    </contour>
    <contour>
      <point x="464" y="285" type="curve" smooth="yes"/>
      <point x="627" y="285" type="line" smooth="yes"/>
      <point x="639" y="285"/>
      <point x="649" y="290"/>
      <point x="650" y="308" type="curve" smooth="yes"/>
      <point x="651" y="332"/>
      <point x="629" y="402"/>
      <point x="568" y="402" type="curve" smooth="yes"/>
      <point x="484" y="402"/>
      <point x="462" y="285"/>
    </contour>
  </outline>
</glyph>
<glyph name="tcommaaccent" format="1">
  <advance width="311"/>
  <unicode hex="0163"/>
  <outline>
    <contour>
      <point x="20" y="400" type="curve" smooth="yes"/>
      <point x="20" y="404"/>
      <point x="45" y="431"/>
      <point x="46" y="432" type="curve" smooth="yes"/>
      <point x="83" y="432" type="line"/>
      <point x="83" y="495" type="line"/>
      <point x="102" y="517"/>
      <point x="142" y="559"/>
      <point x="144" y="562" type="curve" smooth="yes"/>
      <point x="149" y="567"/>
      <point x="160" y="567"/>
      <point x="160" y="563" type="curve" smooth="yes"/>
      <point x="160" y="432" type="line"/>
      <point x="289" y="432" type="line" smooth="yes"/>
      <point x="294" y="432"/>
      <point x="294" y="427"/>
      <point x="294" y="421" type="curve" smooth="yes"/>
      <point x="294" y="412"/>
      <point x="289" y="400"/>
      <point x="280" y="391" type="curve"/>
      <point x="160" y="391" type="line"/>
      <point x="160" y="129" type="line" smooth="yes"/>
      <point x="160" y="76"/>
      <point x="182" y="47"/>
      <point x="226" y="47" type="curve" smooth="yes"/>
      <point x="256" y="47"/>
      <point x="284" y="65"/>
      <point x="291" y="70" type="curve" smooth="yes"/>
      <point x="293" y="69"/>
      <point x="294" y="66"/>
      <point x="294" y="63" type="curve" smooth="yes"/>
      <point x="294" y="57"/>
      <point x="291" y="49"/>
      <point x="290" y="48" type="curve" smooth="yes"/>
      <point x="276.342" y="32.391"/>
      <point x="237.939" y="-5.10773"/>
      <point x="190.576" y="-6.93104" type="curve"/>
      <point x="178" y="-23" type="line"/>
      <point x="203" y="-23" type="line" smooth="yes"/>
      <point x="229" y="-23"/>
      <point x="247" y="-46"/>
      <point x="247" y="-72" type="curve" smooth="yes"/>
      <point x="247" y="-119"/>
      <point x="205" y="-148"/>
      <point x="153" y="-148" type="curve" smooth="yes"/>
      <point x="141" y="-148"/>
      <point x="125" y="-143"/>
      <point x="119" y="-139" type="curve" smooth="yes"/>
      <point x="118" y="-134"/>
      <point x="116" y="-131"/>
      <point x="116" y="-125" type="curve" smooth="yes"/>
      <point x="116" y="-118"/>
      <point x="124" y="-111"/>
      <point x="130" y="-111" type="curve" smooth="yes"/>
      <point x="142" y="-111"/>
      <point x="151" y="-124"/>
      <point x="167" y="-124" type="curve" smooth="yes"/>
      <point x="195" y="-124"/>
      <point x="210" y="-108"/>
      <point x="210" y="-91" type="curve" smooth="yes"/>
      <point x="210" y="-67"/>
      <point x="192" y="-57"/>
      <point x="179" y="-57" type="curve" smooth="yes"/>
      <point x="168" y="-57"/>
      <point x="163" y="-60"/>
      <point x="153" y="-64" type="curve" smooth="yes"/>
      <point x="151" y="-64"/>
      <point x="141" y="-55"/>
      <point x="143" y="-51" type="curve" smooth="yes"/>
      <point x="150.749" y="-38.0844"/>
      <point x="162.947" y="-19.979"/>
      <point x="171.294" y="-6.25947" type="curve"/>
      <point x="125.68" y="-1.81036"/>
      <point x="83" y="23.8259"/>
      <point x="83" y="101" type="curve" smooth="yes"/>
      <point x="83" y="391" type="line"/>
      <point x="25" y="391" type="line" smooth="yes"/>
      <point x="22" y="391"/>
      <point x="20" y="397"/>
    </contour>
  </outline>
</glyph>
<glyph name="Tbar" format="1">
  <advance width="626"/>
  <unicode hex="0166"/>
  <outline>
    <contour>
      <point x="157" y="311" type="line" smooth="yes"/>
      <point x="153" y="311"/>
      <point x="152" y="339"/>
      <point x="158" y="348" type="curve"/>
      <point x="269" y="348" type="line"/>
      <point x="269" y="626" type="line"/>
      <point x="140" y="626" type="line" smooth="yes"/>
      <point x="90" y="626"/>
      <point x="58" y="574"/>
      <point x="44" y="504" type="curve" smooth="yes"/>
      <point x="42" y="501"/>
      <point x="35" y="499"/>
      <point x="30" y="499" type="curve" smooth="yes"/>
      <point x="21" y="498"/>
      <point x="14" y="503"/>
      <point x="11" y="506" type="curve" smooth="yes"/>
      <point x="22" y="559"/>
      <point x="30" y="617"/>
      <point x="37" y="678" type="curve"/>
      <point x="43" y="681"/>
      <point x="54" y="678"/>
      <point x="60" y="675" type="curve" smooth="yes"/>
      <point x="72" y="669"/>
      <point x="100" y="661"/>
      <point x="116" y="661" type="curve" smooth="yes"/>
      <point x="507" y="661" type="line" smooth="yes"/>
      <point x="523" y="661"/>
      <point x="555" y="670"/>
      <point x="567" y="676" type="curve" smooth="yes"/>
      <point x="577" y="681"/>
      <point x="580" y="681"/>
      <point x="586" y="678" type="curve"/>
      <point x="593" y="617"/>
      <point x="601" y="559"/>
      <point x="612" y="506" type="curve" smooth="yes"/>
      <point x="609" y="503"/>
      <point x="602" y="498"/>
      <point x="593" y="499" type="curve" smooth="yes"/>
      <point x="588" y="499"/>
      <point x="581" y="501"/>
      <point x="579" y="504" type="curve" smooth="yes"/>
      <point x="565" y="574"/>
      <point x="533" y="626"/>
      <point x="483" y="626" type="curve" smooth="yes"/>
      <point x="356" y="626" type="line"/>
      <point x="356" y="348" type="line"/>
      <point x="473" y="348" type="line" smooth="yes"/>
      <point x="477" y="348"/>
      <point x="477" y="320"/>
      <point x="473" y="311" type="curve"/>
      <point x="356" y="311" type="line"/>
      <point x="356" y="116" type="line" smooth="yes"/>
      <point x="356" y="86"/>
      <point x="356" y="58"/>
      <point x="361" y="42" type="curve" smooth="yes"/>
      <point x="364" y="31"/>
      <point x="418" y="26"/>
      <point x="430" y="26" type="curve"/>
      <point x="434" y="21"/>
      <point x="435" y="2"/>
      <point x="430" y="-3" type="curve"/>
      <point x="389" y="-1"/>
      <point x="352" y="2"/>
      <point x="313" y="2" type="curve" smooth="yes"/>
      <point x="274" y="2"/>
      <point x="236" y="-1"/>
      <point x="195" y="-3" type="curve"/>
      <point x="190" y="2"/>
      <point x="191" y="21"/>
      <point x="195" y="26" type="curve"/>
      <point x="207" y="26"/>
      <point x="261" y="31"/>
      <point x="264" y="42" type="curve" smooth="yes"/>
      <point x="269" y="58"/>
      <point x="269" y="86"/>
      <point x="269" y="116" type="curve" smooth="yes"/>
      <point x="269" y="311" type="line"/>
    </contour>
  </outline>
</glyph>
<glyph name="tbar" format="1">
  <advance width="311"/>
  <unicode hex="0167"/>
  <outline>
    <contour>
      <point x="288" y="308" type="line" smooth="yes"/>
      <point x="293" y="308"/>
      <point x="294" y="301"/>
      <point x="294" y="296" type="curve" smooth="yes"/>
      <point x="294" y="285"/>
      <point x="293" y="274"/>
      <point x="288" y="268" type="curve"/>
      <point x="159" y="268" type="line"/>
      <point x="159" y="129" type="line" smooth="yes"/>
      <point x="159" y="76"/>
      <point x="181" y="47"/>
      <point x="225" y="47" type="curve" smooth="yes"/>
      <point x="255" y="47"/>
      <point x="283" y="65"/>
      <point x="290" y="70" type="curve" smooth="yes"/>
      <point x="292" y="69"/>
      <point x="293" y="66"/>
      <point x="293" y="63" type="curve" smooth="yes"/>
      <point x="293" y="57"/>
      <point x="290" y="49"/>
      <point x="289" y="48" type="curve" smooth="yes"/>
      <point x="275" y="32"/>
      <point x="235" y="-7"/>
      <point x="186" y="-7" type="curve" smooth="yes"/>
      <point x="135" y="-7"/>
      <point x="82" y="15"/>
      <point x="82" y="101" type="curve" smooth="yes"/>
      <point x="82" y="268" type="line"/>
      <point x="28" y="268" type="line" smooth="yes"/>
      <point x="23" y="268"/>
      <point x="22" y="275"/>
      <point x="22" y="280" type="curve" smooth="yes"/>
      <point x="22" y="291"/>
      <point x="23" y="302"/>
      <point x="28" y="308" type="curve"/>
      <point x="82" y="308" type="line"/>
      <point x="82" y="391" type="line"/>
      <point x="24" y="391" type="line" smooth="yes"/>
      <point x="21" y="391"/>
      <point x="19" y="397"/>
      <point x="19" y="400" type="curve" smooth="yes"/>
      <point x="19" y="404"/>
      <point x="44" y="431"/>
      <point x="45" y="432" type="curve" smooth="yes"/>
      <point x="82" y="432" type="line"/>
      <point x="82" y="495" type="line"/>
      <point x="101" y="517"/>
      <point x="141" y="559"/>
      <point x="143" y="562" type="curve" smooth="yes"/>
      <point x="148" y="567"/>
      <point x="159" y="567"/>
      <point x="159" y="563" type="curve" smooth="yes"/>
      <point x="159" y="432" type="line"/>
      <point x="288" y="432" type="line" smooth="yes"/>
      <point x="293" y="432"/>
      <point x="293" y="427"/>
      <point x="293" y="421" type="curve" smooth="yes"/>
      <point x="293" y="412"/>
      <point x="288" y="400"/>
      <point x="279" y="391" type="curve"/>
      <point x="159" y="391" type="line"/>
      <point x="159" y="308" type="line"/>
    </contour>
  </outline>
</glyph>
<glyph name="uogonek" format="1">
  <advance width="515"/>
  <unicode hex="0173"/>
  <outline>
    <contour>
      <point x="358" y="-8" type="curve" smooth="yes"/>
      <point x="353" y="-8"/>
      <point x="350" y="1"/>
      <point x="350" y="8" type="curve" smooth="yes"/>
      <point x="350" y="54" type="line" smooth="yes"/>
      <point x="350" y="59"/>
      <point x="348" y="59"/>
      <point x="348" y="59" type="curve"/>
      <point x="320" y="29"/>
      <point x="257" y="-7"/>
      <point x="206" y="-7" type="curve" smooth="yes"/>
      <point x="100" y="-7"/>
      <point x="81" y="108"/>
      <point x="81" y="192" type="curve" smooth="yes"/>
      <point x="81" y="320" type="line" smooth="yes"/>
      <point x="81" y="333"/>
      <point x="81" y="359"/>
      <point x="73" y="374" type="curve" smooth="yes"/>
      <point x="63" y="392"/>
      <point x="30" y="394"/>
      <point x="17" y="394" type="curve"/>
      <point x="14" y="397"/>
      <point x="13" y="415"/>
      <point x="17" y="420" type="curve"/>
      <point x="68" y="422"/>
      <point x="118" y="429"/>
      <point x="154" y="440" type="curve"/>
      <point x="159" y="440"/>
      <point x="165" y="425"/>
      <point x="165" y="420" type="curve"/>
      <point x="161" y="412"/>
      <point x="158" y="380"/>
      <point x="158" y="351" type="curve" smooth="yes"/>
      <point x="158" y="204" type="line" smooth="yes"/>
      <point x="158" y="98"/>
      <point x="188" y="49"/>
      <point x="258" y="49" type="curve" smooth="yes"/>
      <point x="302" y="49"/>
      <point x="350" y="80"/>
      <point x="350" y="104" type="curve" smooth="yes"/>
      <point x="350" y="320" type="line" smooth="yes"/>
      <point x="350" y="333"/>
      <point x="350" y="359"/>
      <point x="342" y="374" type="curve" smooth="yes"/>
      <point x="332" y="392"/>
      <point x="299" y="394"/>
      <point x="286" y="394" type="curve"/>
      <point x="283" y="397"/>
      <point x="282" y="415"/>
      <point x="286" y="420" type="curve"/>
      <point x="337" y="422"/>
      <point x="387" y="429"/>
      <point x="423" y="440" type="curve"/>
      <point x="428" y="440"/>
      <point x="434" y="421"/>
      <point x="434" y="416" type="curve"/>
      <point x="430" y="408"/>
      <point x="427" y="380"/>
      <point x="427" y="351" type="curve" smooth="yes"/>
      <point x="427" y="141" type="line" smooth="yes"/>
      <point x="427" y="130"/>
      <point x="428" y="93"/>
      <point x="434" y="65" type="curve" smooth="yes"/>
      <point x="439" y="46"/>
      <point x="490" y="48"/>
      <point x="493" y="47" type="curve" smooth="yes"/>
      <point x="495" y="46"/>
      <point x="496" y="39"/>
      <point x="496" y="36" type="curve" smooth="yes"/>
      <point x="496" y="34"/>
      <point x="493" y="20"/>
      <point x="488" y="20" type="curve"/>
      <point x="476" y="19"/>
      <point x="470" y="18"/>
      <point x="470" y="18" type="curve" smooth="yes"/>
      <point x="430.049" y="13.561"/>
      <point x="351" y="-73"/>
      <point x="351" y="-122" type="curve" smooth="yes"/>
      <point x="351" y="-140"/>
      <point x="358" y="-168"/>
      <point x="392" y="-168" type="curve" smooth="yes"/>
      <point x="443" y="-168"/>
      <point x="467" y="-130"/>
      <point x="473" y="-130" type="curve" smooth="yes"/>
      <point x="474" y="-130"/>
      <point x="478" y="-135"/>
      <point x="478" y="-143" type="curve" smooth="yes"/>
      <point x="478" y="-148"/>
      <point x="476" y="-157"/>
      <point x="473" y="-161" type="curve" smooth="yes"/>
      <point x="451" y="-190"/>
      <point x="413" y="-227"/>
      <point x="368" y="-227" type="curve" smooth="yes"/>
      <point x="312" y="-227"/>
      <point x="297" y="-177"/>
      <point x="297" y="-150" type="curve" smooth="yes"/>
      <point x="297" y="-107"/>
      <point x="356" y="-26"/>
      <point x="400" y="4" type="curve"/>
      <point x="383" y="-1"/>
      <point x="359" y="-8"/>
    </contour>
  </outline>
</glyph>
<glyph name="ohorn" format="1">
  <advance width="516"/>
  <unicode hex="01A1"/>
  <outline>
    <contour>
      <point x="429" y="357" type="curve"/>
      <point x="450" y="325"/>
      <point x="467" y="272"/>
      <point x="467" y="221" type="curve" smooth="yes"/>
      <point x="467" y="92"/>
      <point x="376" y="-7"/>
      <point x="255" y="-7" type="curve" smooth="yes"/>
      <point x="123" y="-7"/>
      <point x="40" y="88"/>
      <point x="40" y="213" type="curve" smooth="yes"/>
      <point x="40" y="342"/>
      <point x="132" y="439"/>
      <point x="253" y="439" type="curve" smooth="yes"/>
      <point x="287" y="439"/>
      <point x="311" y="436"/>
      <point x="344" y="422" type="curve" smooth="yes"/>
      <point x="378" y="407"/>
      <point x="421" y="381"/>
      <point x="441" y="381" type="curve" smooth="yes"/>
      <point x="460" y="381"/>
      <point x="469" y="389"/>
      <point x="469" y="405" type="curve" smooth="yes"/>
      <point x="469" y="412.484"/>
      <point x="466.281" y="416.998"/>
      <point x="461.322" y="424" type="curve" smooth="yes"/>
      <point x="456.593" y="430.677"/>
      <point x="452" y="438.29"/>
      <point x="452" y="450" type="curve" smooth="yes"/>
      <point x="452" y="470"/>
      <point x="468" y="482"/>
      <point x="493" y="482" type="curve" smooth="yes"/>
      <point x="503" y="482"/>
      <point x="518" y="477"/>
      <point x="525" y="472" type="curve"/>
      <point x="533" y="462"/>
      <point x="536" y="449"/>
      <point x="536" y="434" type="curve" smooth="yes"/>
      <point x="536" y="389"/>
      <point x="503" y="354"/>
      <point x="456" y="354" type="curve" smooth="yes"/>
      <point x="445" y="354"/>
      <point x="434" y="355"/>
    </contour>
    <contour>
      <point x="126" y="233" type="curve" smooth="yes"/>
      <point x="126" y="136"/>
      <point x="175" y="26"/>
      <point x="265" y="26" type="curve" smooth="yes"/>
      <point x="350" y="26"/>
      <point x="381" y="113"/>
      <point x="381" y="198" type="curve" smooth="yes"/>
      <point x="381" y="295"/>
      <point x="331" y="406"/>
      <point x="242" y="406" type="curve" smooth="yes"/>
      <point x="157" y="406"/>
      <point x="126" y="319"/>
    </contour>
  </outline>
</glyph>
<glyph name="uni01E3" format="1">
  <advance width="653"/>
  <unicode hex="01E3"/>
  <outline>
    <contour>
      <point x="126" y="534" type="curve" smooth="yes"/>
      <point x="126" y="536"/>
      <point x="127" y="571"/>
      <point x="138" y="571" type="curve" smooth="yes"/>
      <point x="513" y="571" type="line" smooth="yes"/>
      <point x="515" y="571"/>
      <point x="518" y="570"/>
      <point x="518" y="564" type="curve" smooth="yes"/>
      <point x="518" y="559"/>
      <point x="517" y="550"/>
      <point x="512" y="532" type="curve" smooth="yes"/>
      <point x="510" y="526"/>
      <point x="505" y="525"/>
      <point x="505" y="525" type="curve"/>
      <point x="132" y="525" type="line"/>
      <point x="132" y="525"/>
      <point x="126" y="524"/>
    </contour>
    <component base="ae"/>
  </outline>
</glyph>
<glyph name="uni021B" format="1">
  <advance width="312"/>
  <unicode hex="021B"/>
  <outline>
    <contour>
      <point x="110" y="-220" type="curve" smooth="yes"/>
      <point x="110" y="-215"/>
      <point x="156" y="-185"/>
      <point x="156" y="-161" type="curve" smooth="yes"/>
      <point x="156" y="-134"/>
      <point x="119" y="-131"/>
      <point x="119" y="-101" type="curve" smooth="yes"/>
      <point x="119" y="-76"/>
      <point x="138" y="-46"/>
      <point x="198" y="-46" type="curve"/>
      <point x="210" y="-56"/>
      <point x="220" y="-83"/>
      <point x="220" y="-99" type="curve" smooth="yes"/>
      <point x="220" y="-168"/>
      <point x="168" y="-208"/>
      <point x="138" y="-225" type="curve" smooth="yes"/>
      <point x="137" y="-226"/>
      <point x="134" y="-227"/>
      <point x="130" y="-227" type="curve" smooth="yes"/>
      <point x="117" y="-227"/>
      <point x="110" y="-223"/>
    </contour>
    <component base="t"/>
  </outline>
</glyph>
<glyph name="uni0237" format="1">
  <advance width="239"/>
  <unicode hex="0237"/>
  <outline>
    <contour>
      <point x="-17" y="-209" type="curve"/>
      <point x="40" y="-168"/>
      <point x="92" y="-121"/>
      <point x="92" y="45" type="curve" smooth="yes"/>
      <point x="92" y="302" type="line" smooth="yes"/>
      <point x="92" y="315"/>
      <point x="92" y="342"/>
      <point x="87" y="354" type="curve" smooth="yes"/>
      <point x="80" y="371"/>
      <point x="29" y="372"/>
      <point x="22" y="372" type="curve"/>
      <point x="20" y="374"/>
      <point x="18" y="393"/>
      <point x="22" y="398" type="curve"/>
      <point x="73" y="405"/>
      <point x="125" y="419"/>
      <point x="165" y="440" type="curve"/>
      <point x="170" y="440"/>
      <point x="176" y="429"/>
      <point x="176" y="424" type="curve"/>
      <point x="175" y="417"/>
      <point x="169" y="371"/>
      <point x="169" y="358" type="curve" smooth="yes"/>
      <point x="169" y="68" type="line" smooth="yes"/>
      <point x="169" y="-124"/>
      <point x="64" y="-203"/>
      <point x="-4" y="-231" type="curve"/>
      <point x="-9" y="-228"/>
      <point x="-15" y="-221"/>
      <point x="-17" y="-216" type="curve" smooth="yes"/>
      <point x="-18" y="-214"/>
      <point x="-18" y="-210"/>
    </contour>
  </outline>
</glyph>
<glyph name="uni02BE" format="1">
  <advance width="195"/>
  <unicode hex="02BE"/>
  <outline>
    <contour>
      <point x="30" y="664" type="curve"/>
      <point x="27" y="670"/>
      <point x="25" y="685"/>
      <point x="33" y="698" type="curve"/>
      <point x="107" y="698"/>
      <point x="165" y="639"/>
      <point x="165" y="569" type="curve" smooth="yes"/>
      <point x="165" y="499"/>
      <point x="104" y="438"/>
      <point x="31" y="438" type="curve"/>
      <point x="28" y="447"/>
      <point x="29" y="458"/>
      <point x="34" y="472" type="curve"/>
      <point x="81" y="472"/>
      <point x="114" y="517"/>
      <point x="114" y="568" type="curve" smooth="yes"/>
      <point x="114" y="623"/>
      <point x="85" y="664"/>
    </contour>
  </outline>
</glyph>
<glyph name="gravecomb" format="1">
  <advance width="0"/>
  <unicode hex="0300"/>
  <outline>
    <contour>
      <point x="-87" y="625" type="curve" smooth="yes"/>
      <point x="-87" y="630"/>
      <point x="-86" y="654"/>
      <point x="-51" y="654" type="curve" smooth="yes"/>
      <point x="-37" y="654"/>
      <point x="-25" y="647"/>
      <point x="-24" y="646" type="curve" smooth="yes"/>
      <point x="8" y="606"/>
      <point x="73" y="513"/>
      <point x="73" y="507" type="curve" smooth="yes"/>
      <point x="73" y="501"/>
      <point x="71" y="494"/>
      <point x="64" y="494" type="curve" smooth="yes"/>
      <point x="54" y="494"/>
      <point x="-87" y="593"/>
    </contour>
  </outline>
</glyph>
<glyph name="tildecomb" format="1">
  <advance width="0"/>
  <unicode hex="0303"/>
  <outline>
    <contour>
      <point x="-127" y="525" type="curve" smooth="yes"/>
      <point x="-127" y="538"/>
      <point x="-121" y="553"/>
      <point x="-115" y="562" type="curve" smooth="yes"/>
      <point x="-98" y="585"/>
      <point x="-77" y="598"/>
      <point x="-53" y="598" type="curve" smooth="yes"/>
      <point x="-28" y="598"/>
      <point x="-10" y="586"/>
      <point x="8" y="575" type="curve" smooth="yes"/>
      <point x="27" y="563"/>
      <point x="52" y="551"/>
      <point x="66" y="551" type="curve" smooth="yes"/>
      <point x="102" y="551"/>
      <point x="115" y="586"/>
      <point x="122" y="590" type="curve"/>
      <point x="128" y="590"/>
      <point x="128" y="585"/>
      <point x="128" y="581" type="curve" smooth="yes"/>
      <point x="128" y="568"/>
      <point x="120" y="552"/>
      <point x="114" y="543" type="curve" smooth="yes"/>
      <point x="97" y="520"/>
      <point x="76" y="506"/>
      <point x="52" y="506" type="curve" smooth="yes"/>
      <point x="27" y="506"/>
      <point x="10" y="517"/>
      <point x="-8" y="528" type="curve" smooth="yes"/>
      <point x="-27" y="540"/>
      <point x="-49" y="553"/>
      <point x="-67" y="553" type="curve" smooth="yes"/>
      <point x="-103" y="553"/>
      <point x="-112" y="518"/>
      <point x="-119" y="514" type="curve"/>
      <point x="-125" y="514"/>
      <point x="-127" y="521"/>
    </contour>
  </outline>
</glyph>
<glyph name="uni0305" format="1">
  <advance width="0"/>
  <unicode hex="0305"/>
  <outline>
    <contour>
      <point x="-301" y="748" type="curve" smooth="yes"/>
      <point x="-301" y="759"/>
      <point x="-297" y="802"/>
      <point x="-287" y="802" type="curve" smooth="yes"/>
      <point x="295" y="802" type="line" smooth="yes"/>
      <point x="297" y="802"/>
      <point x="301" y="801"/>
      <point x="301" y="793" type="curve" smooth="yes"/>
      <point x="301" y="782"/>
      <point x="297" y="739"/>
      <point x="287" y="739" type="curve" smooth="yes"/>
      <point x="-295" y="739" type="line" smooth="yes"/>
      <point x="-297" y="739"/>
      <point x="-301" y="740"/>
    </contour>
  </outline>
</glyph>
<glyph name="uni0308" format="1">
  <advance width="0"/>
  <unicode hex="0308"/>
  <outline>
    <contour>
      <point x="-138" y="552" type="curve" smooth="yes"/>
      <point x="-138" y="577"/>
      <point x="-115" y="598"/>
      <point x="-90" y="598" type="curve" smooth="yes"/>
      <point x="-65" y="598"/>
      <point x="-44" y="576"/>
      <point x="-44" y="551" type="curve" smooth="yes"/>
      <point x="-44" y="526"/>
      <point x="-66" y="506"/>
      <point x="-91" y="506" type="curve" smooth="yes"/>
      <point x="-116" y="506"/>
      <point x="-138" y="527"/>
    </contour>
    <contour>
      <point x="44" y="552" type="curve" smooth="yes"/>
      <point x="44" y="577"/>
      <point x="67" y="598"/>
      <point x="92" y="598" type="curve" smooth="yes"/>
      <point x="117" y="598"/>
      <point x="138" y="576"/>
      <point x="138" y="551" type="curve" smooth="yes"/>
      <point x="138" y="526"/>
      <point x="116" y="506"/>
      <point x="91" y="506" type="curve" smooth="yes"/>
      <point x="66" y="506"/>
      <point x="44" y="527"/>
    </contour>
  </outline>
</glyph>
<glyph name="hookabovecomb" format="1">
  <advance width="0"/>
  <unicode hex="0309"/>
  <outline>
    <contour>
      <point x="-72" y="596" type="curve" smooth="yes"/>
      <point x="-72" y="630"/>
      <point x="-22" y="672"/>
      <point x="21" y="672" type="curve" smooth="yes"/>
      <point x="56" y="672"/>
      <point x="75" y="651"/>
      <point x="75" y="621" type="curve" smooth="yes"/>
      <point x="75" y="588"/>
      <point x="47" y="565"/>
      <point x="24" y="555" type="curve" smooth="yes"/>
      <point x="6" y="547"/>
      <point x="0" y="542"/>
      <point x="0" y="530" type="curve" smooth="yes"/>
      <point x="0" y="522"/>
      <point x="5" y="514"/>
      <point x="8" y="511" type="curve"/>
      <point x="8" y="506"/>
      <point x="-3" y="497"/>
      <point x="-8" y="497" type="curve"/>
      <point x="-14" y="499"/>
      <point x="-42" y="510"/>
      <point x="-42" y="530" type="curve" smooth="yes"/>
      <point x="-42" y="555"/>
      <point x="-12" y="567"/>
      <point x="3" y="574" type="curve" smooth="yes"/>
      <point x="23" y="583"/>
      <point x="34" y="594"/>
      <point x="34" y="611" type="curve" smooth="yes"/>
      <point x="34" y="627"/>
      <point x="24" y="643"/>
      <point x="6" y="643" type="curve" smooth="yes"/>
      <point x="-14" y="643"/>
      <point x="-26" y="634"/>
      <point x="-26" y="607" type="curve" smooth="yes"/>
      <point x="-26" y="592"/>
      <point x="-44" y="587"/>
      <point x="-56" y="587" type="curve" smooth="yes"/>
      <point x="-63" y="587"/>
      <point x="-72" y="591"/>
    </contour>
  </outline>
</glyph>
<glyph name="uni030A" format="1">
  <advance width="0"/>
  <unicode hex="030A"/>
  <outline>
    <contour>
      <point x="-88" y="588" type="curve" smooth="yes"/>
      <point x="-88" y="637"/>
      <point x="-48" y="677"/>
      <point x="0" y="677" type="curve" smooth="yes"/>
      <point x="48" y="677"/>
      <point x="87" y="637"/>
      <point x="87" y="588" type="curve" smooth="yes"/>
      <point x="87" y="539"/>
      <point x="48" y="498"/>
      <point x="0" y="498" type="curve" smooth="yes"/>
      <point x="-48" y="498"/>
      <point x="-88" y="539"/>
    </contour>
    <contour>
      <point x="-55" y="588" type="curve" smooth="yes"/>
      <point x="-55" y="557"/>
      <point x="-30" y="532"/>
      <point x="0" y="532" type="curve" smooth="yes"/>
      <point x="30" y="532"/>
      <point x="54" y="557"/>
      <point x="54" y="588" type="curve" smooth="yes"/>
      <point x="54" y="619"/>
      <point x="30" y="643"/>
      <point x="0" y="643" type="curve" smooth="yes"/>
      <point x="-30" y="643"/>
      <point x="-55" y="619"/>
    </contour>
  </outline>
</glyph>
